<svg width="210" height="180" viewBox="0 0 210 180" fill="none" xmlns="http://www.w3.org/2000/svg">
<path d="M125.615 105.458H56.582V149.56H125.615V105.458Z" fill="#FAFAFA"/>
<path d="M108.952 137.363C104.178 135.49 98.659 140.669 93.968 138.558C91.2345 137.326 89.9891 134.139 88.6602 131.392C87.3313 128.644 85.0156 125.749 82.0514 126.053C79.0872 126.357 76.6482 129.946 73.7595 129.088C71.9412 128.542 71.0341 126.459 70.5765 124.57C70.1189 122.681 69.8046 120.579 68.416 119.232C67.0274 117.885 64.1388 118.254 63.9199 120.197V143.576H117.909C117.909 143.576 110.607 137.991 108.952 137.363Z" fill="url(#paint0_linear_4011_1700)"/>
<path d="M119.347 133.367C119.347 133.416 106.261 133.457 90.1229 133.457C73.9848 133.457 60.8984 133.416 60.8984 133.367C60.8984 133.318 73.9808 133.272 90.1229 133.272C106.265 133.272 119.347 133.314 119.347 133.367Z" fill="#E0E0E0"/>
<path d="M119.347 123.154C119.347 123.203 106.261 123.244 90.1229 123.244C73.9848 123.244 60.8984 123.203 60.8984 123.154C60.8984 123.104 73.9808 123.063 90.1229 123.063C106.265 123.063 119.347 123.104 119.347 123.154Z" fill="#E0E0E0"/>
<path d="M119.347 113.449C119.347 113.499 106.261 113.54 90.1229 113.54C73.9848 113.54 60.8984 113.499 60.8984 113.449C60.8984 113.4 73.9808 113.359 90.1229 113.359C106.265 113.359 119.347 113.4 119.347 113.449Z" fill="#E0E0E0"/>
<path d="M181.452 47.6508C181.452 47.6508 181.452 47.3427 181.452 46.7678C181.452 46.1929 181.452 45.3345 181.452 44.2257C181.452 41.9999 181.452 38.7432 181.42 34.5954C181.42 26.3038 181.388 14.4722 181.361 0.20123L181.48 0.320327L130.097 0.34086L130.237 0.20123C130.237 17.4496 130.237 33.7083 130.237 47.6508L130.113 47.5234L167.28 47.5892L177.76 47.622H180.545H181.261C181.42 47.622 181.508 47.622 181.508 47.622H181.273H180.569H177.819L167.363 47.6549L130.121 47.7165H130.002V47.5933C130.002 33.6303 130.002 17.4045 130.002 0.143736V0H130.141L181.524 0.0205335H181.639V0.197124C181.615 14.4845 181.591 26.3572 181.579 34.6652C181.579 38.8007 181.556 42.0574 181.548 44.2709C181.548 45.3715 181.548 46.2134 181.548 46.7883C181.548 47.3633 181.452 47.6508 181.452 47.6508Z" fill="#E0E0E0"/>
<path d="M210.001 175.766C210.001 176.118 187.062 176.419 158.771 176.419C130.48 176.419 107.531 176.118 107.531 175.766C107.531 175.415 130.465 175.114 158.771 175.114C187.077 175.114 210.001 175.415 210.001 175.766Z" fill="#263238"/>
<path d="M109.76 4.49268C109.76 4.49268 115.844 4.57892 113.242 17.0142C110.64 29.4495 110.974 31.7985 110.974 36.7267C110.938 38.335 111.341 39.9214 112.136 41.3048C112.932 42.6881 114.089 43.8127 115.474 44.55H107.222L101.154 15.5193V4.49268H109.76Z" fill="#E0E0E0"/>
<path d="M111.553 102.369H28.2402L28.9843 18.2421L107.455 14.0081L111.553 102.369Z" fill="#E0E0E0"/>
<path d="M108.691 100.197H25.3789L26.1229 16.0698L107.016 14.4395L108.691 100.197Z" fill="#EBEBEB"/>
<g filter="url(#filter0_d_4011_1700)">
<path d="M106.964 97.8517H23.8223V13.7247L107.015 13.5234L106.964 97.8517Z" fill="#EBEBEB"/>
</g>
<path d="M106.967 97.8517C106.967 97.0673 106.967 64.1064 106.927 13.5235L107.019 13.6179L23.9568 13.8315H23.8255L23.929 13.7247C23.929 44.5008 23.929 73.359 23.929 97.8517L23.8414 97.7613L106.999 97.8517L23.8414 97.9461H23.7539V97.8517C23.7539 73.359 23.7539 44.5008 23.7539 13.7247V13.6179H23.9847L107.05 13.4331H107.138V13.5235C107.023 64.1064 106.967 97.0673 106.967 97.8517Z" fill="#263238"/>
<path d="M107.017 13.2978C102.72 8.13557 107.705 4.31628 109.404 4.23414L30.2256 4.18897C29.253 4.18802 28.292 4.40666 27.4099 4.82957C26.5279 5.25248 25.7461 5.86941 25.1195 6.63711C24.4928 7.40482 24.0365 8.30471 23.7824 9.2737C23.5283 10.2427 23.4826 11.2573 23.6486 12.2464C23.728 12.6792 23.8357 13.1059 23.9709 13.5236" fill="#F5F5F5"/>
<path d="M109.114 44.5502H109.226H109.544H110.785L115.476 44.5214V44.6488C114.766 44.4214 114.113 44.0359 113.563 43.5194C112.956 42.9241 112.472 42.2091 112.138 41.4167C111.766 40.5535 111.479 39.6537 111.283 38.7309C111.175 38.2504 111.08 37.7617 110.992 37.2607C110.941 37.0069 110.903 36.7506 110.877 36.4927C110.842 36.2314 110.824 35.968 110.821 35.7042C110.794 34.6079 110.829 33.511 110.925 32.4188C111.004 31.3018 111.128 30.156 111.259 28.9856C111.529 26.6488 111.868 24.2135 112.269 21.7166C112.437 20.6529 112.643 19.5975 112.815 18.5667C112.986 17.5359 113.113 16.5133 113.24 15.4948C113.368 14.4764 113.471 13.4907 113.586 12.5174C113.638 12.0328 113.702 11.5524 113.714 11.0801C113.725 10.6119 113.699 10.1436 113.638 9.67967C113.523 8.77384 113.266 7.89324 112.878 7.07188C112.532 6.30209 112.005 5.6332 111.346 5.12527C110.713 4.67962 109.938 4.50176 109.182 4.62836C108.48 4.71817 107.815 5.00194 107.256 5.44971C106.762 5.8736 106.356 6.396 106.063 6.98564C105.796 7.51309 105.601 8.07537 105.482 8.65709C105.287 9.59566 105.398 10.5742 105.796 11.4415C106.039 11.993 106.332 12.5196 106.671 13.0144L106.942 13.3963C107.002 13.4825 107.029 13.5318 107.029 13.5318C107.029 13.5318 106.99 13.4949 106.922 13.4127L106.639 13.039C106.281 12.5528 105.974 12.0282 105.724 11.4743C105.304 10.5939 105.178 9.59456 105.366 8.63245C105.484 8.03847 105.679 7.46374 105.947 6.92403C106.248 6.31204 106.666 5.76983 107.177 5.33061C107.753 4.86331 108.44 4.56282 109.166 4.45998C109.963 4.32463 110.781 4.50981 111.45 4.97743C112.135 5.50187 112.682 6.1951 113.041 6.99385C113.433 7.82826 113.691 8.72287 113.805 9.64271C113.869 10.1175 113.897 10.5967 113.889 11.076C113.889 11.5647 113.813 12.0452 113.762 12.5339C113.658 13.5072 113.547 14.501 113.419 15.5154C113.292 16.5298 113.161 17.5688 112.998 18.5955C112.834 19.6221 112.62 20.6776 112.456 21.7453C112.059 24.2381 111.712 26.6735 111.438 29.002C111.307 30.1683 111.183 31.31 111.1 32.427C111.003 33.5054 110.964 34.5886 110.984 35.6714C110.987 35.9295 111.005 36.1873 111.036 36.4434C111.056 36.6981 111.108 36.9527 111.147 37.2032C111.235 37.7001 111.326 38.1888 111.434 38.6652C111.622 39.5775 111.899 40.4677 112.262 41.3223C112.585 42.0945 113.055 42.7925 113.642 43.3757C114.173 43.8828 114.806 44.2628 115.496 44.4886L115.894 44.62H115.496L110.805 44.5913H109.564H109.246L109.114 44.5502Z" fill="#263238"/>
<path d="M57.838 6.80503C57.8699 6.82967 57.6311 7.15411 57.3964 7.7537C57.2616 8.1023 57.1616 8.4642 57.098 8.83377C57.0275 9.28852 57.0062 9.74993 57.0343 10.2095C57.0726 10.6676 57.162 11.1197 57.3009 11.5566C57.4167 11.9143 57.5687 12.2584 57.7545 12.5832C58.0767 13.1336 58.3592 13.4046 58.3314 13.4498C58.3035 13.4949 58.2439 13.3923 58.1165 13.265C57.9328 13.0837 57.7699 12.8811 57.6311 12.6613C57.421 12.3376 57.25 11.9887 57.1218 11.6223C56.801 10.7198 56.728 9.74346 56.911 8.80092C56.9849 8.41836 57.1024 8.04617 57.2611 7.69209C57.3681 7.45252 57.5017 7.22652 57.659 7.01859C57.7584 6.87485 57.8261 6.79682 57.838 6.80503Z" fill="#263238"/>
<path d="M55.8615 3.89307C55.4694 4.29793 55.1175 4.74231 54.8111 5.21955C54.0821 6.38533 53.8131 7.79498 54.0595 9.15902C54.3059 10.5231 55.049 11.738 56.1361 12.5542C56.5869 12.8851 57.068 13.1699 57.5724 13.4043C57.4222 13.3818 57.2752 13.3404 57.1348 13.2811C56.7465 13.1308 56.3787 12.9292 56.0406 12.6815C55.4693 12.2785 54.9809 11.7629 54.6035 11.1643C54.226 10.5658 53.967 9.89607 53.8413 9.19377C53.7155 8.49148 53.7256 7.77045 53.8709 7.07218C54.0162 6.37391 54.2938 5.71219 54.6878 5.12509C54.9109 4.7688 55.1785 4.44433 55.4836 4.16001C55.597 4.05342 55.7242 3.96358 55.8615 3.89307Z" fill="#263238"/>
<path d="M100.607 69.5686H100.348H99.584L96.6436 69.5891L85.8213 69.6425L50.1671 69.6753H34.6895V69.5727C34.6895 59.0593 34.7173 50.0163 34.7292 43.5933C34.7292 40.39 34.7491 37.8438 34.7571 36.0861C34.7571 35.2196 34.7571 34.5461 34.7571 34.082C34.7571 33.8603 34.7571 33.6919 34.7571 33.5687C34.7571 33.4455 34.7571 33.3921 34.7571 33.3921C34.7571 33.3921 34.7571 33.4496 34.7571 33.5687C34.7571 33.6878 34.7571 33.8603 34.7571 34.082C34.7571 34.5461 34.7571 35.2196 34.7571 36.0861C34.7571 37.8438 34.7571 40.39 34.785 43.5933C34.785 50.0163 34.8088 59.0593 34.8247 69.5727L34.7253 69.47H50.1034L85.7576 69.5028L96.5641 69.5357L99.5044 69.5562H100.268L100.607 69.5686Z" fill="#263238"/>
<path d="M46.8009 60.6282H40.1523V67.4906H46.8009V60.6282Z" fill="#9EDDF3"/>
<path d="M56.5451 55.7249H49.8965V67.4907H56.5451V55.7249Z" fill="#9EDDF3"/>
<path d="M66.3303 50.1519H59.6816V67.4906H66.3303V50.1519Z" fill="#9EDDF3"/>
<path d="M75.8166 43.9504H69.168V67.4904H75.8166V43.9504Z" fill="#9EDDF3"/>
<path d="M85.5177 36.012H78.8691V67.4903H85.5177V36.012Z" fill="#9EDDF3"/>
<path d="M95.1525 29.9543H88.5039V67.1657H95.1525V29.9543Z" fill="#9EDDF3"/>
<path d="M40.1523 53.5849C40.1772 53.558 40.2053 53.5345 40.2359 53.515L40.4945 53.3302L41.5091 52.6321L45.3169 50.0407L58.5066 41.1414L58.6618 41.0387V41.2276C58.6618 42.2009 58.6618 43.2399 58.6618 44.2995L58.5027 44.2132L63.699 40.6157L82.0413 27.9669L87.6117 24.1517L89.1316 23.125L89.5295 22.8622L89.6687 22.78C89.6293 22.8168 89.5867 22.8498 89.5414 22.8786L89.1435 23.162L87.6435 24.2215L82.1289 28.1229L63.8263 40.8251L58.626 44.4186L58.4668 44.5294V41.244L58.622 41.3303L45.3885 50.1639L41.5489 52.706L40.5184 53.3754L40.2518 53.5479L40.1523 53.5849Z" fill="#263238"/>
<path d="M89.6781 25.6958C89.6212 25.4179 89.5972 25.1338 89.6065 24.8499C89.6065 24.3242 89.5786 23.5932 89.5746 22.7965L89.6781 22.9033H89.4234C88.572 22.9033 87.8001 22.9032 87.243 22.8704C86.9403 22.8797 86.6374 22.8549 86.3398 22.7965C86.637 22.735 86.9401 22.7089 87.243 22.7184C87.8001 22.7184 88.572 22.6897 89.4234 22.6897H89.7815V22.7842C89.7815 23.6055 89.7815 24.3324 89.7497 24.8375C89.76 25.1256 89.7359 25.4138 89.6781 25.6958Z" fill="#263238"/>
<path d="M54.5502 75.1002C54.5502 75.1618 52.4971 75.207 49.9626 75.207C47.4281 75.207 45.375 75.1618 45.375 75.1002C45.375 75.0386 47.4281 74.9934 49.9626 74.9934C52.4971 74.9934 54.5502 75.0427 54.5502 75.1002Z" fill="#263238"/>
<path d="M49.8417 78.3446C49.7038 77.6122 49.7038 76.8593 49.8417 76.127C49.9796 76.8593 49.9796 77.6122 49.8417 78.3446Z" fill="#263238"/>
<path d="M61.0847 79.4576C61.0847 79.5151 55.5661 79.5644 48.7504 79.5644C41.9346 79.5644 36.416 79.5151 36.416 79.4576C36.416 79.4001 41.9307 79.3508 48.7504 79.3508C55.57 79.3508 61.0847 79.396 61.0847 79.4576Z" fill="#263238"/>
<path d="M36.6114 82.6114C36.4733 81.5924 36.4733 80.5585 36.6114 79.5396C36.7495 80.5585 36.7495 81.5924 36.6114 82.6114Z" fill="#263238"/>
<path d="M45.3769 82.2707C45.239 81.3949 45.239 80.5018 45.3769 79.626C45.5148 80.5018 45.5148 81.3949 45.3769 82.2707Z" fill="#263238"/>
<path d="M54.3886 82.4389C54.2507 81.4777 54.2507 80.5008 54.3886 79.5396C54.5266 80.5008 54.5266 81.4777 54.3886 82.4389Z" fill="#263238"/>
<path d="M61.248 82.439C61.11 81.4489 61.11 80.4435 61.248 79.4534C61.3859 80.4435 61.3859 81.4489 61.248 82.439Z" fill="#263238"/>
<path d="M39.6672 83.4657C38.6786 83.5713 37.6842 83.607 36.691 83.5724C35.6977 83.607 34.7034 83.5713 33.7148 83.4657C34.7032 83.3575 35.6977 83.3218 36.691 83.3589C37.6842 83.3218 38.6788 83.3575 39.6672 83.4657Z" fill="#263238"/>
<path d="M47.2763 83.4657C45.7635 83.608 44.2413 83.608 42.7285 83.4657C44.2413 83.3233 45.7635 83.3233 47.2763 83.4657Z" fill="#263238"/>
<path d="M56.9523 83.7203C55.3292 83.8627 53.6973 83.8627 52.0742 83.7203C53.6973 83.5779 55.3292 83.5779 56.9523 83.7203Z" fill="#263238"/>
<path d="M64.8059 83.2935C63.0726 83.4359 61.331 83.4359 59.5977 83.2935C61.331 83.1512 63.0726 83.1512 64.8059 83.2935Z" fill="#263238"/>
<path d="M36.6952 86.4392C36.5573 85.8509 36.5573 85.237 36.6952 84.6487C36.8332 85.237 36.8332 85.8509 36.6952 86.4392Z" fill="#263238"/>
<path d="M42.3523 86.4391C42.3523 86.4965 39.9451 86.5458 36.9809 86.5458C34.0166 86.5458 31.6055 86.4965 31.6055 86.4391C31.6055 86.3816 34.0127 86.3323 36.9809 86.3323C39.9491 86.3323 42.3523 86.3898 42.3523 86.4391Z" fill="#263238"/>
<path d="M42.3534 89.0099C42.2155 88.163 42.2155 87.2983 42.3534 86.4514C42.4914 87.2983 42.4914 88.163 42.3534 89.0099Z" fill="#263238"/>
<path d="M31.6054 89.1824C31.4675 88.2776 31.4675 87.3562 31.6054 86.4514C31.7433 87.3562 31.7433 88.2776 31.6054 89.1824Z" fill="#263238"/>
<path d="M54.6093 86.4392C54.4714 85.8509 54.4714 85.237 54.6093 84.6487C54.7472 85.237 54.7472 85.8509 54.6093 86.4392Z" fill="#263238"/>
<path d="M67.6749 86.4391C67.6749 86.4965 63.6085 86.5458 58.5952 86.5458C53.5819 86.5458 49.5195 86.4965 49.5195 86.4391C49.5195 86.3816 53.5819 86.3323 58.5952 86.3323C63.6085 86.3323 67.6749 86.3898 67.6749 86.4391Z" fill="#263238"/>
<path d="M60.2636 89.0099C60.1257 88.163 60.1257 87.2983 60.2636 86.4514C60.4015 87.2983 60.4015 88.163 60.2636 89.0099Z" fill="#263238"/>
<path d="M68.0449 89.0099C67.9069 88.163 67.9069 87.2983 68.0449 86.4514C68.1828 87.2983 68.1828 88.163 68.0449 89.0099Z" fill="#263238"/>
<path d="M49.5195 89.1824C49.3815 88.2776 49.3815 87.3562 49.5195 86.4514C49.6574 87.3562 49.6574 88.2776 49.5195 89.1824Z" fill="#263238"/>
<path d="M33.7217 90.7552C32.314 90.8976 30.8961 90.8976 29.4883 90.7552C30.8961 90.6128 32.314 90.6128 33.7217 90.7552Z" fill="#263238"/>
<path d="M44.2495 90.4432C42.7261 90.5856 41.1933 90.5856 39.6699 90.4432C41.1933 90.3008 42.7261 90.3008 44.2495 90.4432Z" fill="#263238"/>
<path d="M51.8548 90.4432C50.5148 90.5855 49.1642 90.5855 47.8242 90.4432C49.1642 90.3008 50.5148 90.3008 51.8548 90.4432Z" fill="#263238"/>
<path d="M62.1072 90.4431C60.6515 90.5858 59.1861 90.5858 57.7305 90.4431C59.1861 90.3005 60.6515 90.3005 62.1072 90.4431Z" fill="#263238"/>
<path d="M70.3036 90.16C68.8267 90.3024 67.3402 90.3024 65.8633 90.16C67.3402 90.0176 68.8267 90.0176 70.3036 90.16Z" fill="#263238"/>
<path d="M100.543 91.8229H72.4805V73.8845H100.543V91.8229ZM72.4964 91.8023H100.543V73.9051H72.5004L72.4964 91.8023Z" fill="#263238"/>
<path d="M93.7791 86.8498C91.8334 86.09 89.5973 88.1927 87.6875 87.3344C86.5814 86.8375 86.0761 85.5397 85.531 84.4268C84.9859 83.3139 84.0508 82.1311 82.8492 82.2625C81.6476 82.394 80.6529 83.8436 79.4792 83.4946C78.7391 83.2728 78.3731 82.4268 78.1861 81.6547C77.9991 80.8827 77.8717 80.0326 77.3067 79.4905C76.7418 78.9484 75.572 79.0798 75.4805 79.9012V89.4001H97.4157C97.4157 89.4001 94.4395 87.1126 93.7791 86.8498Z" fill="#C3E4EF"/>
<path d="M97.9897 89.3834C97.9897 89.4039 92.674 89.4204 86.1169 89.4204C79.5598 89.4204 74.2441 89.4204 74.2441 89.3834C74.2441 89.3464 79.5598 89.3464 86.1169 89.3464C92.674 89.3464 97.9897 89.3629 97.9897 89.3834Z" fill="#E0E0E0"/>
<path d="M97.9897 85.2359C97.9897 85.2565 92.674 85.2729 86.1169 85.2729C79.5598 85.2729 74.2441 85.2729 74.2441 85.2359C74.2441 85.199 79.5598 85.199 86.1169 85.199C92.674 85.199 97.9897 85.2072 97.9897 85.2359Z" fill="#263238"/>
<path d="M97.9897 81.1002C97.9897 81.1002 92.674 81.133 86.1169 81.133C79.5598 81.133 74.2441 81.133 74.2441 81.1002C74.2441 81.0673 79.5598 81.0632 86.1169 81.0632C92.674 81.0632 97.9897 81.0673 97.9897 81.1002Z" fill="#263238"/>
<path d="M97.9897 77.1412C97.9897 77.1412 92.674 77.1782 86.1169 77.1782C79.5598 77.1782 74.2441 77.1782 74.2441 77.1412C74.2441 77.1042 79.5598 77.1042 86.1169 77.1042C92.674 77.1042 97.9897 77.1207 97.9897 77.1412Z" fill="#263238"/>
<path d="M34.8106 19.6179C34.8106 19.6179 34.8106 19.6179 34.8504 19.6179H34.9618C35.1086 19.6171 35.2552 19.6308 35.3995 19.6589C35.6301 19.701 35.8529 19.78 36.06 19.893C36.3361 20.0454 36.5765 20.2585 36.7642 20.5173C36.9966 20.8316 37.1559 21.197 37.2297 21.585C37.2923 22.037 37.2359 22.498 37.0666 22.9197C36.9792 23.1486 36.8713 23.3686 36.7443 23.5768C36.6119 23.7915 36.491 24.0136 36.3822 24.2421C36.1508 24.7234 35.9873 25.2365 35.8968 25.7657V25.8027H35.861L34.8225 25.778L33.7323 25.7493H33.7005V25.7082C33.6735 25.1765 33.519 24.66 33.2509 24.2051C33.1355 23.9752 33.0042 23.7616 32.8809 23.5439C32.7553 23.3386 32.641 23.1261 32.5387 22.9074C32.3603 22.4888 32.3197 22.0214 32.4233 21.5768C32.4994 21.1937 32.6526 20.8313 32.8729 20.5132C33.0568 20.2591 33.2951 20.0525 33.5692 19.9095C33.7764 19.8012 33.9975 19.7238 34.2257 19.6795C34.3684 19.6476 34.5135 19.6283 34.6594 19.622H34.7708C34.7987 19.622 34.8106 19.622 34.8106 19.622H34.7708H34.6594C34.5159 19.6336 34.3736 19.6569 34.2337 19.6918C34.0096 19.7415 33.7928 19.8216 33.5891 19.93C33.3185 20.0751 33.0832 20.2814 32.9008 20.5337C32.69 20.8485 32.545 21.2051 32.475 21.5809C32.3754 22.0108 32.4159 22.4626 32.5904 22.8663C32.6931 23.0821 32.8074 23.2919 32.9326 23.4947C33.056 23.7082 33.1873 23.9259 33.3066 24.1558C33.5826 24.6226 33.74 25.1537 33.7642 25.7L33.7284 25.6548L34.8186 25.6836L35.857 25.7123L35.8173 25.7452C35.911 25.2092 36.0771 24.6894 36.3106 24.201C36.4219 23.971 36.5454 23.7475 36.6806 23.5316C36.8063 23.3276 36.9129 23.1117 36.999 22.8869C37.1693 22.4769 37.2271 22.0266 37.1661 21.585C37.0962 21.2076 36.9453 20.8512 36.7244 20.5419C36.5418 20.2839 36.3086 20.0684 36.0401 19.9095C35.8379 19.7964 35.6207 19.7147 35.3955 19.6672C35.2524 19.6382 35.1075 19.6204 34.9618 19.6138H34.8464L34.8106 19.6179Z" fill="#263238"/>
<path d="M35.1128 25.6593C35.1137 25.647 35.1137 25.6346 35.1128 25.6223V25.5237C35.1128 25.4334 35.089 25.302 35.0691 25.1131C35.0373 24.7722 34.9855 24.2917 34.9617 23.6716C34.9617 23.5197 34.9617 23.3595 34.9617 23.1952C34.9617 23.0309 34.9617 22.8544 34.9617 22.6737C34.9737 22.4867 35.021 22.3039 35.1009 22.1357C35.1876 21.9513 35.336 21.8054 35.5187 21.725C35.6165 21.689 35.7222 21.6831 35.8232 21.7079C35.9242 21.7327 36.016 21.7871 36.0877 21.8646C36.1248 21.9043 36.1538 21.9513 36.1729 22.0028C36.1921 22.0543 36.201 22.1093 36.1991 22.1644C36.1917 22.2775 36.1499 22.3853 36.0797 22.4724C36.0074 22.5585 35.9178 22.6272 35.8171 22.6737C35.7162 22.7175 35.6107 22.7492 35.5028 22.7681C35.06 22.842 34.6086 22.842 34.1659 22.7681C34.0577 22.7493 33.953 22.7133 33.8555 22.6613C33.7565 22.6121 33.6685 22.5421 33.5969 22.456C33.5246 22.3723 33.4752 22.2702 33.4537 22.1603C33.4363 22.0506 33.4545 21.938 33.5054 21.84C33.5542 21.7419 33.6364 21.6658 33.7362 21.6264C33.7851 21.6097 33.8369 21.6037 33.8883 21.6086C33.9396 21.6136 33.9895 21.6294 34.0346 21.6552C34.123 21.7021 34.1973 21.7731 34.2494 21.8605C34.2994 21.9448 34.3331 22.0382 34.3489 22.1357C34.375 22.3192 34.3857 22.5047 34.3807 22.6901C34.3807 23.0474 34.3807 23.3841 34.3807 23.688C34.3807 24.2958 34.3807 24.7886 34.3807 25.1295V25.6593C34.3817 25.6483 34.3817 25.6373 34.3807 25.6264V25.5237C34.3807 25.4334 34.3807 25.2965 34.3807 25.1131C34.3807 24.7722 34.3807 24.2917 34.3569 23.6716C34.3569 23.3677 34.3569 23.0351 34.3569 22.6737C34.3619 22.4896 34.3513 22.3055 34.325 22.1233C34.3094 22.0304 34.277 21.9412 34.2295 21.8605C34.1788 21.778 34.1073 21.7112 34.0227 21.6675C33.9813 21.6432 33.9354 21.6285 33.888 21.6242C33.8406 21.62 33.7929 21.6263 33.7481 21.6429C33.6567 21.6795 33.5816 21.7497 33.5372 21.84C33.4895 21.9302 33.4727 22.0344 33.4895 22.1357C33.5106 22.2404 33.5572 22.3379 33.6248 22.419C33.7712 22.5804 33.966 22.686 34.1778 22.7188C34.3957 22.7601 34.6168 22.7807 34.8383 22.7804C35.0596 22.7854 35.2809 22.7676 35.4988 22.727C35.6058 22.712 35.7103 22.6816 35.8091 22.6367C35.9051 22.5934 35.9906 22.5289 36.0598 22.4478C36.1252 22.3664 36.1641 22.2658 36.1712 22.1603C36.1738 22.1089 36.1659 22.0575 36.1481 22.0094C36.1303 21.9613 36.1029 21.9176 36.0678 21.8811C36.0006 21.8085 35.9145 21.7575 35.8199 21.7342C35.7254 21.7109 35.6263 21.7163 35.5346 21.7496C35.3608 21.824 35.2193 21.9613 35.1367 22.1357C35.056 22.2992 35.0086 22.4781 34.9975 22.6613C34.9975 22.8379 34.9975 23.0104 34.9776 23.1788C34.9577 23.3472 34.9776 23.5032 34.9776 23.6552C34.9975 24.263 35.0452 24.7558 35.0731 25.0925C35.0731 25.2609 35.1009 25.3923 35.1128 25.5032V25.6018V25.6593Z" fill="#263238"/>
<path d="M33.7271 25.6589C33.7271 25.6589 33.7271 25.7945 33.7271 26.0203C33.7271 26.2462 33.7271 26.5953 33.7271 26.9608L34.4035 27.8314H34.3677H35.1873H35.1555L35.5812 27.3345L35.7961 27.0881V27.1209C35.7961 26.624 35.7961 26.1559 35.8199 25.7287L35.8637 25.7739L34.3318 25.7246H33.8902H33.7271C33.7746 25.718 33.8228 25.718 33.8703 25.7246H34.304H35.8955V25.7698C35.8955 26.1805 35.8955 26.6651 35.8955 27.162L35.6807 27.4125L35.2549 27.9053H35.235H34.4114L33.6992 26.9977C33.6992 26.624 33.7191 26.3037 33.7271 26.0327C33.7169 25.9083 33.7169 25.7833 33.7271 25.6589Z" fill="#263238"/>
<path d="M35.7913 26.9813L35.7117 26.9443C35.645 26.9078 35.5759 26.8762 35.5048 26.8498C35.2705 26.7538 35.0209 26.7037 34.7687 26.702C34.5177 26.6991 34.2682 26.7436 34.0326 26.8334C33.9606 26.8589 33.8901 26.8891 33.8218 26.9238L33.7422 26.9607C33.7636 26.9408 33.7877 26.9242 33.8138 26.9114L34.0247 26.8088C34.262 26.714 34.5143 26.6652 34.7687 26.665C35.0243 26.6693 35.2768 26.7236 35.5128 26.8252C35.5837 26.8566 35.6528 26.8922 35.7197 26.932C35.7457 26.9447 35.7699 26.9613 35.7913 26.9813Z" fill="#263238"/>
<path d="M35.8029 26.6447L35.7273 26.6036L35.5165 26.5091C35.281 26.417 35.0321 26.367 34.7804 26.3613C34.5292 26.3615 34.28 26.4074 34.0443 26.4968C33.9722 26.5223 33.9018 26.5525 33.8334 26.5872L33.7578 26.62L33.8294 26.5748C33.8953 26.5343 33.9645 26.4999 34.0363 26.4722C34.2744 26.375 34.5284 26.3262 34.7844 26.3284C35.0386 26.3331 35.2897 26.3875 35.5244 26.4886C35.5961 26.5183 35.6653 26.554 35.7313 26.5954C35.7574 26.6081 35.7815 26.6247 35.8029 26.6447Z" fill="#263238"/>
<path d="M35.7951 26.3203C35.7686 26.3109 35.7433 26.2985 35.7195 26.2833C35.6514 26.247 35.5809 26.2154 35.5086 26.1889C35.0345 26.0026 34.5106 26.0026 34.0365 26.1889C33.9489 26.2217 33.8773 26.2546 33.8256 26.2792L33.75 26.3162L33.8216 26.2669C33.8694 26.2422 33.941 26.2053 34.0285 26.1683C34.2662 26.07 34.5204 26.0211 34.7765 26.0246C35.032 26.0261 35.2848 26.0791 35.5206 26.1806C35.6081 26.2217 35.6797 26.2587 35.7275 26.2874L35.7951 26.3203Z" fill="#263238"/>
<path d="M43.3946 35.1619C43.3946 35.1619 42.5988 42.7388 43.6214 46.8867L53.4292 46.4431C53.4292 46.4431 51.3283 38.9729 52.6334 35.6629L43.3946 35.1619Z" fill="#EBEBEB"/>
<path d="M43.4355 34.9199C43.4355 34.9199 43.5032 43.1006 43.905 45.5975L53.8521 45.1129C53.8521 45.1129 52.9767 37.0719 53.3149 34.924L43.4355 34.9199Z" fill="#C3E4EF"/>
<path d="M51.8072 38.357C51.8072 38.3939 50.3191 38.5171 48.4769 38.6321C46.6347 38.7471 45.1427 38.8087 45.1387 38.7677C45.1347 38.7266 46.6268 38.6075 48.4689 38.4925C50.3111 38.3775 51.8072 38.3159 51.8072 38.357Z" fill="white"/>
<path d="M51.8111 40.086C51.8111 40.1271 50.323 40.2503 48.4808 40.3612C46.6386 40.472 45.1426 40.5377 45.1426 40.5008C45.1426 40.4638 46.6307 40.3406 48.4728 40.2256C50.315 40.1106 51.8071 40.0326 51.8111 40.086Z" fill="white"/>
<path d="M50.1201 41.79C49.9394 41.8391 49.7538 41.8667 49.567 41.8722C49.2249 41.905 48.7514 41.942 48.2262 41.9748C47.701 42.0077 47.2235 42.0282 46.8813 42.0365C46.6951 42.0619 46.5065 42.0619 46.3203 42.0365C46.5006 41.9854 46.6864 41.9578 46.8734 41.9543C47.2195 41.9215 47.693 41.8845 48.2182 41.8516C48.7434 41.8188 49.2169 41.7942 49.563 41.7859C49.7481 41.7628 49.9353 41.7641 50.1201 41.79Z" fill="white"/>
<path d="M66.0966 21.6385C66.0966 21.7001 60.2836 21.7453 53.1137 21.7453C45.9439 21.7453 40.1309 21.7001 40.1309 21.6385C40.1309 21.5769 45.9439 21.5317 53.1137 21.5317C60.2836 21.5317 66.0966 21.581 66.0966 21.6385Z" fill="#263238"/>
<path d="M49.6659 24.0819C49.6659 24.1435 47.4855 24.1886 44.7959 24.1886C42.1062 24.1886 39.9258 24.1435 39.9258 24.0819C39.9258 24.0203 42.1062 23.9751 44.7959 23.9751C47.4855 23.9751 49.6659 24.0162 49.6659 24.0819Z" fill="#263238"/>
<path d="M54.84 24.0821C53.5918 24.2243 52.3322 24.2243 51.084 24.0821C52.3322 23.9398 53.5918 23.9398 54.84 24.0821Z" fill="#263238"/>
<path d="M109.113 49.8477C109.109 49.8164 109.109 49.7846 109.113 49.7533C109.113 49.6794 109.113 49.589 109.089 49.4781C109.069 49.2194 109.041 48.8662 109.005 48.4227C108.946 47.4823 108.858 46.1599 108.751 44.5336C108.552 41.2277 108.277 36.6979 107.975 31.6918C107.672 26.6856 107.45 22.1517 107.263 18.8458C107.183 17.2031 107.119 15.893 107.072 14.9526C107.072 14.5091 107.04 14.1559 107.032 13.893C107.032 13.7822 107.032 13.6918 107.032 13.6179C107.026 13.5867 107.026 13.5546 107.032 13.5234C107.033 13.5549 107.033 13.5864 107.032 13.6179L107.056 13.893C107.076 14.1518 107.103 14.505 107.135 14.9485C107.199 15.8889 107.286 17.2113 107.394 18.8376C107.593 22.123 107.867 26.6733 108.166 31.6794C108.464 36.6856 108.695 41.2194 108.878 44.5213C108.962 46.164 109.025 47.4781 109.073 48.4186C109.073 48.8621 109.105 49.2153 109.113 49.4781C109.113 49.589 109.113 49.6794 109.113 49.7533C109.119 49.7845 109.119 49.8166 109.113 49.8477Z" fill="#263238"/>
<path d="M107.017 4.23389H106.786H106.11H103.504H93.9345L62.3466 4.23799L29.6606 4.13122C28.0359 4.54395 26.5808 5.48043 25.5067 6.80472C24.7035 7.79814 24.1488 8.97987 23.8913 10.2462C23.726 11.0404 23.6737 11.8553 23.7362 12.6651C23.76 12.9402 23.7839 13.1497 23.8078 13.2893C23.8207 13.3599 23.83 13.4312 23.8356 13.5028C23.7688 13.2332 23.7222 12.9586 23.6964 12.6815C23.6161 11.8668 23.6564 11.0443 23.8157 10.2421C24.0595 8.95967 24.6061 7.7592 25.4073 6.74722C26.4901 5.39161 27.9655 4.4301 29.6169 4.00391L62.3068 4.04497L93.8788 4.14764L103.452 4.20514L106.054 4.22978H106.73L107.017 4.23389Z" fill="#263238"/>
<path d="M170.913 133.014C173.585 130.258 176.906 128.266 180.549 127.234C184.193 126.202 188.033 126.166 191.694 127.129C185.491 131.49 178.172 133.85 170.666 133.909" fill="#C3E4EF"/>
<path d="M177.963 107.252C177.096 100.932 179.475 93.8228 184.059 89.2273C184.21 95.4901 181.672 102.541 177.963 107.252Z" fill="#C3E4EF"/>
<path d="M174.296 119.194C177.608 112.703 182.879 107.502 189.312 104.381C188.307 108.02 186.381 111.316 183.732 113.931C181.083 116.546 177.807 118.386 174.24 119.26" fill="#C3E4EF"/>
<path d="M173.535 121.494C177.235 121.605 180.98 121.469 184.556 120.492C188.133 119.514 191.559 117.638 193.939 114.714C186.693 114.738 179.615 116.968 173.591 121.124" fill="#C3E4EF"/>
<path d="M175.414 113.909C173.536 106.644 170.44 101.622 164.909 97.5518C164.485 101.123 165.311 104.733 167.236 107.732C169.162 110.73 172.062 112.921 175.414 113.909Z" fill="#C3E4EF"/>
<path d="M161.451 126.434C161.439 124.315 162.033 122.24 163.159 120.468C164.285 118.696 165.893 117.307 167.782 116.476C167.471 120.225 164.599 124.566 161.451 126.434Z" fill="#C3E4EF"/>
<path d="M159.685 120.312C159.429 117.27 158.336 114.368 156.535 111.947C154.734 109.525 152.3 107.686 149.52 106.644C150.797 112.714 154.195 117.765 159.685 120.312Z" fill="#C3E4EF"/>
<path d="M162.347 131.178C161.046 129.252 158.917 128.053 156.713 127.457C154.509 126.862 152.209 126.812 149.949 126.763C151.499 128.498 153.395 129.866 155.505 130.774C157.615 131.682 159.891 132.109 162.176 132.024" fill="#C3E4EF"/>
<path d="M164.996 146.656C160.845 145.334 156.365 145.665 152.439 147.585C148.513 149.505 145.427 152.873 143.789 157.026C151.492 155.515 159.096 151.983 164.996 146.656Z" fill="#C3E4EF"/>
<path d="M173.447 141.276C172.166 145.182 172.413 149.901 175.258 153.264C175.824 151.251 175.956 149.134 175.643 147.063C175.33 144.991 174.581 143.016 173.447 141.276Z" fill="#C3E4EF"/>
<path d="M178.445 139.108C178.654 141.623 179.486 144.04 180.862 146.126C182.239 148.212 184.113 149.897 186.303 151.018C186.406 151.085 186.52 151.131 186.64 151.151C186.759 151.172 186.882 151.167 187 151.137C187.346 150.989 187.398 150.5 187.334 150.118C186.777 145.116 183.188 140.262 178.445 139.1" fill="#C3E4EF"/>
<path d="M181.709 138.595C182.795 139.806 184.11 140.774 185.573 141.438C187.036 142.103 188.616 142.451 190.215 142.459C191.813 142.468 193.396 142.137 194.866 141.488C196.336 140.838 197.661 139.885 198.758 138.685C193.339 138.073 187.084 137.667 181.709 138.595Z" fill="#C3E4EF"/>
<path d="M182.502 93.8843C182.489 93.9404 182.472 93.9954 182.45 94.0485L182.287 94.5249C182.132 94.9356 181.913 95.5557 181.634 96.336C181.356 97.1163 181.006 98.0855 180.616 99.2107C180.417 99.7693 180.218 100.369 179.987 101.005C179.756 101.642 179.549 102.32 179.311 103.03C178.352 105.86 177.285 109.26 176.128 113.046C174.97 116.833 173.812 121.022 172.646 125.441C171.48 129.86 170.474 134.094 169.602 137.962C168.731 141.831 168.011 145.326 167.506 148.274C167.374 149.013 167.243 149.716 167.108 150.377C166.972 151.038 166.893 151.675 166.797 152.262C166.602 153.436 166.431 154.447 166.32 155.276C166.208 156.106 166.101 156.738 166.037 157.186C166.002 157.399 165.978 157.564 165.958 157.683C165.951 157.74 165.939 157.796 165.922 157.851C165.917 157.795 165.917 157.739 165.922 157.683L165.982 157.182C166.041 156.734 166.121 156.089 166.228 155.264C166.336 154.438 166.487 153.42 166.67 152.241C166.761 151.65 166.861 151.009 166.964 150.356C167.068 149.703 167.207 148.985 167.334 148.25C167.844 145.293 168.556 141.794 169.387 137.917C170.219 134.04 171.265 129.81 172.415 125.383C173.565 120.956 174.779 116.779 175.921 112.989C177.063 109.198 178.161 105.806 179.14 102.981L179.832 100.96L180.512 99.1697C180.91 98.0485 181.26 97.0875 181.567 96.2949C181.873 95.5023 182.092 94.9192 182.255 94.5003C182.335 94.3032 182.394 94.1471 182.438 94.0321C182.456 93.9813 182.477 93.9319 182.502 93.8843Z" fill="#263238"/>
<path d="M152.754 109.885C152.788 109.911 152.819 109.941 152.846 109.975L153.108 110.258C153.331 110.505 153.661 110.878 154.071 111.371C155.228 112.758 156.292 114.224 157.254 115.761C158.69 118.046 159.812 120.526 160.589 123.129C161.484 126.061 162.037 129.396 162.578 132.878C163.68 139.86 165.033 146.098 166.012 150.615C166.505 152.866 166.903 154.689 167.185 155.954C167.317 156.574 167.42 157.063 167.496 157.408L167.571 157.79C167.583 157.833 167.589 157.877 167.591 157.921C167.575 157.88 167.561 157.837 167.552 157.794L167.456 157.42C167.372 157.075 167.253 156.599 167.106 155.971C166.811 154.698 166.39 152.878 165.868 150.632C164.854 146.114 163.481 139.872 162.375 132.891C161.822 129.408 161.273 126.086 160.386 123.166C159.621 120.576 158.518 118.105 157.107 115.823C156.16 114.281 155.115 112.804 153.98 111.404C153.582 110.903 153.264 110.525 153.049 110.266L152.802 109.971C152.778 109.926 152.75 109.889 152.754 109.885Z" fill="#263238"/>
<path d="M183.326 138.361C183.263 138.383 183.198 138.395 183.131 138.398L182.57 138.463L182.172 138.504L181.707 138.595C181.361 138.648 180.967 138.701 180.541 138.796L179.869 138.936L179.148 139.124C178.647 139.239 178.13 139.432 177.577 139.605C176.393 140.027 175.244 140.549 174.143 141.166C173.051 141.796 172.021 142.534 171.067 143.371C170.65 143.737 170.251 144.127 169.874 144.537C169.541 144.889 169.229 145.26 168.939 145.65C168.691 145.965 168.46 146.294 168.246 146.636C168.072 146.883 167.913 147.142 167.773 147.412L167.486 147.913C167.419 148.028 167.379 148.085 167.371 148.081C167.389 148.016 167.415 147.952 167.447 147.892C167.518 147.753 167.602 147.58 167.701 147.371C167.834 147.094 167.984 146.826 168.151 146.57C168.355 146.219 168.579 145.882 168.823 145.56C169.107 145.16 169.416 144.778 169.746 144.418C170.122 143.996 170.521 143.595 170.94 143.219C171.897 142.365 172.935 141.613 174.04 140.977C175.152 140.354 176.314 139.832 177.513 139.416C178.07 139.248 178.595 139.063 179.105 138.952L179.837 138.775L180.513 138.648C180.947 138.562 181.345 138.517 181.707 138.476L182.188 138.418H182.586L183.151 138.393C183.208 138.377 183.267 138.366 183.326 138.361Z" fill="#263238"/>
<path d="M184.889 110.02C184.769 110.162 184.635 110.291 184.491 110.406L183.373 111.408C182.426 112.229 181.109 113.388 179.645 114.64C178.181 115.893 176.86 117.018 175.873 117.823L174.715 118.772C174.579 118.895 174.431 119.004 174.273 119.096C174.392 118.952 174.526 118.821 174.671 118.706L175.785 117.708C176.732 116.887 178.053 115.728 179.518 114.476C180.982 113.223 182.303 112.098 183.281 111.289L184.439 110.344C184.577 110.219 184.728 110.11 184.889 110.02Z" fill="#263238"/>
<path d="M186.204 117.416C186.204 117.474 183.375 118.393 179.838 119.469C176.301 120.545 173.44 121.367 173.424 121.313C173.408 121.26 176.249 120.336 179.79 119.26C183.331 118.184 186.188 117.363 186.204 117.416Z" fill="#263238"/>
<path d="M175.696 114.472C175.584 114.345 175.486 114.208 175.401 114.061L174.653 112.878C174.016 111.884 173.113 110.529 172.043 109.088C170.973 107.646 169.946 106.39 169.186 105.49L168.287 104.431C168.167 104.307 168.062 104.169 167.973 104.02C168.108 104.124 168.233 104.241 168.347 104.369C168.577 104.603 168.904 104.948 169.298 105.388C170.093 106.258 171.136 107.507 172.21 108.952C173.284 110.398 174.168 111.778 174.776 112.792C175.079 113.301 175.318 113.72 175.473 114.024C175.562 114.165 175.637 114.315 175.696 114.472Z" fill="#263238"/>
<path d="M165.815 118.579C165.618 118.972 165.395 119.351 165.147 119.712C164.721 120.402 164.144 121.355 163.555 122.443C162.966 123.531 162.453 124.529 162.095 125.26C161.921 125.664 161.72 126.055 161.494 126.431C161.614 126.006 161.771 125.594 161.964 125.199C162.29 124.451 162.759 123.433 163.376 122.324C163.993 121.215 164.57 120.271 165.031 119.618C165.259 119.245 165.521 118.897 165.815 118.579Z" fill="#263238"/>
<path d="M162.433 131.379C162.433 131.408 161.876 131.133 160.985 130.722C160.094 130.312 158.856 129.77 157.456 129.26C156.055 128.751 154.758 128.377 153.815 128.131C152.872 127.885 152.279 127.745 152.287 127.72C152.429 127.719 152.57 127.735 152.709 127.765C152.98 127.806 153.369 127.885 153.847 127.991C155.093 128.271 156.32 128.631 157.523 129.067C158.727 129.501 159.904 130.01 161.049 130.591C161.486 130.817 161.844 131.002 162.075 131.149C162.203 131.21 162.324 131.288 162.433 131.379Z" fill="#263238"/>
<path d="M165.095 146.681C165.04 146.708 164.981 146.729 164.92 146.743L164.407 146.874L162.513 147.326C160.427 147.778 158.365 148.34 156.334 149.009C154.314 149.707 152.379 150.646 150.569 151.806C149.876 152.258 149.339 152.66 148.977 152.948C148.798 153.107 148.606 153.252 148.404 153.379C148.442 153.329 148.484 153.284 148.532 153.244C148.623 153.157 148.75 153.03 148.93 152.878C149.425 152.446 149.945 152.045 150.485 151.675C152.286 150.466 154.229 149.5 156.266 148.8C158.304 148.119 160.381 147.571 162.485 147.157L164.391 146.775C164.623 146.722 164.858 146.691 165.095 146.681Z" fill="#263238"/>
<path d="M174.719 150.451C174.659 150.451 174.321 148.397 173.963 145.851C173.605 143.305 173.354 141.227 173.41 141.219C173.466 141.211 173.808 143.272 174.166 145.818C174.524 148.365 174.775 150.443 174.719 150.451Z" fill="#263238"/>
<path d="M184.741 146.698C184.417 146.348 184.116 145.978 183.838 145.589C183.297 144.895 182.545 143.946 181.697 142.891C180.85 141.835 180.062 140.923 179.493 140.25C179.168 139.903 178.867 139.533 178.594 139.141C178.699 139.214 178.795 139.299 178.88 139.396C179.055 139.568 179.302 139.827 179.6 140.151C180.201 140.796 181.005 141.708 181.856 142.755C182.708 143.802 183.448 144.776 183.953 145.498C184.212 145.856 184.415 146.151 184.55 146.361C184.631 146.461 184.696 146.575 184.741 146.698Z" fill="#263238"/>
<path d="M158.221 156.287V161.4H159.462L163.863 175.736H173.623L177.884 161.539L179.535 161.4V156.287H158.221Z" fill="#191A23"/>
<path d="M178.712 161.539C178.712 161.601 174.399 161.646 169.088 161.646C163.776 161.646 159.459 161.601 159.459 161.539C159.459 161.478 163.768 161.433 169.088 161.433C174.407 161.433 178.712 161.482 178.712 161.539Z" fill="#263238"/>
<path d="M185.731 128.669C185.527 128.741 185.318 128.799 185.106 128.841L183.392 129.252C181.947 129.622 179.966 130.18 177.821 130.928C175.677 131.675 173.763 132.464 172.398 133.071L170.783 133.802C170.586 133.911 170.381 134.003 170.17 134.078C170.348 133.95 170.537 133.84 170.735 133.749C171.105 133.552 171.65 133.281 172.326 132.956C175.866 131.295 179.562 130.012 183.356 129.129C184.08 128.965 184.673 128.841 185.083 128.768C185.296 128.716 185.513 128.683 185.731 128.669Z" fill="#263238"/>
<path d="M175.467 169.502C175.467 169.56 172.444 169.609 168.703 169.609C164.963 169.609 161.939 169.56 161.939 169.502C161.939 169.445 164.963 169.396 168.703 169.396C172.444 169.396 175.467 169.445 175.467 169.502Z" fill="#FAFAFA"/>
<path d="M175.851 168.316C175.851 168.377 172.644 168.422 168.689 168.422C164.734 168.422 161.527 168.377 161.527 168.316C161.527 168.254 164.734 168.209 168.689 168.209C172.644 168.209 175.851 168.258 175.851 168.316Z" fill="#FAFAFA"/>
<path d="M116.172 162.697L115.523 171.128C115.523 171.128 107.454 173.806 107.406 175.366L123.194 175.58L123.66 162.681L116.172 162.697Z" fill="#C3E4EF"/>
<path d="M120.391 170.27C120.545 170.314 120.677 170.414 120.764 170.552C120.851 170.689 120.885 170.855 120.861 171.018C120.824 171.176 120.73 171.315 120.597 171.405C120.465 171.495 120.305 171.53 120.149 171.502C119.983 171.46 119.839 171.355 119.744 171.208C119.65 171.062 119.612 170.884 119.639 170.71C119.695 170.548 119.808 170.415 119.957 170.338C120.105 170.262 120.277 170.248 120.435 170.299" fill="#EBEBEB"/>
<path d="M123.195 175.58L123.163 174.274L108.211 174.369C108.211 174.369 107.356 174.895 107.379 175.404L123.195 175.58Z" fill="#EBEBEB"/>
<path d="M115.262 171.038C115.262 171.116 115.66 171.141 116.057 171.387C116.455 171.633 116.658 171.958 116.726 171.925C116.794 171.892 116.67 171.432 116.197 171.145C115.723 170.857 115.262 170.98 115.262 171.038Z" fill="#263238"/>
<path d="M113.631 171.814C113.631 171.892 113.953 172.015 114.224 172.344C114.494 172.673 114.582 173.026 114.661 173.022C114.741 173.017 114.773 172.562 114.427 172.159C114.08 171.757 113.631 171.736 113.631 171.814Z" fill="#263238"/>
<path d="M112.747 173.888C112.818 173.888 112.914 173.502 112.703 173.067C112.492 172.632 112.126 172.475 112.098 172.545C112.07 172.615 112.297 172.837 112.464 173.194C112.631 173.551 112.671 173.884 112.747 173.888Z" fill="#263238"/>
<path d="M115.35 169.128C115.386 169.198 115.748 169.079 116.174 169.095C116.6 169.112 116.97 169.243 116.994 169.173C117.018 169.104 116.695 168.828 116.198 168.816C115.701 168.804 115.311 169.067 115.35 169.128Z" fill="#263238"/>
<path d="M115.262 167.432C115.524 167.499 115.8 167.489 116.057 167.404C116.343 167.344 116.619 167.247 116.881 167.116C117.035 167.039 117.184 166.952 117.327 166.853C117.414 166.798 117.493 166.73 117.561 166.652C117.604 166.592 117.626 166.521 117.626 166.447C117.626 166.373 117.604 166.301 117.561 166.241C117.522 166.187 117.47 166.143 117.41 166.113C117.351 166.083 117.285 166.068 117.219 166.069C117.119 166.072 117.02 166.09 116.925 166.122C116.757 166.17 116.593 166.233 116.435 166.311C116.172 166.442 115.932 166.617 115.723 166.829C115.365 167.19 115.25 167.49 115.278 167.506C115.305 167.523 115.485 167.276 115.847 166.972C116.061 166.8 116.295 166.655 116.543 166.541C116.689 166.477 116.839 166.425 116.993 166.385C117.156 166.332 117.299 166.328 117.347 166.385C117.394 166.443 117.347 166.426 117.347 166.48C117.295 166.534 117.238 166.582 117.176 166.623C117.048 166.718 116.915 166.804 116.778 166.882C116.537 167.016 116.283 167.126 116.022 167.211C115.764 167.266 115.51 167.34 115.262 167.432Z" fill="#263238"/>
<path d="M115.379 167.543C115.521 167.305 115.585 167.026 115.562 166.747C115.568 166.444 115.523 166.143 115.43 165.855C115.372 165.686 115.298 165.523 115.212 165.367C115.168 165.257 115.097 165.161 115.007 165.089C114.916 165.017 114.808 164.971 114.694 164.956C114.624 164.959 114.556 164.983 114.499 165.026C114.442 165.068 114.397 165.126 114.372 165.194C114.335 165.29 114.311 165.391 114.3 165.494C114.272 165.676 114.272 165.862 114.3 166.044C114.355 166.344 114.479 166.626 114.662 166.866C114.985 167.276 115.307 167.363 115.315 167.338C115.323 167.313 115.064 167.149 114.818 166.751C114.673 166.521 114.58 166.262 114.543 165.991C114.523 165.834 114.523 165.675 114.543 165.519C114.543 165.346 114.623 165.202 114.686 165.219C114.75 165.235 114.901 165.342 114.973 165.478C115.053 165.617 115.122 165.762 115.18 165.913C115.276 166.177 115.336 166.453 115.359 166.734C115.41 167.231 115.335 167.531 115.379 167.543Z" fill="#263238"/>
<path d="M150.31 161.292L152.132 171.149L155.753 178.508C155.814 178.633 155.85 178.77 155.858 178.911C155.867 179.051 155.847 179.192 155.8 179.324C155.753 179.456 155.681 179.576 155.587 179.678C155.494 179.78 155.381 179.862 155.255 179.917C155.109 179.982 154.95 180.009 154.792 179.997C154.633 179.985 154.479 179.933 154.344 179.847C152.598 178.734 146.188 174.611 146.092 173.88C145.985 173.058 143.498 163.613 143.498 163.613L150.31 161.292Z" fill="#C3E4EF"/>
<path d="M155.258 179.909L145.955 173.21L146.043 173.621C146.117 173.981 146.313 174.301 146.596 174.525C147.352 175.124 149.472 176.726 154.319 179.843C154.458 179.932 154.617 179.985 154.781 179.996C154.944 180.006 155.108 179.975 155.258 179.904V179.909Z" fill="#EBEBEB"/>
<path d="M147.254 170.323C147.389 170.385 147.498 170.497 147.558 170.636C147.618 170.776 147.626 170.934 147.58 171.079C147.525 171.221 147.419 171.336 147.284 171.399C147.149 171.462 146.996 171.47 146.856 171.42C146.709 171.353 146.592 171.231 146.528 171.079C146.465 170.926 146.46 170.755 146.513 170.599C146.587 170.457 146.711 170.35 146.859 170.3C147.008 170.25 147.169 170.262 147.309 170.332" fill="#EBEBEB"/>
<path d="M152.194 176.11C152.359 175.753 152.587 175.431 152.867 175.161C153.187 174.944 153.543 174.788 153.917 174.701C153.917 174.677 153.782 174.627 153.555 174.644C153.255 174.675 152.971 174.795 152.735 174.989C152.497 175.179 152.319 175.438 152.222 175.732C152.155 175.966 152.17 176.106 152.194 176.11Z" fill="#263238"/>
<path d="M153.145 177.272C153.196 177.305 153.435 176.919 153.896 176.665C154.19 176.536 154.49 176.425 154.796 176.332C154.63 176.272 154.452 176.253 154.278 176.277C154.104 176.302 153.938 176.368 153.793 176.471C153.268 176.763 153.089 177.256 153.145 177.272Z" fill="#263238"/>
<path d="M150.582 174.705C150.925 174.338 151.293 173.998 151.684 173.687C152.113 173.435 152.56 173.217 153.021 173.034C152.502 173.043 151.997 173.205 151.565 173.501C151.133 173.798 150.792 174.215 150.582 174.705Z" fill="#263238"/>
<path d="M149.787 171.761C149.823 171.814 150.3 171.473 150.981 171.293C151.661 171.112 152.234 171.165 152.242 171.1C151.813 170.972 151.359 170.967 150.927 171.083C150.495 171.199 150.101 171.433 149.787 171.761Z" fill="#263238"/>
<path d="M149.18 168.886C149.564 168.654 149.976 168.479 150.406 168.365C150.849 168.319 151.296 168.335 151.735 168.41C151.735 168.389 151.616 168.287 151.369 168.204C151.044 168.105 150.702 168.085 150.369 168.147C150.036 168.209 149.721 168.351 149.451 168.562C149.248 168.726 149.161 168.866 149.18 168.886Z" fill="#263238"/>
<path d="M150.274 167.822C150.274 167.822 150.274 167.683 150.211 167.449C150.111 167.115 149.946 166.806 149.725 166.541C149.58 166.332 149.374 166.178 149.137 166.102C149.056 166.084 148.973 166.092 148.897 166.125C148.822 166.158 148.758 166.214 148.715 166.286C148.638 166.432 148.617 166.602 148.655 166.763C148.745 167.088 148.942 167.37 149.213 167.561C149.483 167.752 149.809 167.84 150.135 167.81C150.457 167.773 150.76 167.637 151.008 167.422C151.255 167.206 151.434 166.92 151.524 166.599C151.549 166.518 151.556 166.432 151.547 166.348C151.537 166.264 151.51 166.183 151.468 166.11C151.415 166.045 151.343 165.998 151.264 165.977C151.184 165.956 151.1 165.96 151.022 165.991C150.802 166.096 150.611 166.259 150.469 166.463C150.256 166.733 150.09 167.041 149.98 167.371C149.93 167.487 149.904 167.613 149.904 167.74C150.075 167.317 150.304 166.921 150.585 166.566C150.713 166.388 150.883 166.247 151.078 166.155C151.12 166.138 151.166 166.136 151.21 166.147C151.253 166.159 151.292 166.185 151.321 166.221C151.346 166.269 151.362 166.323 151.366 166.378C151.371 166.433 151.365 166.488 151.349 166.541C151.265 166.812 151.108 167.052 150.896 167.235C150.685 167.417 150.428 167.534 150.155 167.572C149.88 167.597 149.605 167.524 149.376 167.367C149.146 167.21 148.974 166.976 148.89 166.705C148.858 166.594 148.867 166.474 148.914 166.369C148.937 166.329 148.972 166.297 149.013 166.278C149.054 166.259 149.1 166.253 149.144 166.262C149.345 166.327 149.522 166.455 149.65 166.627C149.927 166.983 150.139 167.388 150.274 167.822Z" fill="#263238"/>
<path d="M116.059 85.2065C115.96 85.2065 114.75 167.814 114.75 167.814L124.423 167.469L127.769 126.853L128.564 97.038L135.157 124.631L143.366 167.913L153.022 165.412L140.728 84.6808L129.157 82.3728L116.059 85.2065Z" fill="#263238"/>
<path d="M137.085 34.1802C138.243 31.823 138.605 27.5848 137.28 25.2398C135.956 22.8949 133.266 21.1988 130.743 20.4267C130.329 20.2652 129.877 20.2365 129.446 20.3446C129.234 20.4063 129.053 20.5489 128.939 20.7433C128.826 20.9377 128.788 21.1696 128.833 21.3918C128.357 20.99 127.819 20.6723 127.242 20.4513C126.954 20.3447 126.645 20.3121 126.342 20.3565C126.039 20.4009 125.751 20.5208 125.503 20.706C125.386 20.8039 125.288 20.9248 125.216 21.0617C125.145 21.1986 125.1 21.3489 125.084 21.5038C125.068 21.6587 125.083 21.8153 125.126 21.9645C125.169 22.1137 125.241 22.2526 125.336 22.3733C124.986 22.2177 124.599 22.1694 124.223 22.2341C123.847 22.2988 123.496 22.4738 123.214 22.7383C122.931 23.0027 122.728 23.3454 122.629 23.7256C122.53 24.1058 122.539 24.5074 122.654 24.8825C122.95 25.6571 123.387 26.3664 123.939 26.9729C124.441 27.5232 124.489 28.0571 124.337 28.8004" fill="#263238"/>
<path d="M127.55 53.6094C127.621 52.4759 127.8 42.2336 127.796 42.1885C127.792 42.1433 124.112 41.7162 123.953 37.9339C123.877 36.1064 124.016 32.3322 124.18 28.9195C124.264 27.151 124.989 25.4798 126.212 24.2381C127.435 22.9964 129.066 22.275 130.78 22.2173H131.135C134.954 22.3241 136.999 25.7327 136.788 29.6711L136.267 51.5888" fill="#FFBE9D"/>
<path d="M127.796 42.1882C129.489 42.1293 131.131 41.5707 132.527 40.5784C132.527 40.5784 131.424 42.9439 127.752 42.7221L127.796 42.1882Z" fill="#EB996E"/>
<path d="M124.811 31.474C124.815 31.6146 124.871 31.7481 124.968 31.8468C125.065 31.9455 125.196 32.0017 125.332 32.0038C125.399 32.0071 125.465 31.9965 125.528 31.9728C125.591 31.949 125.649 31.9125 125.698 31.8655C125.746 31.8184 125.786 31.7617 125.813 31.6987C125.841 31.6357 125.855 31.5677 125.857 31.4986C125.856 31.4285 125.843 31.3592 125.816 31.2946C125.79 31.2301 125.751 31.1715 125.703 31.1223C125.654 31.0731 125.597 31.0342 125.534 31.0079C125.471 30.9816 125.404 30.9683 125.336 30.9689C125.269 30.9655 125.202 30.9761 125.139 30.9998C125.076 31.0236 125.019 31.0601 124.97 31.1071C124.921 31.1542 124.882 31.2109 124.854 31.2739C124.827 31.3369 124.812 31.405 124.811 31.474Z" fill="#263238"/>
<path d="M125.022 30.747C125.09 30.8127 125.476 30.4965 126.041 30.4801C126.606 30.4636 127.024 30.7429 127.083 30.669C127.143 30.5951 127.044 30.5129 126.857 30.3815C126.608 30.2154 126.317 30.1323 126.021 30.1433C125.732 30.155 125.454 30.2598 125.225 30.4431C125.042 30.5868 124.991 30.7141 125.022 30.747Z" fill="#263238"/>
<path d="M130.438 31.5559C130.441 31.6969 130.497 31.831 130.594 31.9299C130.691 32.0288 130.822 32.0847 130.959 32.0857C131.026 32.0896 131.093 32.0795 131.156 32.0559C131.219 32.0324 131.277 31.9959 131.326 31.9487C131.375 31.9016 131.414 31.8446 131.441 31.7813C131.468 31.7181 131.483 31.6498 131.484 31.5806C131.481 31.4397 131.425 31.3055 131.327 31.2066C131.23 31.1077 131.099 31.0518 130.963 31.0508C130.828 31.0464 130.698 31.097 130.599 31.1916C130.501 31.2863 130.443 31.4172 130.438 31.5559Z" fill="#263238"/>
<path d="M130.561 30.6773C130.629 30.743 131.019 30.4268 131.58 30.4104C132.141 30.3939 132.567 30.6732 132.622 30.5993C132.678 30.5254 132.582 30.4432 132.399 30.3118C132.149 30.1464 131.857 30.0633 131.56 30.0736C131.271 30.0861 130.993 30.1908 130.764 30.3734C130.585 30.5171 130.529 30.6444 130.561 30.6773Z" fill="#263238"/>
<path d="M128.647 35.0549C128.348 34.9644 128.039 34.9161 127.728 34.9111C127.584 34.9111 127.445 34.8742 127.417 34.7756C127.402 34.6225 127.431 34.4682 127.501 34.3321L127.899 33.1904C128.444 31.5477 128.83 30.2212 128.766 30.2007C128.703 30.1801 128.213 31.482 127.668 33.1083C127.541 33.5189 127.413 33.8927 127.298 34.2582C127.211 34.4404 127.19 34.6486 127.238 34.8454C127.261 34.8967 127.295 34.9421 127.337 34.9783C127.379 35.0145 127.428 35.0407 127.481 35.0549C127.562 35.0742 127.645 35.0824 127.728 35.0795C128.034 35.1116 128.343 35.1033 128.647 35.0549Z" fill="#263238"/>
<path d="M130.317 35.4041C130.226 35.4041 130.242 36.0325 129.732 36.4965C129.223 36.9606 128.57 36.9072 128.566 37.0016C128.563 37.0961 128.718 37.1166 128.992 37.1166C129.354 37.1175 129.705 36.9866 129.983 36.747C130.241 36.5125 130.402 36.1847 130.433 35.8312C130.433 35.552 130.357 35.3959 130.317 35.4041Z" fill="#263238"/>
<path d="M130.347 28.402C130.41 28.5581 130.967 28.4636 131.632 28.5252C132.296 28.5868 132.826 28.7552 132.917 28.6115C132.957 28.5417 132.857 28.3979 132.639 28.2501C132.346 28.0697 132.016 27.9628 131.676 27.938C131.337 27.9068 130.996 27.9589 130.681 28.0899C130.442 28.2008 130.323 28.3281 130.347 28.402Z" fill="#263238"/>
<path d="M125.178 29.0547C125.281 29.1861 125.667 29.0547 126.133 29.0137C126.598 28.9726 126.996 29.0753 127.084 28.9356C127.119 28.8658 127.056 28.7344 126.877 28.6153C126.637 28.467 126.359 28.3996 126.081 28.4223C125.807 28.4354 125.544 28.5375 125.329 28.7139C125.182 28.8535 125.134 28.9931 125.178 29.0547Z" fill="#263238"/>
<path d="M136.586 32.4718C136.649 32.4431 139.08 31.6217 139.08 34.2131C139.08 36.8045 136.562 36.2665 136.554 36.1925C136.546 36.1186 136.586 32.4718 136.586 32.4718Z" fill="#FFBE9D"/>
<path d="M137.32 35.2112C137.32 35.2112 137.364 35.2441 137.44 35.277C137.492 35.2991 137.547 35.3105 137.603 35.3105C137.659 35.3105 137.714 35.2991 137.766 35.277C137.928 35.1708 138.06 35.0221 138.148 34.846C138.236 34.6699 138.277 34.4728 138.267 34.2749C138.272 34.0533 138.23 33.8334 138.144 33.6301C138.121 33.5498 138.079 33.4765 138.022 33.4164C137.965 33.3564 137.895 33.3113 137.818 33.2852C137.768 33.2705 137.714 33.2748 137.666 33.2974C137.619 33.32 137.581 33.3594 137.559 33.4084C137.523 33.4782 137.559 33.5316 137.527 33.5357C137.496 33.5398 137.476 33.4905 137.496 33.3837C137.509 33.3208 137.543 33.2644 137.591 33.2236C137.661 33.17 137.748 33.1464 137.834 33.1579C137.938 33.1787 138.036 33.2276 138.116 33.2997C138.196 33.3719 138.257 33.4646 138.291 33.5685C138.398 33.7917 138.45 34.0385 138.442 34.2872C138.454 34.5184 138.4 34.748 138.286 34.9473C138.172 35.1467 138.004 35.3071 137.802 35.4084C137.735 35.428 137.664 35.4319 137.595 35.4198C137.526 35.4078 137.461 35.38 137.404 35.3386C137.324 35.2729 137.313 35.2154 137.32 35.2112Z" fill="#EB996E"/>
<path d="M122.582 24.0159C122.287 27.3711 126.294 28.7716 128.053 26.8907C128.848 26.0241 129.573 24.9399 130.679 24.5498C131.057 24.4326 131.454 24.394 131.847 24.4363C132.239 24.4786 132.62 24.601 132.967 24.7962C134.001 25.3506 134.61 26.5868 134.773 27.7777C134.996 29.4204 134.737 30.8989 135.171 32.4225C135.208 32.6485 135.317 32.8552 135.481 33.0097C135.649 33.0935 135.841 33.1135 136.022 33.0662C136.203 33.0189 136.362 32.9073 136.472 32.751C136.839 32.2572 137.057 31.6632 137.101 31.0426C137.321 29.6485 137.27 28.2229 136.949 26.8496C136.626 25.4704 135.918 24.2194 134.912 23.2521C133.608 22.0864 131.916 21.4887 130.193 21.5847C128.478 21.6945 126.84 22.3583 125.51 23.482C124.872 23.9726 124.362 24.6189 124.026 25.3629" fill="#263238"/>
<path d="M125.232 22.1801C125.118 22.1522 125 22.1522 124.886 22.1801C124.573 22.2568 124.286 22.4217 124.058 22.6565C123.714 23.0058 123.494 23.4643 123.434 23.9584C123.386 24.5695 123.557 25.1773 123.915 25.6668C124.261 26.1526 124.731 26.5305 125.272 26.7592C125.708 26.9406 126.171 27.0461 126.64 27.0713C126.954 27.0917 127.268 27.0821 127.579 27.0425C127.695 27.0372 127.809 27.0137 127.918 26.9727C127.918 26.9358 127.428 27.0056 126.652 26.9317C126.202 26.8864 125.761 26.7715 125.343 26.5908C124.836 26.3674 124.396 26.0071 124.07 25.5477C123.749 25.1078 123.589 24.5656 123.617 24.0159C123.661 23.5549 123.851 23.1218 124.158 22.7838C124.363 22.5539 124.622 22.3816 124.91 22.2828C125.113 22.2048 125.236 22.2007 125.232 22.1801Z" fill="#455A64"/>
<path d="M126.913 20.9978C126.913 20.9978 126.821 20.9691 126.674 21.0389C126.572 21.096 126.484 21.1751 126.416 21.2709C126.347 21.3666 126.299 21.4766 126.276 21.5933C126.226 21.9361 126.293 22.2862 126.467 22.583C126.648 22.9448 126.879 23.2781 127.151 23.5727C127.647 24.1105 128.263 24.5139 128.946 24.7473C129.221 24.8628 129.517 24.9147 129.813 24.8992C129.813 24.8623 129.487 24.8212 128.993 24.6159C128.351 24.3544 127.772 23.9523 127.294 23.4372C127.032 23.1547 126.806 22.8386 126.622 22.4968C126.46 22.2354 126.385 21.9271 126.407 21.6179C126.441 21.4142 126.547 21.2309 126.706 21.1046C126.829 21.0224 126.916 21.0142 126.913 20.9978Z" fill="#455A64"/>
<path d="M105.072 54.5251L87.8084 52.8372L85.0789 52.1596C85.0789 52.1596 78.8401 51.0097 78.2552 50.8167C77.5788 50.5991 77.3122 50.8824 77.2526 51.1453C77.1571 51.5559 77.551 51.9954 78.1239 52.2007C78.3229 52.2746 81.5019 53.2684 81.5019 53.2684C81.1456 53.3627 80.796 53.4821 80.4555 53.6257C79.7154 53.9173 79.0311 54.9481 78.7168 56.1268C78.4024 57.3054 78.4144 57.6627 78.852 57.8105C78.9355 57.835 79.0233 57.8396 79.1088 57.824C79.1943 57.8083 79.2752 57.7728 79.3454 57.7202C79.5904 57.5641 79.7704 57.3197 79.8507 57.0343C80.3839 55.1534 81.5019 54.9604 81.5019 54.9604L81.86 55.0508C81.86 55.0508 80.73 55.9337 80.7897 56.944C80.8005 57.0866 80.8369 57.2259 80.8972 57.3547C80.8121 57.6128 80.7955 57.8897 80.8491 58.1566C80.9027 58.4235 81.0245 58.6708 81.2019 58.8728C81.3793 59.0748 81.6058 59.224 81.858 59.3052C82.1101 59.3863 82.3787 59.3963 82.6359 59.3341C82.8826 59.2807 83.1412 59.1206 83.1691 58.8619C83.1712 58.7189 83.1384 58.5776 83.0736 58.4512C83.0452 58.3849 83.0226 58.3162 83.0059 58.2458L84.0404 58.3485C84.0404 58.3485 86.376 58.4553 87.3866 58.6196L103.648 62.9604C104.183 63.1038 104.741 63.1356 105.289 63.0539C105.836 62.9723 106.363 62.7787 106.837 62.4847C107.311 62.1906 107.724 61.802 108.05 61.3414C108.377 60.8808 108.612 60.3576 108.741 59.8023C108.879 59.2032 108.891 58.5805 108.776 57.9762C108.661 57.372 108.421 56.8003 108.073 56.2999C107.725 55.7996 107.277 55.3822 106.76 55.076C106.242 54.7698 105.667 54.5819 105.072 54.5251Z" fill="#FFBE9D"/>
<path d="M87.4433 53.3054C87.4129 53.489 87.3281 53.6583 87.2005 53.79C87.0729 53.9216 86.9089 54.0092 86.7311 54.0405C86.377 54.1309 86.0109 54.098 85.6528 54.1596C84.5905 54.3526 83.7987 55.3917 82.7244 55.5313C82.5772 55.5313 82.3862 55.5313 82.3265 55.3793C82.2668 55.2274 82.3862 55.1083 82.4897 55.0097L85.0719 52.4553" fill="#FFBE9D"/>
<path d="M85.0836 52.4553C84.9728 52.5253 84.87 52.608 84.7772 52.7017C84.5902 52.8701 84.3236 53.1124 83.9814 53.4327L82.8355 54.5292C82.7281 54.636 82.6207 54.7428 82.5053 54.8496C82.3899 54.9563 82.2387 55.059 82.2148 55.3136C82.2151 55.3763 82.2339 55.4375 82.2688 55.4888C82.3036 55.5402 82.3528 55.5794 82.4098 55.6011C82.5023 55.6373 82.602 55.65 82.7003 55.6381C82.8752 55.6142 83.0472 55.5715 83.2135 55.5108C83.7945 55.2286 84.3555 54.9047 84.8926 54.5416C85.1286 54.4048 85.3835 54.3064 85.6486 54.25C85.8953 54.2007 86.138 54.1966 86.3647 54.1719C86.5493 54.1703 86.7312 54.1268 86.8976 54.0445C87.064 53.9622 87.2108 53.843 87.3276 53.6956C87.3734 53.6394 87.4065 53.5734 87.4244 53.5023C87.4423 53.4313 87.4446 53.357 87.4311 53.2849C87.3942 53.4074 87.3378 53.5226 87.264 53.6258C87.1458 53.7506 87.0038 53.8486 86.8469 53.9137C86.6901 53.9787 86.5218 54.0093 86.3528 54.0036C86.1081 54.0088 85.8637 54.0266 85.6207 54.057C85.3428 54.1124 85.0745 54.2107 84.8249 54.3485C84.2881 54.6964 83.7314 55.0105 83.1578 55.289C83.0087 55.346 82.8539 55.3859 82.6963 55.4081C82.5491 55.4081 82.4178 55.3752 82.4297 55.2931C82.4416 55.211 82.5451 55.0836 82.6565 54.9769C82.7679 54.8701 82.8753 54.7551 82.9828 54.6524L84.0968 53.519C84.4112 53.1945 84.6658 52.9276 84.8369 52.7428C85.008 52.558 85.0955 52.4676 85.0836 52.4553Z" fill="#EB996E"/>
<path d="M81.8872 55.0098C81.6632 54.9627 81.4317 54.9697 81.2108 55.0304C80.9791 55.1096 80.7782 55.2637 80.6378 55.4698C80.4628 55.7284 80.3286 56.0139 80.2399 56.3158C80.1494 56.627 80.0294 56.9282 79.8818 57.2152C79.7528 57.4531 79.5664 57.6526 79.3407 57.7942C79.2622 57.841 79.1743 57.8683 79.0839 57.874C78.9934 57.8797 78.9029 57.8637 78.8195 57.8271C78.7041 57.7696 78.6603 57.7121 78.6643 57.708C78.6683 57.7039 78.724 57.7408 78.8354 57.7778C78.9126 57.8018 78.9939 57.8081 79.0737 57.796C79.1535 57.7839 79.2297 57.7539 79.2969 57.708C79.5008 57.567 79.6665 57.3748 79.7784 57.1495C79.9153 56.867 80.0284 56.573 80.1166 56.2706C80.207 55.9555 80.3482 55.6584 80.5344 55.3918C80.6936 55.1695 80.9206 55.0089 81.1789 54.9359C81.3498 54.8902 81.5292 54.8902 81.7002 54.9359C81.7676 54.9437 81.8319 54.9691 81.8872 55.0098Z" fill="#EB996E"/>
<path d="M77.916 52.1187C78.1318 52.1646 78.3434 52.2291 78.5486 52.3117L80.0606 52.8168L81.5805 53.2973C81.7952 53.3529 82.0054 53.4256 82.2092 53.515C81.9876 53.5015 81.7685 53.4601 81.5566 53.3918C81.1588 53.2932 80.6176 53.1412 80.0208 52.9482C79.424 52.7552 78.8948 52.5581 78.5168 52.402C78.3073 52.3301 78.1058 52.2351 77.916 52.1187Z" fill="#EB996E"/>
<path d="M82.3765 55.9788C82.3765 55.9788 82.3328 56.0445 82.2492 56.1471C82.1869 56.2111 82.1389 56.2883 82.1087 56.3735C82.0784 56.4586 82.0666 56.5496 82.0741 56.6399C82.0843 56.6978 82.1092 56.7519 82.1463 56.7967C82.1833 56.8414 82.2312 56.8752 82.285 56.8946C82.4209 56.9469 82.5626 56.9814 82.7068 56.9972C82.8863 57.0142 83.0535 57.0991 83.1763 57.2354C83.236 57.317 83.2764 57.4118 83.2943 57.5123C83.3123 57.6128 83.3073 57.7163 83.2797 57.8145C83.2501 57.9103 83.2021 57.999 83.1385 58.0752C83.0749 58.1514 82.9971 58.2136 82.9097 58.258C82.7511 58.3446 82.5706 58.379 82.3924 58.3566C82.1151 58.3073 81.8468 58.2145 81.5967 58.0814C81.4214 57.9997 81.2612 57.8871 81.1232 57.7488C81.0692 57.6991 81.0293 57.6353 81.0078 57.564C81.0078 57.564 81.0595 57.6215 81.159 57.7118C81.303 57.829 81.4624 57.9244 81.6325 57.9952C81.886 58.1116 82.1537 58.1918 82.4283 58.2334C82.5835 58.2515 82.7402 58.2168 82.8745 58.1345C83.0088 58.0522 83.1134 57.9269 83.1723 57.7775C83.1945 57.7 83.1993 57.6182 83.1862 57.5385C83.1731 57.4588 83.1425 57.3832 83.0967 57.3176C82.9915 57.2044 82.8502 57.1344 82.6988 57.1204C82.546 57.0983 82.3963 57.0569 82.2532 56.9972C82.1858 56.9681 82.1268 56.9213 82.0822 56.8616C82.0375 56.8018 82.0087 56.7311 81.9985 56.6564C82.0041 56.518 82.0435 56.3832 82.1131 56.2648C82.1826 56.1463 82.2801 56.0479 82.3964 55.9788H82.3765Z" fill="#EB996E"/>
<path d="M82.8295 58.172C82.8295 58.172 82.9011 58.172 83.0006 58.25C83.0704 58.3078 83.1259 58.3818 83.1626 58.4661C83.1992 58.5503 83.216 58.6423 83.2114 58.7346C83.2008 58.8715 83.1555 59.0031 83.0801 59.1162C83.0046 59.2294 82.9018 59.3201 82.7817 59.3793C82.4898 59.5209 82.156 59.5401 81.8507 59.4327C81.5461 59.335 81.2789 59.1411 81.0867 58.8783C80.9337 58.6659 80.8388 58.4148 80.8122 58.1514C80.792 57.9754 80.8042 57.7971 80.848 57.6258C80.8799 57.5067 80.9117 57.4451 80.9196 57.4492C80.8861 57.6765 80.8861 57.9077 80.9196 58.135C80.9566 58.3795 81.0539 58.61 81.2021 58.8044C81.3827 59.0398 81.6283 59.2131 81.9064 59.3013C82.1791 59.3986 82.4772 59.3868 82.7419 59.2685C82.8471 59.22 82.9387 59.1449 83.0083 59.0501C83.0778 58.9553 83.1231 58.844 83.1398 58.7264C83.1455 58.6463 83.135 58.5659 83.109 58.4903C83.0829 58.4146 83.042 58.3454 82.9886 58.2869C82.8892 58.2048 82.8255 58.1843 82.8295 58.172Z" fill="#EB996E"/>
<path d="M85.6281 56.599C85.6345 56.4891 85.6688 56.3829 85.7275 56.291C85.8645 56.0425 86.0771 55.8476 86.3323 55.7366V55.8557C86.1959 55.794 86.063 55.7241 85.9345 55.6463C85.4687 55.3956 85.0811 55.014 84.8164 54.5457C85.1773 54.9193 85.5777 55.2499 86.0101 55.5313C86.1414 55.6093 86.2727 55.6791 86.4079 55.7366L86.5432 55.8023L86.404 55.8557C86.1691 55.9539 85.9662 56.1191 85.8191 56.3321C85.6838 56.4923 85.648 56.6072 85.6281 56.599Z" fill="#EB996E"/>
<path d="M80.2113 54.9234C80.2351 54.8988 80.4261 55.1 80.4579 55.4244C80.4898 55.7489 80.3505 55.9871 80.3187 55.9665C80.2869 55.946 80.3585 55.7242 80.3187 55.4409C80.2789 55.1575 80.1794 54.9481 80.2113 54.9234Z" fill="#EB996E"/>
<path d="M105.378 63.2315L116.63 60.5662C116.63 60.5662 116.058 81.8392 116.058 82.0404C116.058 82.2417 115.13 82.5743 115.21 84.1226L116.006 85.9583L140.674 86.2991L141.343 65.6257L143.595 49.6093L138.422 46.3034L136.6 43.7284L129.486 51.4738L127.715 44.8619L127.767 42.8948L126.009 44.866L116.519 47.6915L103.982 53.7243L95.5069 53.0549L93.3066 60.7099L105.378 63.2315Z" fill="#C3E4EF"/>
<path d="M128.505 49.1001C128.275 49.2292 128.095 49.4368 127.996 49.6874C127.888 49.9724 127.835 50.2766 127.841 50.5827C127.858 51.0004 127.801 51.4178 127.674 51.8147L127.586 52.0241L127.499 51.8147C127.261 51.2039 127.075 50.5733 126.942 49.9297C126.643 48.5991 126.448 47.3794 126.321 46.5006C126.234 46.0251 126.184 45.5429 126.174 45.0591C126.301 45.5231 126.399 45.9949 126.468 46.4718C126.631 47.3465 126.866 48.558 127.145 49.8804C127.274 50.5106 127.45 51.1297 127.67 51.7326H127.499C127.622 51.364 127.684 50.9766 127.682 50.5868C127.688 50.2633 127.758 49.9447 127.889 49.6504C127.973 49.457 128.112 49.294 128.287 49.1823C128.35 49.133 128.426 49.1044 128.505 49.1001Z" fill="#263238"/>
<path d="M137.636 45.8555C137.571 45.9842 137.491 46.1043 137.398 46.2127C137.231 46.4304 137 46.7466 136.681 47.1327C136.069 47.9047 135.217 48.9602 134.262 50.1224L132.742 51.9417L132.623 52.0813L132.583 51.9047C132.364 51.0094 132.185 50.262 132.074 49.7281C132.026 49.4612 131.883 49.3175 131.744 49.3175C131.676 49.3113 131.608 49.3302 131.553 49.3708C131.553 49.3708 131.581 49.2641 131.744 49.2559C131.793 49.2544 131.841 49.2635 131.886 49.2826C131.932 49.3017 131.972 49.3304 132.006 49.3667C132.091 49.4623 132.151 49.578 132.181 49.7035C132.329 50.2292 132.532 50.9766 132.762 51.8636L132.599 51.8267L134.103 49.9827C135.058 48.8246 135.929 47.7815 136.57 47.0341C136.888 46.6604 137.151 46.3606 137.334 46.1552C137.517 45.9499 137.624 45.8431 137.636 45.8555Z" fill="#263238"/>
<path d="M127.143 79.8678C127.125 79.7774 127.117 79.685 127.12 79.5927C127.12 79.3874 127.12 79.1286 127.12 78.8001C127.12 78.1143 127.12 77.1204 127.12 75.8966C127.143 73.4325 127.259 70.0527 127.517 66.3155C127.776 62.5784 128.17 59.2108 128.496 56.7796C128.655 55.5476 128.803 54.5825 128.894 53.9049L129.025 53.1246C129.037 53.0339 129.057 52.9446 129.085 52.8577C129.094 52.9492 129.094 53.0413 129.085 53.1328C129.061 53.334 129.029 53.5928 128.994 53.9172C128.906 54.6236 128.787 55.601 128.639 56.7919C128.353 59.2273 127.999 62.5948 127.724 66.3278C127.45 70.0609 127.326 73.4449 127.255 75.8925C127.227 77.0999 127.207 78.0855 127.187 78.8001C127.187 79.1245 127.187 79.3832 127.167 79.5886C127.165 79.6821 127.158 79.7754 127.143 79.8678Z" fill="#263238"/>
<path d="M125.133 84.8496C124.959 84.2582 124.896 83.638 124.946 83.0221C124.934 82.4074 125.004 81.7939 125.153 81.1987C125.21 81.8065 125.21 82.4185 125.153 83.0262C125.126 84.0283 125.209 84.8414 125.133 84.8496Z" fill="#263238"/>
<path d="M135.24 78.874C135.035 78.9707 134.824 79.053 134.608 79.1204C134.21 79.2683 133.589 79.4613 132.841 79.6872C130.885 80.2649 128.901 80.7365 126.897 81.0999C124.891 81.474 122.867 81.7372 120.833 81.8884C120.057 81.9418 119.425 81.9746 118.987 81.9828C118.762 82.0023 118.536 82.0023 118.311 81.9828C118.533 81.9408 118.757 81.9161 118.983 81.9089L120.821 81.7447C122.373 81.5968 124.514 81.334 126.853 80.9233C129.193 80.5126 131.289 79.9746 132.793 79.564L134.576 79.0588C134.792 78.9771 135.014 78.9152 135.24 78.874Z" fill="#263238"/>
<path d="M116.508 65.0386C116.452 65.0386 116.416 62.0201 116.428 58.2912C116.44 54.5622 116.496 51.5437 116.555 51.5479C116.615 51.552 116.647 54.5663 116.635 58.2953C116.623 62.0242 116.567 65.0386 116.508 65.0386Z" fill="#263238"/>
<path d="M143.138 49.2974C143.138 49.2974 146.246 52.0489 146.453 53.6095C146.608 54.8127 149.667 66.1269 151.044 71.1946C151.474 72.7724 151.382 74.4533 150.782 75.9708L146.803 86.1145L140.377 82.1884L143.592 72.6772L140.93 64.6033L143.138 49.2974Z" fill="#C3E4EF"/>
<path d="M146.812 86.1145C146.77 86.0995 146.73 86.0788 146.693 86.0529L146.35 85.8599L145.049 85.0919L140.33 82.2623L140.271 82.2254L140.295 82.1638C141.194 79.482 142.284 76.2213 143.478 72.6402V72.71C143.104 71.6669 142.71 70.5786 142.308 69.4657C141.365 66.8496 140.47 64.3527 139.65 62.0735C138.834 60.3117 138.13 58.6074 137.935 56.9729C137.837 56.2091 137.859 55.434 137.999 54.6772C138.128 54.0341 138.345 53.4132 138.643 52.8333C139.067 52.0154 139.63 51.2836 140.307 50.6731C140.484 50.5096 140.67 50.3561 140.864 50.2132C140.928 50.161 140.997 50.1156 141.071 50.0776C141.014 50.1387 140.951 50.1937 140.884 50.2419C140.756 50.3446 140.573 50.5006 140.346 50.7183C139.698 51.3422 139.16 52.0772 138.755 52.8908C138.466 53.4617 138.259 54.0733 138.142 54.706C138.011 55.4475 137.996 56.206 138.098 56.9524C138.301 58.5499 139.006 60.2378 139.829 61.9914L142.503 69.3835C142.901 70.4965 143.299 71.5847 143.673 72.632V72.6648V72.7018C142.455 76.2747 141.349 79.5313 140.438 82.2089L140.402 82.1104L145.069 84.9851L146.35 85.8065L146.681 86.02C146.776 86.0816 146.816 86.1104 146.812 86.1145Z" fill="#263238"/>
<g opacity="0.3">
<path d="M130.244 50.7841C130.459 50.7768 130.67 50.8441 130.843 50.9752C131.016 51.1062 131.142 51.2935 131.199 51.5069C131.279 51.9504 131.219 52.4104 131.331 52.8457C131.442 53.281 131.828 53.7081 132.254 53.6137C132.506 53.5281 132.722 53.3537 132.862 53.1208C133.698 51.9532 134.368 50.6686 134.852 49.3057C134.852 49.3344 132.648 51.9176 132.648 51.9176C132.563 51.2645 132.397 50.6254 132.154 50.0161C132.079 49.819 131.995 49.4864 131.812 49.396C131.514 49.2564 131.116 49.7081 130.917 49.9792C130.713 50.2574 130.483 50.5133 130.229 50.743" fill="black"/>
</g>
<g opacity="0.3">
<path d="M126.652 48.4427C126.692 49.8854 126.961 51.3115 127.448 52.6644C127.49 52.8035 127.564 52.9301 127.663 53.034C127.714 53.0868 127.781 53.121 127.853 53.1314C127.924 53.1418 127.997 53.1278 128.061 53.0915C128.22 52.8139 128.354 52.5209 128.459 52.2168C128.662 51.6295 129.489 51.5761 129.489 51.5761C129.351 50.913 129.17 50.26 128.948 49.6213C128.907 49.5168 128.836 49.4278 128.744 49.3668C128.652 49.3058 128.544 49.2756 128.435 49.2805C128.292 49.3306 128.164 49.419 128.065 49.5365C127.966 49.6541 127.898 49.7967 127.87 49.9499C127.747 51.0053 127.762 51.4858 127.611 51.8554C127.213 50.7342 126.911 49.3913 126.656 48.4016" fill="black"/>
</g>
<g opacity="0.3">
<path d="M132.771 79.5514C132.865 79.4822 132.945 79.3942 133.006 79.2928C133.066 79.1913 133.107 79.0783 133.125 78.9605C133.142 78.8426 133.137 78.7223 133.109 78.6066C133.082 78.4909 133.032 78.3821 132.962 78.2866C132.815 78.0995 132.622 77.9559 132.403 77.8701C132.184 77.7843 131.948 77.7594 131.717 77.7979C131.257 77.8804 130.825 78.081 130.46 78.381C130.082 78.6644 129.736 78.9888 129.338 79.2393C128.363 79.8553 127.177 79.9991 126.031 80.0155C124.887 79.9659 123.741 80.0195 122.606 80.1757C121.483 80.3974 120.361 80.997 119.82 82.036C119.804 82.036 129.588 81.305 132.771 79.5514Z" fill="black"/>
</g>
<path d="M139.138 94.3852C138.093 93.6909 137.216 92.7579 136.575 91.6583C136.581 91.6441 136.584 91.6287 136.584 91.6132C136.584 91.5976 136.581 91.5823 136.575 91.568C136.551 91.5353 136.515 91.5133 136.476 91.5064C136.201 91.0703 135.951 90.6178 135.728 90.1512C136.524 89.6173 137.57 88.8041 136.436 88.6399C135.04 88.4345 134.049 87.7323 133.898 87.3503C133.874 87.2591 133.879 87.1626 133.911 87.0742C133.942 86.9857 134 86.9096 134.076 86.8565C134.151 86.8033 134.241 86.7756 134.332 86.7773C134.424 86.7789 134.512 86.8099 134.586 86.8658C135.011 87.0881 135.464 87.2497 135.931 87.3462C136.305 87.4364 136.691 87.4614 137.073 87.4202C137.308 87.3914 138.139 86.8041 139.03 86.3729C139.154 86.3129 139.293 86.2928 139.428 86.3154L139.766 86.2908C139.947 86.2793 140.122 86.2195 140.273 86.1172C140.424 86.015 140.547 85.8738 140.63 85.7076L141.923 83.145L145.822 85.5269L142.735 89.9458C141.615 91.4919 140.414 92.9739 139.138 94.3852Z" fill="#FFBE9D"/>
<path d="M139.953 94.8453C139.632 94.7517 139.329 94.6046 139.054 94.41C138.366 93.9792 137.743 93.4449 137.208 92.8248C136.673 92.2106 136.227 91.5188 135.887 90.7714C135.732 90.4658 135.623 90.1376 135.564 89.7981C136.457 91.9286 137.992 93.7046 139.941 94.8617L139.953 94.8453Z" fill="#455A64"/>
<path d="M127.673 97.437C127.673 97.437 127.634 97.437 127.562 97.4041C127.464 97.3543 127.371 97.2922 127.288 97.2193C126.989 96.9363 126.769 96.5762 126.651 96.1762C126.476 95.5988 126.331 95.0121 126.217 94.4185C126.074 93.7532 125.927 93.0222 125.78 92.2501C125.485 90.7101 125.262 89.3056 125.119 88.2871C125.047 87.7779 124.996 87.3631 124.968 87.0797C124.942 86.9321 124.932 86.7819 124.94 86.6321C124.993 86.7636 125.029 86.9016 125.047 87.0428L125.262 88.2419C125.445 89.2522 125.688 90.6485 125.982 92.1885C126.13 92.9565 126.273 93.6834 126.404 94.3569C126.536 95.0304 126.639 95.6259 126.802 96.1064C126.904 96.4899 127.092 96.8431 127.351 97.1372C127.538 97.3548 127.681 97.4205 127.673 97.437Z" fill="#455A64"/>
<path d="M127.337 88.217C127.337 88.217 127.405 88.1923 127.512 88.217C127.67 88.277 127.801 88.3956 127.879 88.5496C127.941 88.666 127.971 88.7984 127.964 88.9313C127.957 89.0643 127.913 89.1925 127.839 89.3012C127.747 89.436 127.619 89.5394 127.47 89.598C127.321 89.6566 127.158 89.6676 127.003 89.6297C126.852 89.582 126.717 89.4912 126.613 89.3677C126.51 89.2442 126.442 89.093 126.418 88.9316C126.403 88.8017 126.417 88.6699 126.461 88.547C126.504 88.4242 126.576 88.3138 126.669 88.2252C126.999 87.9336 127.298 88.0199 127.282 88.0363C127.092 88.0924 126.917 88.1936 126.772 88.332C126.704 88.4065 126.653 88.4967 126.625 88.5952C126.597 88.6937 126.591 88.7977 126.609 88.8987C126.631 89.0197 126.684 89.1324 126.763 89.2243C126.843 89.3163 126.945 89.384 127.059 89.4203C127.174 89.4462 127.295 89.438 127.406 89.3966C127.517 89.3552 127.615 89.2823 127.688 89.1862C127.745 89.105 127.781 89.0093 127.792 88.9091C127.802 88.8088 127.787 88.7075 127.747 88.6153C127.596 88.2827 127.321 88.2457 127.337 88.217Z" fill="#455A64"/>
<path d="M118.879 86.5662C118.974 86.8708 119.009 87.1919 118.982 87.5107C118.955 88.2871 118.755 89.0466 118.398 89.7308C118.042 90.415 117.538 91.0056 116.925 91.4573C116.68 91.6497 116.4 91.7894 116.102 91.868C116.102 91.8351 116.4 91.675 116.838 91.3177C117.402 90.8487 117.868 90.2674 118.21 89.6085C118.552 88.9495 118.762 88.2264 118.827 87.482C118.887 86.9317 118.843 86.5703 118.879 86.5662Z" fill="#455A64"/>
<path d="M103.436 57.753C103.454 57.0644 103.522 56.3781 103.638 55.6996C103.687 55.0172 103.783 54.3392 103.925 53.6709C103.987 54.3561 103.959 55.0468 103.841 55.7243C103.794 56.4161 103.658 57.0984 103.436 57.753Z" fill="#263238"/>
<path d="M95.507 53.063C95.5039 53.112 95.4945 53.1603 95.4792 53.2067C95.4553 53.3176 95.4195 53.4531 95.3757 53.6174C95.2722 53.9952 95.133 54.5209 94.9539 55.178L93.3783 60.7426L93.3147 60.6276C95.5627 61.2026 98.2723 61.6708 101.165 62.2211C102.605 62.5003 103.994 62.8001 105.275 63.1287H105.231L113.3 61.2437L115.652 60.718L116.28 60.5825C116.353 60.5611 116.428 60.5501 116.503 60.5496C116.433 60.5786 116.362 60.6019 116.288 60.6194L115.668 60.7837L113.344 61.3874L105.291 63.3463H105.243C103.966 63.0219 102.581 62.7262 101.141 62.451C98.2564 61.9007 95.5388 61.4202 93.2868 60.8083L93.1953 60.7878L93.2232 60.6934C93.8916 58.4141 94.4526 56.5127 94.8545 55.1533C95.0494 54.5045 95.2086 53.987 95.324 53.6092C95.3744 53.4449 95.4181 53.308 95.4553 53.1985C95.4687 53.1519 95.486 53.1066 95.507 53.063Z" fill="#263238"/>
<path d="M190.317 59.375L188.634 56.4099L187.035 59.375H164.352V71.6173H199.676V59.375H190.317Z" fill="#C3E4EF"/>
<path d="M170.701 65.601C171.012 65.463 171.278 65.2339 171.464 64.9419C171.651 64.65 171.751 64.308 171.751 63.9583C171.77 63.7277 171.742 63.4956 171.67 63.2766C171.598 63.0575 171.482 62.8561 171.332 62.6849C171.181 62.5137 170.998 62.3763 170.793 62.2813C170.589 62.1862 170.368 62.1356 170.144 62.1325C169.919 62.1294 169.697 62.1739 169.49 62.2632C169.283 62.3525 169.097 62.4848 168.941 62.6518C168.786 62.8188 168.666 63.0169 168.588 63.2339C168.51 63.4509 168.476 63.6821 168.489 63.9131C168.48 64.2675 168.572 64.6169 168.755 64.9172C168.938 65.2175 169.202 65.4554 169.515 65.601C167.001 65.9706 167.092 68.7878 167.092 68.7878L173.029 68.8658C173.029 68.8658 173.188 66.0116 170.701 65.601Z" fill="#FAFAFA"/>
<path d="M195.635 63.0015C195.635 63.0385 191.123 63.0673 185.565 63.0673C180.006 63.0673 175.494 63.0385 175.494 63.0015C175.494 62.9646 180.002 62.9399 185.565 62.9399C191.127 62.9399 195.635 62.9687 195.635 63.0015Z" fill="#FAFAFA"/>
<path d="M195.635 64.8699C195.635 64.9028 191.123 64.9316 185.565 64.9316C180.006 64.9316 175.494 64.9028 175.494 64.8699C175.494 64.8371 180.002 64.8083 185.565 64.8083C191.127 64.8083 195.635 64.8371 195.635 64.8699Z" fill="#FAFAFA"/>
<path d="M195.635 66.7264C195.635 66.7634 191.123 66.7921 185.565 66.7921C180.006 66.7921 175.494 66.7634 175.494 66.7264C175.494 66.6894 180.002 66.6648 185.565 66.6648C191.127 66.6648 195.635 66.7018 195.635 66.7264Z" fill="#FAFAFA"/>
<path d="M185.574 68.5826C185.574 68.6196 183.318 68.6483 180.541 68.6483C177.764 68.6483 175.504 68.6196 175.504 68.5826C175.504 68.5456 177.76 68.521 180.541 68.521C183.322 68.521 185.574 68.5497 185.574 68.5826Z" fill="#FAFAFA"/>
<path d="M43.8127 122.521C43.7008 122.54 43.5877 122.548 43.4744 122.546L42.5036 122.566L38.9426 122.603L27.1891 122.636H26.2422V122.521C26.2422 118.004 26.2661 113.93 26.278 110.969C26.278 109.519 26.3019 108.341 26.3098 107.499C26.3098 107.109 26.3098 106.792 26.3297 106.558C26.3276 106.448 26.3356 106.338 26.3536 106.23C26.362 106.339 26.362 106.449 26.3536 106.558C26.3536 106.792 26.3536 107.109 26.3735 107.499C26.3735 108.341 26.3934 109.519 26.4093 110.969C26.4093 113.93 26.4093 117.991 26.4451 122.521L26.3337 122.406H27.1692L38.9227 122.443L42.4837 122.476L43.4545 122.501C43.5742 122.498 43.694 122.505 43.8127 122.521Z" fill="#263238"/>
<path d="M41.8706 110.184C41.7099 110.369 41.5357 110.54 41.3494 110.697L39.8772 112.032C38.6239 113.153 36.8891 114.689 34.9594 116.373L34.665 116.628L34.5933 116.693L34.5217 116.623L32.3334 114.525H32.4687L29.2577 117.26L28.3267 118.028C28.2189 118.126 28.1016 118.213 27.9766 118.287C28.0676 118.172 28.1703 118.067 28.2829 117.975L29.1782 117.153L32.3373 114.357L32.405 114.295L32.4726 114.357L34.6689 116.443H34.5257L34.8162 116.188C36.7459 114.504 38.4966 112.989 39.7738 111.901L41.2937 110.619C41.4752 110.46 41.668 110.314 41.8706 110.184Z" fill="#263238"/>
<path d="M41.8702 113.954C41.8103 113.583 41.785 113.206 41.7946 112.829C41.7747 112.135 41.7627 111.186 41.7588 110.09L41.8702 110.205H41.6832C40.597 110.205 39.6142 110.205 38.898 110.172C38.5117 110.184 38.1251 110.157 37.7441 110.09C38.1257 110.028 38.5119 110.002 38.898 110.012C39.6102 109.987 40.593 109.975 41.6832 109.975H41.9816V110.09C41.9816 111.166 41.9816 112.143 41.9458 112.829C41.9553 113.206 41.93 113.583 41.8702 113.954Z" fill="#263238"/>
<path d="M10.0782 61.7732C10.625 61.8472 11.1601 61.9949 11.6697 62.2127L12.8634 61.1901L14.8926 62.7835L14.2559 64.2332C14.5983 64.686 14.8794 65.1847 15.0915 65.7157L16.6273 65.8553L16.9695 68.4672L15.5252 69.0217C15.4559 69.5861 15.314 70.1385 15.1034 70.6644L16.0942 71.8964L14.5464 73.9908L13.1498 73.3502C12.7083 73.7026 12.2241 73.9939 11.7095 74.2167L11.5742 75.8019L9.04767 76.1551L8.50655 74.6644C7.9597 74.5904 7.42462 74.4427 6.91502 74.2249L5.72137 75.2475L3.69218 73.6541L4.32879 72.2044C3.98646 71.7516 3.70537 71.2528 3.49324 70.7219L1.95741 70.5822L1.61523 67.9703L3.05955 67.4159C3.12799 66.8446 3.26982 66.2853 3.4813 65.7527L2.49058 64.5207L4.03834 62.4262L5.43888 63.0874C5.88037 62.735 6.36458 62.4437 6.87921 62.2209L7.01449 60.6357L9.54104 60.2825L10.0822 61.7732H10.0782ZM9.03971 65.3954C8.50324 65.4702 8.00031 65.7076 7.59451 66.0774C7.18871 66.4472 6.89826 66.933 6.75988 67.4732C6.6215 68.0134 6.64141 68.5838 6.81709 69.1123C6.99277 69.6408 7.31633 70.1037 7.74686 70.4424C8.17739 70.7812 8.69556 70.9805 9.23586 71.0154C9.77616 71.0502 10.3143 70.9188 10.7823 70.638C11.2503 70.3571 11.6271 69.9393 11.8651 69.4375C12.1031 68.9356 12.1915 68.3721 12.1193 67.8184C12.0713 67.4505 11.9536 67.096 11.7728 66.7752C11.5921 66.4543 11.3519 66.1733 11.0659 65.9483C10.7799 65.7233 10.4537 65.5587 10.1061 65.4638C9.75843 65.3689 9.39607 65.3457 9.03971 65.3954Z" fill="#C3E4EF"/>
<path d="M9.04042 65.3951C9.09487 65.3724 9.15281 65.3599 9.21151 65.3581C9.37938 65.338 9.54895 65.338 9.71682 65.3581C10.349 65.4151 10.9424 65.6967 11.3959 66.1549C11.6646 66.426 11.8782 66.7499 12.024 67.1075C12.1698 67.465 12.2449 67.8491 12.2449 68.237C12.2449 68.6249 12.1698 69.009 12.024 69.3665C11.8782 69.7241 11.6646 70.0479 11.3959 70.3191C10.9619 70.7553 10.4038 71.0362 9.80353 71.1205C9.20331 71.2048 8.59273 71.088 8.06163 70.7873C7.73235 70.6008 7.44247 70.3483 7.20898 70.0447C6.97549 69.741 6.80311 69.3923 6.70193 69.0189C6.60076 68.6456 6.57283 68.2552 6.61979 67.8705C6.66676 67.4859 6.78766 67.1148 6.97541 66.7791C7.29429 66.2124 7.79337 65.7771 8.3879 65.5471C8.54686 65.4845 8.71249 65.4418 8.88127 65.4198C8.93915 65.4089 8.99846 65.4089 9.05634 65.4198C9.05634 65.4444 8.81761 65.469 8.41973 65.6415C7.86511 65.8926 7.40635 66.3257 7.11467 66.8735C6.81487 67.4435 6.72166 68.105 6.85178 68.7395C6.9819 69.3739 7.32682 69.9397 7.82465 70.3354C8.32248 70.731 8.94062 70.9306 9.56814 70.8982C10.1957 70.8659 10.7915 70.6038 11.2487 70.159C11.6252 69.7875 11.8857 69.3085 11.9967 68.7832C12.092 68.3375 12.0783 67.8744 11.9567 67.4356C11.8351 66.9968 11.6096 66.5961 11.3004 66.2699C10.874 65.8197 10.3136 65.5305 9.70886 65.4485C9.28313 65.3787 9.04042 65.4198 9.04042 65.3951Z" fill="#C3E4EF"/>
<path d="M10.0771 61.7732C10.0771 61.7732 10.0771 61.7444 10.0373 61.6828L9.9259 61.4077C9.82643 61.1407 9.68319 60.7711 9.50415 60.2947L9.53996 60.3194L7.01739 60.6931L7.06513 60.6438C7.02534 61.1243 6.98158 61.6582 6.93781 62.229V62.2619H6.902C6.39534 62.4842 5.91912 62.7741 5.48554 63.1243L5.44973 63.153L5.40994 63.1325L4.00542 62.4795L4.09693 62.4549L2.56111 64.5576V64.4426L3.55582 65.6746L3.59162 65.7157V65.769C3.38315 66.2953 3.24268 66.8476 3.17385 67.4118V67.4692L3.11814 67.4898L1.67383 68.0524L1.73749 67.9415C1.8489 68.7629 1.96429 69.6458 2.08365 70.5493L1.99214 70.459L3.52796 70.5986H3.59162L3.6155 70.6602C3.82785 71.1804 4.10614 71.6693 4.44309 72.114L4.48288 72.1674L4.45503 72.229C4.25609 72.6848 4.05714 73.1777 3.81444 73.6787L3.78261 73.5432L5.81578 75.1366H5.67652L6.87017 74.114L6.9219 74.0688L6.98555 74.0976C7.49608 74.3067 8.03128 74.4448 8.57708 74.5082C8.61687 74.5411 8.48557 74.4384 8.66462 74.5822V74.6027V74.652L8.69645 74.7464L8.76409 74.9312L8.89937 75.305C8.99088 75.5555 9.07841 75.8019 9.16993 76.0483L9.05056 75.9744L11.5811 75.6212L11.4856 75.7238C11.5333 75.19 11.5771 74.6643 11.6209 74.1386V74.0729L11.6806 74.0442C12.1857 73.8282 12.6607 73.5437 13.093 73.1982L13.1448 73.1571L13.2044 73.1859L14.605 73.8471L14.4777 73.8799L16.0254 71.7855V71.9169L15.0387 70.6848L14.9989 70.6397L15.0228 70.5822C15.2341 70.0566 15.376 69.5041 15.4445 68.9395V68.882H15.5002L16.9445 68.3276L16.8849 68.4302C16.7695 67.5103 16.6581 66.6438 16.5506 65.8183L16.6262 65.8923L15.0944 65.7485H15.0427V65.7033C14.8346 65.1767 14.5574 64.682 14.219 64.2331L14.1912 64.1962V64.1551L14.8358 62.7095L14.8557 62.7916L12.8384 61.1859H12.8981L11.7044 62.2003C11.3195 62.0323 10.9198 61.903 10.5108 61.8142L10.2084 61.7526C10.1368 61.7526 10.1049 61.7321 10.1089 61.728H10.2124C10.28 61.728 10.3835 61.7485 10.5187 61.7732C10.9273 61.8483 11.3273 61.9666 11.7124 62.1264H11.6766L12.8702 61.0914L12.9021 61.0668L12.9339 61.0914L14.971 62.6726L15.0148 62.7054L14.9909 62.7547L14.3583 64.2044V64.1305C14.7066 64.5872 14.9943 65.0899 15.2138 65.6253L15.1461 65.576L16.6819 65.7116H16.7496V65.7814C16.861 66.6027 16.9764 67.4734 17.0997 68.3892V68.4672L17.0281 68.4918L15.5878 69.0545L15.6474 68.9723C15.5788 69.552 15.4357 70.1196 15.2217 70.6602V70.5534C15.544 70.9641 15.8782 71.3748 16.2124 71.7855L16.2642 71.8512L16.2164 71.9169L14.6726 74.0154L14.6249 74.0852L14.5453 74.0483L13.1408 73.3912H13.2522C12.8057 73.7513 12.3146 74.0482 11.792 74.2742L11.8596 74.1797C11.8119 74.7013 11.7681 75.231 11.7243 75.7649V75.8553H11.6368L9.11025 76.2084H9.02271L8.99088 76.1263C8.89937 75.8799 8.81183 75.6294 8.72032 75.383L8.58504 75.0093L8.5174 74.8204L8.48557 74.7259L8.46568 74.6807V74.6561C8.64472 74.7998 8.5174 74.693 8.55719 74.7259C7.9957 74.6522 7.44595 74.5031 6.9219 74.2824L7.03728 74.2618L5.84364 75.2844L5.77599 75.3419L5.70437 75.2885L3.67518 73.691L3.60754 73.6376L3.64335 73.5555C3.86218 73.0586 4.08102 72.5616 4.28394 72.1099V72.2208C3.93736 71.7591 3.65109 71.2523 3.43247 70.7136L3.52 70.7793L1.98816 70.6397H1.90461V70.5534C1.78922 69.6499 1.67383 68.7629 1.56641 67.9456V67.8635L1.642 67.8348L3.08631 67.2803L3.02663 67.3625C3.09579 66.7834 3.24172 66.2168 3.46032 65.6787V65.7732C3.11416 65.3625 2.77597 64.9313 2.47358 64.5411L2.42583 64.4877L2.4696 64.4302L4.02134 62.3399L4.06112 62.2865L4.11683 62.3153L5.51737 62.9806H5.44177C5.88924 62.6285 6.37866 62.3373 6.89802 62.114L6.85823 62.1715C6.90996 61.6007 6.96168 61.0668 7.00545 60.5863V60.5411H7.04922L9.57975 60.2085H9.6076V60.2372C9.77471 60.7136 9.90734 61.0832 10.0055 61.3461C10.0453 61.4652 10.0771 61.5637 10.1049 61.6376C10.0989 61.6835 10.0896 61.7288 10.0771 61.7732Z" fill="#C3E4EF"/>
<path d="M4.73009 81.658L4.83751 81.6333C4.94324 81.6203 5.0501 81.6203 5.15582 81.6333C5.55234 81.6683 5.9249 81.8439 6.21021 82.1303C6.51377 82.4411 6.69841 82.8545 6.73016 83.2946C6.76192 83.7347 6.63866 84.1719 6.38304 84.5256C6.12743 84.8794 5.75666 85.126 5.33892 85.2201C4.92119 85.3143 4.48458 85.2495 4.10939 85.0379C3.79815 84.8655 3.54546 84.5989 3.38525 84.274C3.24887 84.0017 3.18103 83.6984 3.18799 83.392C3.19494 83.0855 3.27646 82.7858 3.42504 82.5204C3.62461 82.1642 3.93844 81.8911 4.31231 81.7483C4.41168 81.7119 4.51431 81.6858 4.61868 81.6703H4.73009C4.73009 81.6703 4.57889 81.7032 4.33221 81.8099C3.98266 81.9665 3.69308 82.2379 3.50859 82.582C3.37591 82.8341 3.30641 83.1165 3.30641 83.4034C3.30641 83.6903 3.37591 83.9726 3.50859 84.2247C3.65995 84.5241 3.89582 84.769 4.18499 84.927C4.49306 85.101 4.84705 85.1686 5.19504 85.1198C5.54304 85.071 5.86675 84.9085 6.11869 84.6559C6.35733 84.4251 6.52127 84.1239 6.58819 83.7935C6.64833 83.5141 6.64017 83.2237 6.56446 82.9484C6.48875 82.6731 6.34787 82.4216 6.15451 82.2165C5.88828 81.9364 5.54011 81.7546 5.16378 81.6991C4.88526 81.6457 4.73009 81.6744 4.73009 81.658Z" fill="#263238"/>
<path d="M5.38334 79.3829L5.35947 79.3295L5.28785 79.153C5.22419 78.9887 5.13665 78.7423 5.02525 78.4548H5.04514L3.45361 78.6889L3.48147 78.656C3.45759 78.9599 3.43372 79.2926 3.40587 79.654V79.6786H3.382C3.06332 79.8185 2.7637 80.0007 2.49074 80.2207H2.46687L1.58357 79.81H1.64325L0.660482 81.1529V81.0831L1.28118 81.847L1.30505 81.8716V81.9086C1.17283 82.2369 1.08448 82.5823 1.04245 82.9353V82.9722H1.01062L0.10345 83.3254L0.143238 83.2556C0.210878 83.7689 0.286473 84.3275 0.362071 84.8983L0.302391 84.8408L1.26526 84.9271H1.30505V84.964C1.43749 85.2924 1.61286 85.6005 1.82628 85.8798L1.85015 85.9127V85.9496L1.45227 86.8613V86.7751L2.72549 87.7772H2.59817C2.82894 87.5718 3.08358 87.3665 3.33823 87.1324L3.37006 87.1036H3.40985C3.72663 87.24 4.05994 87.3312 4.40057 87.3747L4.45628 87.4199V87.4404V87.4733L4.47617 87.5307L4.51994 87.6498L4.60349 87.8839C4.6592 88.04 4.71888 88.196 4.77458 88.348L4.69898 88.3028L6.29051 88.081L6.23083 88.1468C6.25868 87.81 6.29051 87.4774 6.31836 87.1488V87.1077H6.35417C6.67284 86.9739 6.97156 86.7941 7.24145 86.5739L7.27328 86.5492H7.31307L8.19239 86.9599L8.11281 86.9845C8.44305 86.5328 8.76932 86.0975 9.08364 85.6663V85.7484L8.46295 84.9846L8.43907 84.9517V84.9188C8.57125 84.5902 8.66089 84.245 8.70565 83.8922V83.8552H8.73748L9.64863 83.5061L9.60885 83.5677C9.53723 82.9928 9.46561 82.4466 9.39797 81.925L9.44571 81.9743L8.48284 81.8839H8.45101V81.8552C8.31826 81.5253 8.14438 81.2147 7.93377 80.9312V80.9106V80.8819C8.08496 80.5534 8.21626 80.2577 8.33165 79.9743V80.0277L7.0624 79.0174H7.09821L6.35019 79.6499C6.10869 79.5453 5.85827 79.4642 5.60218 79.4076L5.41119 79.3706L5.60615 79.3994C5.86662 79.4441 6.12149 79.5185 6.36611 79.6211H6.34224L7.07832 78.9723H7.09821L8.37939 79.962H8.40724V79.9948C8.2839 80.2782 8.15658 80.5739 8.00936 80.9065V80.8573C8.22816 81.1447 8.4088 81.4609 8.5465 81.7977L8.50273 81.769L9.46959 81.8511H9.50938V81.8963C9.57702 82.4137 9.65261 82.9558 9.72821 83.539V83.5841H9.68444L8.77727 83.9373L8.81706 83.888C8.77239 84.252 8.68142 84.6082 8.5465 84.9476V84.8819L9.1672 85.6457L9.20301 85.6868L9.17118 85.7279L8.20035 87.0461L8.16851 87.0872H8.12077L7.24145 86.6765H7.30909C7.02761 86.9022 6.71859 87.0886 6.38998 87.2309L6.43375 87.1693C6.40722 87.4979 6.37937 87.8305 6.35019 88.1673V88.2248H6.29847L4.70694 88.4507H4.65124L4.63134 88.3973L4.46423 87.9291L4.3767 87.695L4.33293 87.5759V87.5184V87.4897V87.465L4.38864 87.5102C4.03635 87.4625 3.6914 87.3687 3.3621 87.2309H3.42974L2.68968 87.8716L2.64592 87.9086L2.60215 87.8757L1.32892 86.9024L1.28516 86.8654L1.30903 86.8162L1.70691 85.9045V85.9784C1.48929 85.6879 1.31001 85.3689 1.17375 85.0297L1.22548 85.0708L0.2626 84.9804H0.210877V84.9271C0.139258 84.3603 0.0676399 83.8059 0 83.2844V83.2351H0.0477439L0.954917 82.886L0.915126 82.9353C0.960678 82.5724 1.05301 82.2175 1.18967 81.8798V81.9373L0.576927 81.1529L0.545096 81.1201L0.572951 81.0831L1.54776 79.769L1.57163 79.7402H1.60744L2.48676 80.1509H2.43901C2.72023 79.9293 3.02777 79.7457 3.35414 79.6047L3.33027 79.6417L3.42178 78.6478V78.615H3.44964L5.04116 78.4055L5.27989 79.1037L5.33957 79.2844C5.35894 79.3147 5.37369 79.348 5.38334 79.3829Z" fill="#263238"/>
<defs>
<filter id="filter0_d_4011_1700" x="20.9126" y="10.6138" width="91.5428" height="92.6775" filterUnits="userSpaceOnUse" color-interpolation-filters="sRGB">
<feFlood flood-opacity="0" result="BackgroundImageFix"/>
<feColorMatrix in="SourceAlpha" type="matrix" values="0 0 0 0 0 0 0 0 0 0 0 0 0 0 0 0 0 0 127 0" result="hardAlpha"/>
<feOffset dx="1.26506" dy="1.26506"/>
<feGaussianBlur stdDeviation="2.08735"/>
<feComposite in2="hardAlpha" operator="out"/>
<feColorMatrix type="matrix" values="0 0 0 0 0 0 0 0 0 0 0 0 0 0 0 0 0 0 0.25 0"/>
<feBlend mode="normal" in2="BackgroundImageFix" result="effect1_dropShadow_4011_1700"/>
<feBlend mode="normal" in="SourceGraphic" in2="effect1_dropShadow_4011_1700" result="shape"/>
</filter>
<linearGradient id="paint0_linear_4011_1700" x1="91.0841" y1="127.454" x2="90.9031" y2="143.576" gradientUnits="userSpaceOnUse">
<stop offset="0.541331" stop-color="#C3E4EF"/>
<stop offset="1" stop-color="#BEC7C4" stop-opacity="0"/>
</linearGradient>
</defs>
</svg>
