<svg width="228" height="207" viewBox="0 0 228 207" fill="none" xmlns="http://www.w3.org/2000/svg">
<path d="M51.2824 192.52C91.7211 211.827 157.251 211.827 197.69 192.52C238.129 173.214 238.078 141.94 197.69 122.633C157.302 103.327 91.7413 103.332 51.3228 122.633C10.9042 141.935 10.8941 173.224 51.2824 192.52Z" fill="white"/>
<path d="M48.297 160.371C48.0345 160.326 47.7568 160.245 47.4438 160.164C46.3889 159.88 45.3492 159.543 44.3289 159.152C42.2938 158.412 40.3745 157.385 38.6291 156.102C37.6719 155.42 36.8529 154.562 36.2159 153.573C35.5792 152.572 35.3531 151.364 35.5848 150.2C35.7131 149.625 36.0027 149.099 36.4196 148.684C36.8365 148.269 37.3631 147.983 37.9374 147.858C38.4776 147.772 39.038 147.858 39.5782 147.762C39.8548 147.739 40.1171 147.629 40.3269 147.447C40.5366 147.265 40.6829 147.021 40.7444 146.75C40.7466 146.44 40.6627 146.135 40.5021 145.87C39.5212 144.07 38.6774 142.198 37.9778 140.271C37.3922 138.551 37.3569 136.691 37.8769 134.95C38.3184 133.218 39.2638 131.656 40.593 130.463C41.1988 129.957 42.0368 129.522 42.7689 129.841C43.0016 129.96 43.206 130.127 43.3681 130.333C43.5302 130.538 43.6461 130.776 43.7079 131.03C43.8209 131.538 43.8785 132.057 43.8796 132.577C43.9517 133.698 44.1654 134.804 44.5157 135.87C44.6724 136.536 45.0541 137.128 45.5961 137.544C46.5351 138.131 47.8275 137.671 48.8271 138.146C49.8267 138.622 50.17 139.714 50.2155 140.746C50.2609 141.778 50.0539 142.82 50.17 143.847C50.1904 144.171 50.2929 144.484 50.4679 144.757C50.7458 145.056 51.0676 145.31 51.4221 145.511C51.8878 145.897 52.2611 146.383 52.5145 146.932C52.7679 147.482 52.8949 148.082 52.8861 148.687C52.8555 149.897 52.6252 151.093 52.2046 152.228C51.7411 153.814 51.4035 155.434 51.1949 157.073C51.0303 158.078 50.6055 159.021 49.963 159.81C49.7725 160.059 49.5122 160.245 49.2155 160.345C48.9187 160.445 48.599 160.454 48.297 160.371Z" fill="#C3E4EF"/>
<path d="M49.9726 159.531C49.9429 159.531 49.9137 159.523 49.8881 159.508C49.8624 159.493 49.8411 159.471 49.8262 159.445C43.9346 149.491 42.0717 142.481 41.5416 138.348C40.961 133.847 41.7788 131.738 41.8142 131.652C41.8225 131.63 41.8349 131.611 41.8506 131.594C41.8664 131.578 41.8853 131.565 41.9061 131.556C41.927 131.546 41.9494 131.542 41.9722 131.541C41.995 131.541 42.0176 131.545 42.0388 131.553C42.0601 131.561 42.0794 131.574 42.0959 131.589C42.1123 131.605 42.1255 131.624 42.1346 131.645C42.1437 131.666 42.1487 131.688 42.1491 131.711C42.1496 131.734 42.1456 131.757 42.1373 131.778C42.1373 131.813 41.3194 133.933 41.8899 138.353C42.3948 142.445 44.2829 149.395 50.1241 159.273C50.1359 159.293 50.1437 159.315 50.147 159.337C50.1504 159.36 50.1492 159.383 50.1435 159.405C50.1379 159.427 50.1279 159.448 50.1142 159.466C50.1004 159.484 50.0832 159.5 50.0635 159.511C50.0351 159.525 50.0041 159.532 49.9726 159.531Z" fill="white"/>
<path d="M46.819 153.76C39.64 152.971 37.6105 150.609 37.5247 150.508C37.4926 150.476 37.4746 150.432 37.4746 150.386C37.4746 150.341 37.4926 150.297 37.5247 150.265C37.5402 150.248 37.559 150.235 37.5799 150.226C37.6007 150.217 37.6231 150.213 37.6458 150.213C37.6685 150.213 37.691 150.217 37.7118 150.226C37.7326 150.235 37.7514 150.248 37.767 150.265C37.767 150.29 39.8167 152.622 46.8291 153.396C46.8702 153.403 46.9075 153.424 46.9344 153.456C46.9613 153.488 46.9761 153.529 46.9761 153.57C46.9761 153.612 46.9613 153.653 46.9344 153.685C46.9075 153.716 46.8702 153.738 46.8291 153.745L46.819 153.76Z" fill="white"/>
<path d="M44.7962 149.279C44.7579 149.279 44.7207 149.267 44.6901 149.244C44.6721 149.23 44.657 149.212 44.6457 149.193C44.6345 149.173 44.6272 149.151 44.6244 149.129C44.6216 149.106 44.6232 149.083 44.6293 149.061C44.6354 149.039 44.6458 149.019 44.6598 149.001C46.9367 146.001 47.0831 141.085 47.0882 141.034C47.0881 141.012 47.0928 140.989 47.1018 140.968C47.1108 140.947 47.1239 140.928 47.1405 140.913C47.1571 140.897 47.1766 140.885 47.198 140.877C47.2194 140.869 47.2422 140.866 47.2649 140.867C47.2876 140.867 47.3102 140.872 47.3311 140.881C47.352 140.89 47.3708 140.903 47.3864 140.92C47.402 140.936 47.4141 140.956 47.4218 140.978C47.4296 140.999 47.4329 141.022 47.4315 141.045C47.4315 141.252 47.28 146.103 44.9375 149.208C44.9211 149.23 44.8997 149.248 44.8752 149.26C44.8506 149.273 44.8236 149.279 44.7962 149.279Z" fill="white"/>
<path d="M191.935 129.629C192.631 124.925 192.642 119.184 189.193 110.798C185.745 102.411 186.816 98.0159 190.511 96.8172C194.207 95.6184 202.395 101.986 202.092 112.694C201.795 123.033 194.823 131.571 194.823 131.571L191.935 129.629Z" fill="#C3E4EF"/>
<path opacity="0.1" d="M191.935 129.629C192.631 124.925 192.642 119.184 189.193 110.798C185.745 102.411 186.816 98.0159 190.511 96.8172C194.207 95.6184 202.395 101.986 202.092 112.694C201.795 123.033 194.823 131.571 194.823 131.571L191.935 129.629Z" fill="black"/>
<path d="M193.736 131.014C193.714 131.019 193.692 131.019 193.67 131.014C193.649 131.006 193.629 130.994 193.613 130.977C193.596 130.961 193.584 130.942 193.575 130.92C193.567 130.899 193.563 130.876 193.563 130.853C193.564 130.83 193.569 130.808 193.579 130.787C193.615 130.701 197.391 121.864 197.113 113.842C196.8 104.612 191.696 99.5333 191.646 99.4827C191.629 99.4668 191.617 99.4478 191.608 99.4268C191.599 99.4059 191.594 99.3833 191.594 99.3606C191.594 99.3378 191.598 99.3152 191.606 99.294C191.615 99.2729 191.627 99.2537 191.643 99.2374C191.659 99.2211 191.678 99.2081 191.699 99.1992C191.72 99.1903 191.742 99.1855 191.765 99.1853C191.788 99.1851 191.81 99.1893 191.832 99.1978C191.853 99.2063 191.872 99.2189 191.888 99.2349C191.939 99.2854 197.139 104.45 197.441 113.832C197.719 121.925 193.907 130.837 193.877 130.923C193.863 130.949 193.843 130.971 193.818 130.987C193.793 131.003 193.765 131.012 193.736 131.014Z" fill="white"/>
<path d="M192.135 133.802C192.135 133.802 194.083 122.431 201 115.896C207.916 109.361 219.447 108.117 223.062 111.607C226.677 115.097 224.36 118.491 219.266 119.67C213.51 121 209.981 123.327 213.51 125.107C216.787 126.756 216.418 130.332 213.005 132.047C207.553 134.788 197.708 132.178 195.336 137.57L192.135 133.802Z" fill="#C3E4EF"/>
<path d="M193.599 136.209H193.543C193.5 136.193 193.465 136.161 193.445 136.119C193.425 136.078 193.422 136.03 193.437 135.986C195.031 131.54 197.488 127.454 200.666 123.963C203.157 121.264 206.074 118.993 209.299 117.241C212.504 115.469 215.993 114.271 219.609 113.701C219.655 113.696 219.701 113.71 219.737 113.74C219.772 113.769 219.795 113.811 219.8 113.857C219.803 113.88 219.802 113.903 219.795 113.925C219.789 113.947 219.779 113.967 219.765 113.985C219.751 114.003 219.733 114.018 219.713 114.029C219.693 114.04 219.672 114.047 219.649 114.05C216.07 114.626 212.618 115.824 209.451 117.59C204.402 120.337 197.552 125.784 193.75 136.128C193.733 136.153 193.711 136.173 193.684 136.187C193.658 136.202 193.628 136.209 193.599 136.209Z" fill="white"/>
<path d="M197.108 129.057C197.071 129.057 197.036 129.046 197.006 129.025C196.976 129.004 196.953 128.975 196.941 128.941C196.926 128.897 196.929 128.849 196.949 128.808C196.969 128.766 197.004 128.734 197.047 128.718C202.949 126.654 211.41 127.737 211.496 127.747C211.518 127.75 211.54 127.757 211.56 127.769C211.579 127.78 211.597 127.795 211.611 127.813C211.624 127.832 211.635 127.852 211.64 127.874C211.646 127.896 211.648 127.919 211.645 127.942C211.642 127.964 211.634 127.986 211.623 128.006C211.612 128.026 211.596 128.043 211.578 128.057C211.56 128.071 211.54 128.081 211.518 128.087C211.496 128.092 211.473 128.094 211.45 128.091C211.37 128.091 202.984 127.009 197.163 129.047C197.146 129.055 197.127 129.059 197.108 129.057Z" fill="white"/>
<g filter="url(#filter0_d_3487_3360)">
<path d="M55.5466 12.4549C55.5044 11.6737 55.279 10.9135 54.8886 10.236C54.4983 9.55839 53.954 8.98256 53.3 8.55517L51.4674 7.49299C50.7712 7.13889 50.0015 6.95435 49.2208 6.95435C48.44 6.95435 47.6703 7.13889 46.9742 7.49299L32.4798 15.8741C31.7896 16.3087 31.2255 16.9175 30.8441 17.6394C30.5157 18.2129 30.3095 18.8484 30.2383 19.5058C30.2383 19.5968 30.2383 19.6879 30.2383 19.7789V36.5412C30.281 37.3228 30.5072 38.0833 30.8985 38.7609C31.2897 39.4385 31.835 40.0141 32.4899 40.4409L34.3175 41.5031L34.5497 41.6245L34.6356 41.6599L34.7921 41.7257L34.9132 41.7712L35.0445 41.8167L35.1909 41.8572L35.302 41.8875L35.4736 41.928H35.5594L35.7664 41.9634H35.8068C36.8418 42.1334 37.904 41.9649 38.8359 41.4829L53.3 33.122C53.9551 32.694 54.5003 32.1175 54.8915 31.4391C55.2827 30.7607 55.5088 29.9995 55.5516 29.2172L55.5466 12.4549Z" fill="#C3E4EF"/>
<path opacity="0.4" d="M37.215 21.2204C36.9554 21.6512 36.7614 22.1183 36.6395 22.6063C36.9409 21.3422 37.7164 20.2427 38.8053 19.5361L53.2996 11.155C54.5416 10.4368 55.5513 11.0184 55.5513 12.4549C55.5085 11.6733 55.2823 10.9128 54.8911 10.2352C54.4999 9.55758 53.9546 8.982 53.2996 8.55517L51.467 7.49299C50.7709 7.13889 50.0011 6.95435 49.2204 6.95435C48.4397 6.95435 47.67 7.13889 46.9738 7.49299L32.4795 15.8741C31.7892 16.3087 31.2251 16.9175 30.8438 17.6394L30.8892 17.5584L37.215 21.2204Z" fill="black"/>
<path opacity="0.1" d="M38.3412 41.7154L38.2352 41.7458L38.0534 41.7812H37.8818H37.7051C37.4963 41.7658 37.2964 41.6903 37.1295 41.5637L37.0488 41.4878L37.0033 41.4474L36.9427 41.3715L36.8922 41.3057L36.8418 41.2248L36.7963 41.1439C36.7963 41.1439 36.7963 41.0882 36.761 41.0579C36.7454 41.0268 36.7319 40.9947 36.7206 40.9618L36.6398 40.8809V40.7797C36.6398 40.7494 36.6398 40.719 36.6398 40.6887C36.637 40.6398 36.637 40.5908 36.6398 40.542C36.6371 40.5151 36.6371 40.488 36.6398 40.4611C36.6398 40.3852 36.6398 40.3043 36.6398 40.2183V23.4408C36.6401 23.2595 36.6553 23.0785 36.6853 22.8996C36.6853 22.8339 36.6853 22.7631 36.7256 22.6973V22.6164C36.8413 22.1294 37.0284 21.6624 37.281 21.2305L30.8895 17.5583L30.8441 17.6393C30.5157 18.2129 30.3095 18.8483 30.2383 19.5057C30.2383 19.5967 30.2383 19.6878 30.2383 19.7788V36.5411C30.281 37.3227 30.5072 38.0832 30.8985 38.7608C31.2897 39.4384 31.835 40.014 32.4899 40.4408L34.3175 41.503L34.5497 41.6244L34.6356 41.6598L34.7921 41.7256L34.9132 41.7711L35.0445 41.8166L35.1909 41.8571L35.302 41.8874L35.4736 41.9279H35.5594L35.7664 41.9633H35.8068C36.659 42.093 37.5301 42.0078 38.3412 41.7154Z" fill="black"/>
<path d="M49.2177 27.826C50.1858 25.6594 50.6815 23.3108 50.6716 20.937C51.1446 20.2018 51.5421 19.4206 51.8581 18.6052C51.4505 19.084 50.9917 19.5165 50.4899 19.895C50.9991 19.182 51.355 18.3707 51.5349 17.5127C51.098 18.1213 50.5895 18.6749 50.0204 19.1616C49.7687 18.974 49.4633 18.8727 49.1495 18.8727C48.8358 18.8727 48.5304 18.974 48.2786 19.1616C46.7641 20.0518 45.613 22.6213 45.9614 24.4118C43.9823 25.4234 42.2254 25.1705 41.0542 23.906C40.4282 25.6966 40.7311 27.3961 41.7913 27.7248C41.4668 27.92 41.0863 28.0002 40.7109 27.9524C40.7109 29.4698 41.4732 30.3651 42.6192 30.006C42.3154 30.3091 41.9481 30.5406 41.5439 30.6838C41.8468 31.7712 42.7253 32.2012 43.7703 31.6094C42.9568 33.0587 41.7249 34.2276 40.2363 34.9629C41.2864 35.2562 42.5385 35.059 43.8864 34.28C46.239 32.9194 48.0464 30.4562 49.2025 27.7906" fill="black"/>
<path d="M55.5454 73.4898C55.5001 72.7122 55.2733 71.956 54.883 71.2822C54.4928 70.6084 53.9502 70.0357 53.2988 69.6103L51.4662 68.5482C50.7701 68.1941 50.0004 68.0095 49.2196 68.0095C48.4389 68.0095 47.6692 68.1941 46.973 68.5482L32.4837 76.9293C31.7935 77.3639 31.2294 77.9726 30.848 78.6946C30.5197 79.2681 30.3134 79.9036 30.2422 80.561C30.2422 80.652 30.2422 80.743 30.2422 80.8341V97.5964C30.2864 98.3731 30.5117 99.1287 30.9001 99.8025C31.2885 100.476 31.8292 101.049 32.4787 101.476L34.3063 102.538L34.5385 102.654L34.6243 102.695L34.7808 102.761L34.902 102.806L35.0332 102.852L35.1797 102.892L35.2907 102.922L35.4624 102.963H35.5482L35.7552 102.998H35.7956C36.8333 103.161 37.8956 102.983 38.8247 102.493L53.2988 94.1569C53.9539 93.729 54.4992 93.1525 54.8903 92.4741C55.2815 91.7956 55.5077 91.0344 55.5505 90.2521L55.5454 73.4898Z" fill="#C3E4EF"/>
<path opacity="0.4" d="M37.2158 82.2554C36.9633 82.6873 36.7761 83.1543 36.6605 83.6413C36.9569 82.3804 37.7249 81.2814 38.8061 80.5711L53.3004 72.1899C54.5424 71.4717 55.5521 72.0534 55.5521 73.4898C55.5062 72.7117 55.2786 71.9553 54.8875 71.2814C54.4964 70.6076 53.9528 70.0352 53.3004 69.6103L51.4678 68.5482C50.7717 68.1941 50.002 68.0095 49.2212 68.0095C48.4405 68.0095 47.6708 68.1941 46.9746 68.5482L32.4853 76.9293C31.7951 77.3639 31.231 77.9726 30.8496 78.6945L30.895 78.6136L37.2158 82.2554Z" fill="black"/>
<path opacity="0.1" d="M38.3413 102.75L38.2353 102.781C38.1759 102.799 38.1151 102.813 38.0535 102.821H37.8819H37.7052C37.4964 102.806 37.2965 102.73 37.1296 102.604L37.0489 102.528L37.0034 102.487L36.9428 102.407L36.8924 102.346L36.8419 102.265L36.7964 102.184C36.7964 102.154 36.7964 102.128 36.7611 102.098C36.7446 102.066 36.7311 102.032 36.7207 101.997L36.6904 101.911L36.6601 101.789C36.6601 101.789 36.6601 101.734 36.6601 101.703C36.6573 101.655 36.6573 101.606 36.6601 101.557C36.6574 101.53 36.6574 101.503 36.6601 101.476C36.6601 101.4 36.6601 101.314 36.6601 101.228V84.4759C36.6604 84.2945 36.6756 84.1135 36.7056 83.9347C36.7056 83.8639 36.7056 83.7981 36.746 83.7323V83.6514C36.8616 83.1645 37.0488 82.6974 37.3013 82.2655L30.9755 78.6035L30.93 78.6844C30.6017 79.258 30.3954 79.8935 30.3242 80.5509C30.3242 80.6419 30.3242 80.7329 30.3242 80.824V97.5863C30.3578 98.3577 30.57 99.1107 30.9441 99.7858C31.3183 100.461 31.8441 101.04 32.4799 101.476L34.3075 102.538L34.5397 102.654L34.6256 102.695L34.7821 102.761L34.9032 102.806L35.0345 102.852L35.1809 102.892L35.292 102.922L35.4636 102.963H35.5495L35.7564 102.998H35.7968C36.6523 103.13 37.5271 103.045 38.3413 102.75Z" fill="black"/>
<path d="M46.0493 81.2443C47.5336 80.3844 47.7103 80.2934 48.2959 79.9899C48.6042 79.8045 48.9485 79.6872 49.3056 79.6459C49.5339 79.6227 49.7623 79.6899 49.9418 79.8331C50.1436 79.9866 50.2905 80.2012 50.3608 80.4451C50.4909 80.8556 50.5556 81.284 50.5526 81.7147C50.5779 82.4784 50.5829 82.7263 50.5829 84.6939C50.5829 86.6614 50.5829 86.9093 50.5526 87.7287C50.5438 88.2299 50.4794 88.7287 50.3608 89.2157C50.2694 89.5967 50.1286 89.964 49.9418 90.3082C49.7743 90.6453 49.5601 90.9569 49.3056 91.2339C49.0088 91.5614 48.6692 91.8472 48.2959 92.0836C47.7103 92.4579 47.5336 92.5894 46.0493 93.424C44.5651 94.2586 44.3934 94.38 43.8078 94.6834C43.4991 94.8671 43.1549 94.9826 42.7981 95.0223C42.5682 95.0458 42.3382 94.9787 42.1569 94.8352C41.958 94.68 41.8131 94.4658 41.7429 94.2232C41.6131 93.8144 41.5484 93.3876 41.5511 92.9587C41.5511 92.1898 41.5158 91.947 41.5158 89.9795C41.5158 88.0119 41.5158 87.759 41.5511 86.9447C41.5586 86.4333 41.6229 85.9244 41.7429 85.4273C41.8357 85.0474 41.9747 84.6805 42.1569 84.3347C42.3286 83.999 42.5442 83.6877 42.7981 83.4091C43.0938 83.0804 43.4336 82.7944 43.8078 82.5594C44.3934 82.1851 44.5701 82.0536 46.0493 81.219M46.0493 79.8837C44.5348 80.7537 44.353 80.8953 43.7623 81.2493C43.2636 81.5617 42.8101 81.9413 42.4144 82.3773C42.0133 82.8016 41.6735 83.28 41.4047 83.7986C41.1232 84.3317 40.9078 84.8974 40.7635 85.4829C40.6064 86.1223 40.5201 86.777 40.506 87.4353C40.506 88.2395 40.4707 88.4975 40.4707 90.5106C40.4707 92.5237 40.4707 92.7766 40.506 93.5454C40.5061 94.1067 40.593 94.6646 40.7635 95.1994C40.8754 95.5716 41.0993 95.9002 41.4047 96.1401C41.6911 96.364 42.0532 96.4674 42.4144 96.4285C42.8895 96.3813 43.3491 96.233 43.7623 95.9935C44.353 95.6849 44.5398 95.5838 46.0493 94.7138C47.5588 93.8438 47.7456 93.7022 48.3414 93.3431C49.3337 92.728 50.1401 91.8537 50.6738 90.8141C50.9546 90.2812 51.1683 89.7154 51.3099 89.1297C51.469 88.4923 51.557 87.8392 51.5724 87.1824C51.5724 86.3731 51.6027 86.1151 51.6027 84.1021C51.6027 82.089 51.6027 81.8411 51.5724 81.0672C51.5717 80.5072 51.4832 79.9508 51.3099 79.4183C51.1989 79.0456 50.9769 78.7156 50.6738 78.4725C50.3871 78.2495 50.0247 78.1478 49.6641 78.1892C49.1885 78.2339 48.7284 78.3824 48.3161 78.6242C47.7204 78.9277 47.5336 79.0289 46.0241 79.9039M46.0241 83.5103C44.4489 84.4207 43.1717 86.8637 43.1717 88.9679C43.1717 91.072 44.4489 92.0381 46.0241 91.1276C47.5992 90.2172 48.8765 87.7742 48.8765 85.67C48.8765 83.5659 47.5992 82.5998 46.0241 83.5103ZM46.0241 89.7923C45.0144 90.3841 44.1763 89.7569 44.1763 88.3913C44.1763 87.0256 45.0043 85.4374 46.0241 84.8507C47.0439 84.2639 47.8769 84.8861 47.8769 86.2568C47.8769 87.6275 47.0489 89.2056 46.0241 89.7974M49.654 81.2645C49.654 80.7587 49.3561 80.5463 48.9876 80.7587C48.7841 80.9047 48.6178 81.0966 48.502 81.3189C48.3862 81.5412 48.3243 81.7877 48.3212 82.0384C48.3212 82.5442 48.619 82.7516 48.9876 82.5442C49.1904 82.3987 49.3563 82.2076 49.472 81.9863C49.5878 81.7649 49.6501 81.5194 49.654 81.2696" fill="black"/>
<path d="M80.7694 34.4623C80.7298 33.6828 80.5077 32.9236 80.1209 32.2461C79.7341 31.5686 79.1935 30.9919 78.543 30.5626L76.7104 29.5004C76.0133 29.1462 75.2428 28.9617 74.4612 28.9617C73.6797 28.9617 72.9092 29.1462 72.2121 29.5004L57.7228 37.8815C57.1101 38.2888 56.5928 38.8244 56.2067 39.4514C55.8205 40.0783 55.5748 40.7818 55.4863 41.5132C55.4863 41.6042 55.4863 41.6952 55.4863 41.7863V58.5486C55.5281 59.3298 55.7534 60.0902 56.1438 60.7678C56.5341 61.4454 57.0786 62.0212 57.7329 62.4483L59.5655 63.5105L59.7978 63.6319L59.8836 63.6673L60.0401 63.733L60.1562 63.7785L60.2925 63.8241L60.4339 63.8645L60.55 63.8949L60.7217 63.9353H60.8075L61.0145 63.9708H61.0549C62.0899 64.1404 63.1519 63.9719 64.084 63.4902L78.543 55.1293C79.1974 54.7012 79.7419 54.1245 80.1322 53.446C80.5225 52.7676 80.7477 52.0065 80.7896 51.2246L80.7694 34.4623Z" fill="#C3E4EF"/>
<path opacity="0.4" d="M62.4429 43.2278C62.191 43.6606 62.0023 44.1273 61.8825 44.6137C62.1801 43.352 62.95 42.2529 64.0331 41.5435L78.5426 33.1624C79.7846 32.4441 80.7892 33.0258 80.7892 34.4623C80.7474 33.681 80.5222 32.9207 80.1318 32.243C79.7414 31.5654 79.1969 30.9896 78.5426 30.5626L76.71 29.5004C76.013 29.1462 75.2424 28.9617 74.4609 28.9617C73.6793 28.9617 72.9088 29.1462 72.2118 29.5004L57.7225 37.8815C57.0348 38.3177 56.4727 38.9262 56.0918 39.6468L56.1322 39.5658L62.4429 43.2278Z" fill="black"/>
<path opacity="0.1" d="M63.568 63.7229L63.457 63.7532C63.3993 63.7715 63.3402 63.785 63.2803 63.7937H63.1137H62.8915C62.6845 63.7777 62.4864 63.7021 62.321 63.5762L62.2403 63.5003L62.1948 63.4599L62.1292 63.379L62.0838 63.3183C62.064 63.2932 62.0471 63.2661 62.0333 63.2373L61.9878 63.1564C61.9878 63.1311 61.9878 63.1008 61.9475 63.0704L61.9121 62.9743L61.8818 62.8833C61.8818 62.8462 61.8717 62.8057 61.8515 62.7619C61.8487 62.7333 61.8487 62.7045 61.8515 62.6759C61.8487 62.627 61.8487 62.5781 61.8515 62.5292C61.8488 62.5023 61.8488 62.4752 61.8515 62.4483C61.8464 62.3674 61.8464 62.2863 61.8515 62.2055V45.4483C61.8543 45.2671 61.8695 45.0862 61.897 44.9071C61.897 44.8363 61.897 44.7705 61.9323 44.7048C61.9343 44.6778 61.9343 44.6508 61.9323 44.6238C62.0522 44.1374 62.2409 43.6707 62.4927 43.2379L56.1618 39.5759L56.1214 39.6569C55.7909 40.2295 55.5845 40.8654 55.5156 41.5233C55.5156 41.6143 55.5156 41.7053 55.5156 41.7964V58.5587C55.5574 59.3399 55.7827 60.1003 56.1731 60.7779C56.5634 61.4555 57.1079 62.0313 57.7622 62.4584L59.5948 63.5206L59.8271 63.642L59.9129 63.6774L60.0694 63.7431L60.1855 63.7887L60.3218 63.8342L60.4632 63.8746L60.5793 63.905L60.751 63.9455H60.8368L61.0438 63.9809H61.0842C61.9207 64.0989 62.7734 64.0103 63.568 63.7229Z" fill="black"/>
<path d="M69.7125 57.633L72.1307 56.2319V48.1391L73.817 47.1629L73.9937 44.3506L72.1307 45.428V43.8853C72.1307 43.248 72.2267 42.9394 72.6861 42.6764L73.9937 41.9177V39.1055L72.3226 40.0766C71.4958 40.5132 70.8108 41.1775 70.3484 41.9912C69.8859 42.8049 69.6653 43.7341 69.7125 44.6693V46.8493L68.4453 47.5625V50.3039L69.7024 49.5806L69.7125 57.633Z" fill="black"/>
</g>
<path d="M48.0337 163.184L105.956 196.678C106.636 197.025 107.388 197.205 108.152 197.205C108.915 197.205 109.667 197.025 110.348 196.678L200.676 144.434C201.888 143.731 201.888 142.598 200.676 141.905L142.754 108.39C142.075 108.044 141.323 107.863 140.561 107.863C139.798 107.863 139.047 108.044 138.367 108.39L48.0337 160.655C46.8221 161.343 46.8221 162.476 48.0337 163.184Z" fill="#E0E0E0"/>
<path d="M49.8576 155.091L106.139 187.65C106.826 187.999 107.586 188.181 108.357 188.181C109.128 188.181 109.889 187.999 110.576 187.65L199.809 136.043C201.036 135.335 201.036 134.187 199.809 133.478L143.523 100.92C142.835 100.571 142.075 100.389 141.304 100.389C140.533 100.389 139.773 100.571 139.085 100.92L49.8576 152.562C48.6308 153.245 48.6308 154.393 49.8576 155.091Z" fill="#37474F"/>
<path d="M106.135 187.659L49.8542 155.091C48.7586 154.459 48.6425 153.472 49.5058 152.764C48.9573 153.2 48.5068 153.747 48.184 154.369C47.8612 154.992 47.6734 155.675 47.6328 156.376V158.465C47.6748 159.237 47.8978 159.988 48.2838 160.658C48.6697 161.327 49.2077 161.896 49.8542 162.319L106.135 194.872C106.818 195.236 107.583 195.419 108.357 195.403V188.191C107.583 188.206 106.818 188.023 106.135 187.659Z" fill="#455A64"/>
<path d="M199.805 143.265C200.45 142.844 200.988 142.275 201.373 141.607C201.758 140.938 201.98 140.187 202.021 139.416V137.327C201.981 136.627 201.793 135.943 201.47 135.321C201.147 134.698 200.697 134.151 200.148 133.716C201.011 134.424 200.9 135.41 199.805 136.043L110.572 187.66C109.89 188.022 109.127 188.205 108.355 188.191V195.414C109.127 195.428 109.89 195.245 110.572 194.882L199.805 143.265Z" fill="#263238"/>
<path d="M80.0617 170.129C81.0165 170.615 82.0726 170.869 83.1438 170.869C84.215 170.869 85.271 170.615 86.2259 170.129C87.9273 169.117 87.9273 167.549 86.2259 166.563C85.2702 166.079 84.2145 165.827 83.1438 165.827C82.0731 165.827 81.0173 166.079 80.0617 166.563C78.3805 167.549 78.3805 169.147 80.0617 170.129Z" fill="#263238"/>
<path d="M114.898 180.751L61.0256 149.568C60.2936 149.143 60.2936 148.45 61.0256 148.025L131.2 107.419C131.613 107.21 132.068 107.101 132.53 107.101C132.993 107.101 133.448 107.21 133.861 107.419L187.734 138.602C188.471 139.027 188.471 139.715 187.734 140.12L117.559 180.73C117.148 180.943 116.693 181.055 116.231 181.059C115.769 181.062 115.312 180.957 114.898 180.751Z" fill="white"/>
<path d="M167.595 119.488C167.837 119.61 168.104 119.674 168.375 119.674C168.646 119.674 168.913 119.61 169.155 119.488C169.239 119.446 169.31 119.381 169.359 119.301C169.409 119.221 169.435 119.129 169.435 119.035C169.435 118.941 169.409 118.849 169.359 118.769C169.31 118.689 169.239 118.624 169.155 118.582C168.913 118.46 168.646 118.396 168.375 118.396C168.104 118.396 167.837 118.46 167.595 118.582C167.161 118.83 167.161 119.235 167.595 119.488Z" fill="#263238"/>
<path d="M170.085 126.579C170.569 126.824 171.103 126.951 171.645 126.951C172.187 126.951 172.721 126.824 173.205 126.579C174.068 126.073 174.068 125.269 173.205 124.773C172.722 124.526 172.187 124.398 171.645 124.398C171.103 124.398 170.568 124.526 170.085 124.773C169.222 125.249 169.222 126.078 170.085 126.579Z" fill="#263238"/>
<path d="M167.906 123.433C168.482 123.104 168.451 122.548 167.836 122.194L157.567 116.251C157.237 116.075 156.87 115.98 156.496 115.973C156.123 115.966 155.753 116.047 155.416 116.21C154.841 116.544 154.871 117.1 155.487 117.454L165.756 123.398C166.086 123.572 166.453 123.667 166.827 123.673C167.2 123.679 167.57 123.597 167.906 123.433Z" fill="#263238"/>
<path d="M130.289 115.806C129.552 116.23 129.552 116.918 130.289 117.323L171.334 141.07C171.747 141.28 172.203 141.389 172.667 141.389C173.13 141.389 173.586 141.28 173.999 141.07L183.087 135.825L139.377 110.535L130.289 115.806Z" fill="black"/>
<path d="M130.591 119.927L127.314 118.036C127.177 117.966 127.026 117.93 126.872 117.93C126.719 117.93 126.567 117.966 126.431 118.036L124.366 119.229C124.118 119.371 124.118 119.599 124.366 119.735L124.648 119.902L123.603 120.459C123.482 120.524 123.492 120.565 123.634 120.555L125.471 120.378L127.642 121.632C127.781 121.7 127.933 121.735 128.087 121.735C128.241 121.735 128.392 121.7 128.531 121.632L130.591 120.438C130.642 120.419 130.687 120.384 130.718 120.338C130.75 120.293 130.767 120.238 130.767 120.183C130.767 120.127 130.75 120.073 130.718 120.028C130.687 119.982 130.642 119.947 130.591 119.927Z" fill="black"/>
<path d="M131.555 124.864L131.312 124.359C130.999 123.696 130.808 122.796 131.716 122.275C132.061 122.1 132.441 122.009 132.827 122.009C133.213 122.009 133.593 122.1 133.938 122.275C134.412 122.548 134.518 122.958 134.256 123.286C134.845 123.125 135.474 123.19 136.018 123.468C136.153 123.512 136.27 123.598 136.354 123.713C136.437 123.828 136.482 123.966 136.482 124.108C136.482 124.25 136.437 124.389 136.354 124.504C136.27 124.619 136.153 124.704 136.018 124.748C135.129 125.254 133.574 125.163 132.428 124.986L131.555 124.864Z" fill="black"/>
<path d="M86.5723 142.628L127.622 166.375C128.035 166.585 128.492 166.694 128.955 166.694C129.418 166.694 129.874 166.585 130.288 166.375L162.255 147.878C162.987 147.453 162.987 146.765 162.255 146.361L121.205 122.593C120.792 122.384 120.336 122.275 119.872 122.275C119.409 122.275 118.953 122.384 118.54 122.593L86.5723 141.09C85.8353 141.515 85.8353 142.203 86.5723 142.628Z" fill="black"/>
<path d="M86.8883 145.213L83.5966 143.316C83.4583 143.248 83.3064 143.213 83.1523 143.213C82.9983 143.213 82.8464 143.248 82.7081 143.316L80.6432 144.51C80.5931 144.53 80.5501 144.565 80.5199 144.61C80.4897 144.655 80.4736 144.708 80.4736 144.762C80.4736 144.817 80.4897 144.87 80.5199 144.915C80.5501 144.96 80.5931 144.995 80.6432 145.015L80.931 145.182L79.8859 145.734C79.7597 145.799 79.7749 145.845 79.8859 145.83L81.7236 145.658L83.8945 146.912C84.0328 146.98 84.1847 147.015 84.3388 147.015C84.4928 147.015 84.6447 146.98 84.783 146.912L86.8479 145.713C86.9004 145.698 86.9471 145.668 86.9817 145.626C87.0163 145.583 87.0372 145.531 87.0416 145.477C87.046 145.423 87.0337 145.368 87.0063 145.321C86.9789 145.273 86.9377 145.236 86.8883 145.213Z" fill="black"/>
<path d="M87.8272 150.145L87.5899 149.639C87.2719 148.976 87.0851 148.076 87.9938 147.55C88.3372 147.375 88.7169 147.284 89.102 147.284C89.487 147.284 89.8667 147.375 90.2101 147.55C90.715 147.828 90.7957 148.238 90.5282 148.561C91.1197 148.406 91.7476 148.47 92.2951 148.743C92.4294 148.789 92.5461 148.875 92.6287 148.99C92.7114 149.106 92.7559 149.244 92.7559 149.386C92.7559 149.528 92.7114 149.666 92.6287 149.781C92.5461 149.897 92.4294 149.983 92.2951 150.028C91.4066 150.534 89.8517 150.443 88.7006 150.266L87.8272 150.145Z" fill="black"/>
<path d="M74.8342 147.878C75.2474 147.669 75.7039 147.56 76.167 147.56C76.63 147.56 77.0866 147.669 77.4998 147.878L118.544 171.621C119.281 172.045 119.281 172.738 118.544 173.163L110.169 178.009L66.4688 152.719L74.8342 147.878Z" fill="black"/>
<path d="M120.451 142.411L97.0859 148.698L127.635 166.37C128.048 166.58 128.504 166.689 128.967 166.689C129.43 166.689 129.887 166.58 130.3 166.37L130.962 165.986L144.143 146.609L116.149 152.112L120.451 142.411Z" fill="#E0E0E0"/>
<path d="M131.955 128.814L121.207 122.593C120.793 122.384 120.337 122.275 119.874 122.275C119.411 122.275 118.954 122.384 118.541 122.593L106.525 129.548C107.076 130.595 108.212 131.571 109.933 132.416C114.982 134.834 123.201 134.834 128.264 132.416C130.385 131.404 131.612 130.13 131.955 128.814Z" fill="#E0E0E0"/>
<path opacity="0.2" d="M183.79 126.625L129.912 95.447C129.499 95.2377 129.044 95.1287 128.581 95.1287C128.119 95.1287 127.663 95.2377 127.251 95.447L57.0764 136.053C56.3443 136.478 56.3443 137.166 57.0764 137.57L68.4659 144.146L110.969 168.743C111.382 168.952 111.838 169.061 112.3 169.061C112.762 169.061 113.218 168.952 113.63 168.743L176.797 132.178L183.784 128.132C184.527 127.742 184.527 127.05 183.79 126.625Z" fill="white"/>
<path d="M183.92 126.402L139.371 100.606L130.042 95.2241C129.59 94.9924 129.09 94.8716 128.583 94.8716C128.075 94.8716 127.575 94.9924 127.124 95.2241L56.9491 135.83C56.7491 135.907 56.5771 136.043 56.4558 136.22C56.3345 136.397 56.2695 136.607 56.2695 136.821C56.2695 137.036 56.3345 137.246 56.4558 137.423C56.5771 137.6 56.7491 137.736 56.9491 137.813L68.3386 144.388L110.857 169C111.309 169.233 111.809 169.354 112.316 169.354C112.824 169.354 113.324 169.233 113.775 169L176.938 132.436L183.93 128.39C184.129 128.311 184.301 128.175 184.422 127.997C184.542 127.82 184.607 127.61 184.607 127.396C184.607 127.181 184.542 126.971 184.422 126.794C184.301 126.617 184.129 126.48 183.93 126.402H183.92ZM183.662 127.944L176.67 131.991L113.508 168.555C113.134 168.742 112.722 168.84 112.304 168.84C111.886 168.84 111.474 168.742 111.1 168.555L68.5961 143.963L57.2116 137.388C57.09 137.357 56.9822 137.286 56.9052 137.186C56.8282 137.087 56.7864 136.965 56.7864 136.839C56.7864 136.713 56.8282 136.591 56.9052 136.492C56.9822 136.392 57.09 136.321 57.2116 136.29L127.386 95.6844C127.761 95.4985 128.173 95.4018 128.59 95.4018C129.008 95.4018 129.42 95.4985 129.794 95.6844L139.129 101.071L183.677 126.867C183.799 126.898 183.907 126.969 183.984 127.069C184.061 127.168 184.103 127.29 184.103 127.416C184.103 127.542 184.061 127.664 183.984 127.763C183.907 127.863 183.799 127.933 183.677 127.965L183.662 127.944Z" fill="white"/>
<g filter="url(#filter1_d_3487_3360)">
<path d="M159.609 0.184054C160.351 -0.245877 160.957 0.103124 160.957 0.962987V100.399C160.93 100.867 160.795 101.324 160.561 101.73C160.327 102.137 160.001 102.483 159.609 102.74L120.876 125.147L116.333 140.321C115.924 141.697 115.106 141.758 114.51 140.448L110.35 131.247L99.0413 137.787C98.2992 138.217 97.6934 137.868 97.6934 137.008V37.5729C97.7186 37.1039 97.8538 36.6475 98.088 36.2406C98.3222 35.8337 98.6488 35.4879 99.0413 35.2311L159.609 0.184054Z" fill="#191A23"/>
</g>
<path d="M154.661 76.9447C154.615 77.5885 154.417 78.2123 154.085 78.7652C153.752 79.318 153.294 79.7844 152.748 80.1262L131.468 92.4374C130.413 93.0444 129.555 92.6144 129.555 91.4663C129.603 90.8228 129.801 90.1997 130.133 89.6471C130.465 89.0944 130.923 88.6278 131.468 88.2848L152.758 75.9786C153.808 75.3666 154.661 75.8016 154.661 76.9447Z" fill="white"/>
<path d="M150.739 89.2408C150.691 89.8844 150.494 90.5077 150.161 91.0604C149.829 91.6131 149.371 92.0796 148.825 92.4223L131.151 102.66C130.095 103.272 129.242 102.837 129.242 101.689C129.289 101.046 129.486 100.424 129.817 99.8718C130.149 99.3199 130.606 98.8541 131.151 98.5122L148.846 88.2748C149.901 87.6627 150.739 88.0977 150.739 89.2408Z" fill="white"/>
<path d="M118.857 106.731L118.812 106.134C117.847 108.572 116.394 110.322 114.773 111.258C111.91 112.917 109.351 111.445 109.351 107.055C109.351 102.917 111.37 98.3804 114.515 96.5747C116.58 95.381 117.989 96.2611 118.221 96.7821V95.7705C118.221 95.2091 118.792 94.4251 119.488 94.0204C120.185 93.6158 120.76 93.985 120.76 94.8499V104.233C120.76 105.426 121.205 105.669 121.836 105.3C122.987 104.637 124.047 101.8 124.047 98.5676C124.047 92.326 120.781 89.4176 115.571 92.4322C110.689 95.2546 106.816 102.386 106.816 108.618C106.816 114.733 110.477 117.065 115.268 114.298C116.644 113.442 117.863 112.355 118.872 111.086C119.418 110.419 120.013 110.216 120.276 110.692C120.538 111.167 120.377 112.148 119.837 112.816C118.559 114.422 117.024 115.803 115.293 116.903C109.331 120.347 104.822 117.343 104.822 109.786C104.822 102.068 109.543 93.4135 115.596 89.9083C121.649 86.4031 126.087 89.5188 126.087 97.3284C126.087 102.063 124.234 106.21 121.604 107.728C120.15 108.527 119.115 108.34 118.857 106.731ZM112.097 105.31C112.097 107.728 113.268 109.053 115.056 108.021C116.843 106.989 118.085 104.339 118.085 101.896C118.085 99.5438 116.888 98.3552 115.03 99.4275C113.268 100.429 112.097 102.993 112.097 105.31Z" fill="white"/>
<path d="M129.314 32.1807C139.769 26.1111 148.241 31.0376 148.241 43.1313C148.241 55.225 139.769 69.9388 129.314 75.9781C118.858 82.0173 110.387 77.1212 110.387 65.0275C110.387 52.9337 118.858 38.2503 129.314 32.1807Z" fill="white"/>
<path d="M129.314 32.1807C139.769 26.1111 148.241 31.0376 148.241 43.1313C148.241 55.225 139.769 69.9388 129.314 75.9781C118.858 82.0173 110.387 77.1212 110.387 65.0275C110.387 52.9337 118.858 38.2503 129.314 32.1807Z" fill="#F5F5F5"/>
<mask id="mask0_3487_3360" style="mask-type:luminance" maskUnits="userSpaceOnUse" x="110" y="29" width="39" height="50">
<path d="M129.318 32.1807C139.773 26.1111 148.245 31.0376 148.245 43.1313C148.245 55.225 139.773 69.9388 129.318 75.9781C118.862 82.0173 110.391 77.1212 110.391 65.0275C110.391 52.9337 118.862 38.2503 129.318 32.1807Z" fill="white"/>
</mask>
<g mask="url(#mask0_3487_3360)">
<path d="M122.416 48.2405C121.549 48.3907 120.774 48.8732 120.256 49.5859C119.327 50.7847 119.519 52.4943 120.256 56.3434L123.128 55.9034L122.416 48.2405Z" fill="#263238"/>
<path d="M139.157 42.5754C139.803 42.4027 140.411 42.1149 140.955 41.7256C141.838 40.9821 142.065 41.928 141.581 42.9295C141.259 43.6434 140.8 44.2864 140.229 44.8212C139.658 45.356 138.986 45.772 138.254 46.0452C138.223 45.9238 137.426 44.022 137.426 44.022L139.157 42.5754Z" fill="#263238"/>
<path d="M124.067 68.093C124.067 68.093 118.715 71.5527 117.554 72.7717C116.393 73.9907 115.914 77.7892 115.484 82.4375C115.484 82.4375 121.578 85.0121 131.135 80.2727C140.692 75.5334 141.555 71.7854 141.555 71.7854C141.555 71.7854 140.318 66.1558 139.859 64.5929C139.278 62.6152 138.157 61.1888 131.64 64.1528L124.067 68.093Z" fill="#263238"/>
<path d="M123.765 55.7361C123.336 56.1053 122.73 55.4478 122.205 55.0381C121.68 54.6284 119.963 54.335 119.105 56.3734C118.247 58.4118 120.216 60.3642 121.377 60.8649C121.774 61.0323 122.211 61.0803 122.635 61.0031C123.059 60.9258 123.452 60.7267 123.765 60.4299L124.068 68.0928C124.068 68.0928 125.582 70.7179 129.722 70.1717C133.862 69.6254 132.999 65.4576 131.646 64.1526V62.5745C131.646 62.5745 133.781 62.4329 134.786 61.8968C135.326 61.6085 136.608 59.7066 137.436 57.7441C139.143 54.129 139.533 50.029 138.537 46.1562C137.058 40.2485 130.298 41.8721 126.269 45.4936C122.24 49.1152 123.765 55.7361 123.765 55.7361Z" fill="#FFA8A7"/>
<path d="M140.322 36.6473C139.958 35.4536 139.736 35.666 136.813 37.7247C134.58 39.2995 132.089 40.4688 129.452 41.1793C127.392 41.8065 124.575 42.3022 123.126 44.2141C122.503 45.0363 122.186 46.0504 122.228 47.082C122.105 46.9679 121.956 46.8862 121.794 46.8443C121.082 46.6521 120.208 47.173 119.84 48.0127L122.364 48.6854C122.167 50.1421 121.602 54.6387 122.218 55.0332C122.748 55.3721 123.561 56.5101 123.778 56.4494C124.5 56.2421 124.787 53.0353 125.181 51.093C125.61 48.8826 125.777 48.0582 126.57 47.9671C129.144 47.5605 131.678 46.9292 134.142 46.0805C136.869 45.0133 137.651 44.1079 137.651 44.1079L139.105 43.1823C139.754 42.2394 140.198 41.1703 140.407 40.0445C140.617 38.9186 140.588 37.7611 140.322 36.6473Z" fill="#263238"/>
<path d="M131.635 62.5747C131.635 62.5747 127.813 62.8327 126.481 62.4786C125.713 62.2954 125.049 61.8154 124.633 61.1433C124.822 61.8466 125.183 62.4915 125.683 63.0198C126.657 64.0314 131.635 63.5965 131.635 63.5965V62.5747Z" fill="#F28F8F"/>
<path d="M130.66 58.1284L132.407 58.3156C132.335 58.5752 132.18 58.8039 131.965 58.9666C131.751 59.1292 131.489 59.2168 131.22 59.2159C130.736 59.1653 130.488 58.6797 130.66 58.1284Z" fill="#F28F8F"/>
<path d="M133.184 51.3003L133.436 55.8474L135.844 54.3857L133.184 51.3003Z" fill="#F28F8F"/>
<path d="M130.715 52.9191C130.71 53.1466 130.634 53.3668 130.497 53.5484C130.36 53.73 130.17 53.8637 129.952 53.9307C129.862 53.9618 129.765 53.97 129.67 53.9544C129.575 53.9388 129.486 53.9 129.41 53.8414C129.334 53.7828 129.274 53.7062 129.234 53.6185C129.195 53.5308 129.178 53.4348 129.185 53.3389C129.191 53.111 129.268 52.8907 129.406 52.7091C129.544 52.5276 129.735 52.394 129.952 52.3273C130.043 52.2958 130.14 52.2875 130.234 52.303C130.329 52.3185 130.418 52.3575 130.494 52.4162C130.569 52.475 130.629 52.5518 130.668 52.6396C130.706 52.7274 130.723 52.8234 130.715 52.9191Z" fill="#263238"/>
<path d="M129.902 50.2331L128.267 51.5786C128.161 51.3347 128.141 51.062 128.211 50.8054C128.281 50.5488 128.436 50.3237 128.65 50.1674C128.731 50.0781 128.83 50.0079 128.941 49.962C129.052 49.916 129.172 49.8954 129.292 49.9017C129.412 49.908 129.529 49.9411 129.635 49.9984C129.74 50.0557 129.832 50.1359 129.902 50.2331Z" fill="#263238"/>
<path d="M137.546 48.817L136.031 48.0684C136.145 47.8343 136.34 47.6494 136.579 47.5481C136.819 47.4467 137.087 47.4357 137.334 47.5171C137.437 47.5851 137.525 47.6739 137.592 47.7777C137.659 47.8816 137.704 47.9983 137.724 48.1204C137.744 48.2426 137.739 48.3676 137.708 48.4874C137.677 48.6073 137.622 48.7195 137.546 48.817Z" fill="#263238"/>
<path d="M137.111 50.9816C137.105 51.2087 137.028 51.4281 136.892 51.6095C136.755 51.7908 136.565 51.9249 136.349 51.9932C136.258 52.0243 136.161 52.0325 136.067 52.0169C135.972 52.0013 135.883 51.9625 135.807 51.9039C135.731 51.8453 135.67 51.7687 135.631 51.681C135.592 51.5933 135.575 51.4972 135.582 51.4014C135.587 51.1735 135.665 50.9532 135.802 50.7716C135.94 50.5901 136.131 50.4565 136.349 50.3898C136.439 50.3583 136.536 50.35 136.631 50.3655C136.725 50.381 136.814 50.42 136.89 50.4787C136.966 50.5375 137.026 50.6143 137.064 50.7021C137.103 50.7899 137.119 50.8859 137.111 50.9816Z" fill="#263238"/>
</g>
<defs>
<filter id="filter0_d_3487_3360" x="25.9938" y="6.95435" width="59.0397" height="104.593" filterUnits="userSpaceOnUse" color-interpolation-filters="sRGB">
<feFlood flood-opacity="0" result="BackgroundImageFix"/>
<feColorMatrix in="SourceAlpha" type="matrix" values="0 0 0 0 0 0 0 0 0 0 0 0 0 0 0 0 0 0 127 0" result="hardAlpha"/>
<feOffset dy="4.24444"/>
<feGaussianBlur stdDeviation="2.12222"/>
<feComposite in2="hardAlpha" operator="out"/>
<feColorMatrix type="matrix" values="0 0 0 0 0 0 0 0 0 0 0 0 0 0 0 0 0 0 0.25 0"/>
<feBlend mode="normal" in2="BackgroundImageFix" result="effect1_dropShadow_3487_3360"/>
<feBlend mode="normal" in="SourceGraphic" in2="effect1_dropShadow_3487_3360" result="shape"/>
</filter>
<filter id="filter1_d_3487_3360" x="93.4489" y="0" width="71.7526" height="149.882" filterUnits="userSpaceOnUse" color-interpolation-filters="sRGB">
<feFlood flood-opacity="0" result="BackgroundImageFix"/>
<feColorMatrix in="SourceAlpha" type="matrix" values="0 0 0 0 0 0 0 0 0 0 0 0 0 0 0 0 0 0 127 0" result="hardAlpha"/>
<feOffset dy="4.24444"/>
<feGaussianBlur stdDeviation="2.12222"/>
<feComposite in2="hardAlpha" operator="out"/>
<feColorMatrix type="matrix" values="0 0 0 0 0 0 0 0 0 0 0 0 0 0 0 0 0 0 0.25 0"/>
<feBlend mode="normal" in2="BackgroundImageFix" result="effect1_dropShadow_3487_3360"/>
<feBlend mode="normal" in="SourceGraphic" in2="effect1_dropShadow_3487_3360" result="shape"/>
</filter>
</defs>
</svg>
