<svg width="494" height="395" viewBox="0 0 494 395" fill="none" xmlns="http://www.w3.org/2000/svg">
<path d="M13 387.941H481" stroke="#263238" stroke-linecap="round" stroke-linejoin="round"/>
<path d="M373.168 228.398V228.519C373.168 228.717 373.212 228.926 373.299 229.146C373.785 231.556 374.148 233.99 374.387 236.438C374.594 238.538 374.757 240.936 374.8 243.608C374.904 249.784 374.485 255.958 373.549 262.062C373.309 263.668 373.027 265.362 372.689 267.055C372.156 269.849 371.503 272.774 370.698 275.798C370.339 277.206 369.925 278.647 369.49 280.098L368.978 281.869C368.782 282.584 368.586 283.299 368.401 284.069C367.151 288.954 366.152 293.903 365.409 298.893C364.484 305.107 363.907 311.277 363.591 317.117C363.167 324.903 363.189 332.095 363.374 338.012C363.368 338.111 363.368 338.21 363.374 338.309C363.57 344.325 363.94 349.043 364.19 351.726C364.331 353.299 364.429 354.19 364.44 354.245" stroke="#263238" stroke-linecap="round" stroke-linejoin="round"/>
<path d="M373.202 228.552C371.572 227.089 369.609 226.058 367.488 225.55L373.202 228.552Z" fill="white"/>
<path d="M373.202 228.552C371.572 227.089 369.609 226.058 367.488 225.55" stroke="#263238" stroke-linecap="round" stroke-linejoin="round"/>
<path d="M374.42 236.471L377.315 233.82" stroke="#263238" stroke-linecap="round" stroke-linejoin="round"/>
<path d="M370.732 275.809C370.58 275.037 370.354 274.282 370.057 273.555C369.628 272.488 369.045 271.491 368.327 270.596C367.791 269.924 367.181 269.316 366.51 268.782" stroke="#263238" stroke-linecap="round" stroke-linejoin="round"/>
<path d="M368.414 284.058C368.824 283.031 369.439 282.099 370.219 281.322C371 280.544 371.93 279.937 372.952 279.538" stroke="#263238" stroke-linecap="round" stroke-linejoin="round"/>
<path d="M363.385 324.969C364.353 323.781 365.082 319.283 365.474 316.864C365.572 316.292 365.648 315.764 365.724 315.445" fill="white"/>
<path d="M363.385 324.969C364.353 323.781 365.082 319.283 365.474 316.864C365.572 316.292 365.648 315.764 365.724 315.445" stroke="#263238" stroke-linecap="round" stroke-linejoin="round"/>
<path d="M355.93 333.129C356.252 333.096 356.576 333.096 356.898 333.129C358.324 333.269 359.684 333.799 360.835 334.661C361.985 335.523 362.881 336.685 363.428 338.023" fill="white"/>
<path d="M355.93 333.129C356.252 333.096 356.576 333.096 356.898 333.129C358.324 333.269 359.684 333.799 360.835 334.661C361.985 335.523 362.881 336.685 363.428 338.023" stroke="#263238" stroke-linecap="round" stroke-linejoin="round"/>
<path d="M372.722 267.143C372.722 267.143 373.233 249.294 363.537 242.817" stroke="#263238" stroke-linecap="round" stroke-linejoin="round"/>
<path d="M373.549 305.404C374.823 309.572 365.932 317.502 365.932 317.502C365.932 317.502 354.189 316.017 352.873 311.86C351.556 307.703 354.57 300.862 360.273 299.103C365.975 297.343 372.32 301.236 373.549 305.404Z" fill="#C3E4EF"/>
<path d="M383.442 254.892C382.353 259.291 373.909 262.447 373.909 262.447C373.909 262.447 368.108 255.596 369.197 251.175C370.285 246.754 374.975 241.893 378.915 242.915C382.854 243.938 384.573 250.471 383.442 254.892Z" fill="#C3E4EF"/>
<path d="M349.718 320.955C354.996 323.022 358.228 332.458 358.228 332.458C358.228 332.458 349.522 337.198 344.255 335.12C338.988 333.041 333.373 327.19 334.896 323.286C336.42 319.382 344.44 318.832 349.718 320.955Z" fill="#C3E4EF"/>
<path d="M361.284 269.046C362.353 269.954 363.577 270.654 364.897 271.113C365.56 271.33 366.269 271.358 366.946 271.196C367.624 271.033 368.244 270.685 368.739 270.189C369.827 268.881 369.566 266.89 368.859 265.252C367.444 262.117 362.242 256.783 358.248 258.312C352.48 260.545 358.716 267.143 361.284 269.046Z" fill="#C3E4EF"/>
<path d="M373.094 277.041C372.332 277.987 371.527 279.186 371.951 280.341C372.188 280.826 372.577 281.218 373.057 281.457C373.537 281.696 374.082 281.767 374.607 281.66C375.651 281.41 376.625 280.925 377.458 280.242C379.493 278.812 383.672 275.843 381.006 273.016C378.339 270.19 374.639 275.051 373.094 277.041Z" fill="#C3E4EF"/>
<path d="M356.062 237.153C355.623 237.178 355.203 237.343 354.861 237.623C354.519 237.904 354.273 238.285 354.158 238.714C353.984 239.737 354.822 240.628 355.627 241.255C357.651 242.838 363.735 247.083 365.084 242.981C366.368 239.11 358.739 236.856 356.062 237.153Z" fill="#C3E4EF"/>
<path d="M367.26 223.67C366.009 223.791 364.757 223.329 363.495 223.406C362.233 223.483 360.85 224.505 361.123 225.759C361.395 227.013 362.798 227.288 363.952 227.354C365.938 227.483 367.932 227.346 369.883 226.947C370.345 226.903 370.773 226.682 371.08 226.331C371.591 225.572 370.786 224.56 369.916 224.296C369.022 224.176 368.143 223.963 367.293 223.659L367.26 223.67Z" fill="#C3E4EF"/>
<path d="M379.514 232.391C380.765 232.391 381.984 231.885 383.246 231.874C384.509 231.863 385.967 232.798 385.76 234.073C385.554 235.349 384.204 235.712 383.051 235.855C381.079 236.119 379.081 236.119 377.109 235.855C376.642 235.844 376.197 235.651 375.868 235.316C375.313 234.601 376.053 233.535 376.891 233.205C377.778 233.037 378.644 232.768 379.47 232.402L379.514 232.391Z" fill="#C3E4EF"/>
<path d="M378.274 326.113C378.562 325.809 378.948 325.618 379.362 325.574C379.642 325.601 379.903 325.725 380.102 325.926C380.3 326.127 380.424 326.391 380.45 326.674C380.51 327.217 380.443 327.767 380.254 328.279C379.395 331.172 369.818 352.056 367.609 348.306C366.314 346.107 369.513 338.749 370.46 336.671C372.267 332.615 374.934 329.01 378.274 326.113Z" fill="#C3E4EF"/>
<path d="M373.602 229.751C373.602 229.751 373.026 224.681 374.234 224.252" stroke="#263238" stroke-linecap="round" stroke-linejoin="round"/>
<path d="M372.537 224.461C373.154 222.671 374.219 221.072 375.628 219.82C377.14 218.721 379.567 218.633 380.666 220.161C381.896 221.866 380.666 224.45 378.784 225.363C376.901 226.276 374.681 226.001 372.613 225.704C372.613 225.396 372.613 225.088 372.613 224.78L372.537 224.461Z" fill="#C3E4EF"/>
<path d="M377.696 387.689C367.437 389.437 356.961 389.437 346.702 387.689L334.645 351.737H389.753L377.696 387.689Z" fill="white" stroke="#263238" stroke-linecap="round" stroke-linejoin="round"/>
<path d="M167.382 127.946V128.067C167.426 128.265 167.469 128.474 167.513 128.694C168.006 131.102 168.369 133.537 168.601 135.985C168.808 138.086 168.96 140.483 169.015 143.156C169.126 149.316 168.718 155.475 167.796 161.566C167.556 163.171 167.273 164.865 166.936 166.559C166.403 169.352 165.739 172.277 164.945 175.302C164.575 176.709 164.172 178.15 163.737 179.602C163.562 180.196 163.388 180.779 163.225 181.372C163.062 181.966 162.822 182.802 162.637 183.572C161.387 188.458 160.389 193.406 159.645 198.397C158.72 204.61 158.154 210.78 157.838 216.62C157.414 224.406 157.425 231.599 157.621 237.515V237.812C157.827 243.828 158.187 248.546 158.448 251.241C158.578 252.802 158.687 253.693 158.687 253.748" stroke="#263238" stroke-linecap="round" stroke-linejoin="round"/>
<path d="M167.404 128.1C166.623 127.409 165.769 126.808 164.857 126.307C163.852 125.772 162.785 125.366 161.68 125.098" fill="white"/>
<path d="M167.404 128.1C166.623 127.409 165.769 126.808 164.857 126.307C163.852 125.772 162.785 125.366 161.68 125.098" stroke="#263238" stroke-linecap="round" stroke-linejoin="round"/>
<path d="M168.623 136.018L171.529 133.368" stroke="#263238" stroke-linecap="round" stroke-linejoin="round"/>
<path d="M164.944 175.357C164.789 174.585 164.559 173.829 164.259 173.102C163.83 172.035 163.247 171.038 162.528 170.144C161.992 169.472 161.382 168.863 160.711 168.329" stroke="#263238" stroke-linecap="round" stroke-linejoin="round"/>
<path d="M162.627 183.561C163.033 182.534 163.645 181.602 164.424 180.824C165.203 180.046 166.132 179.439 167.154 179.041" stroke="#263238" stroke-linecap="round" stroke-linejoin="round"/>
<path d="M157.588 224.516C158.556 223.329 159.296 218.831 159.688 216.411C159.775 215.839 159.862 215.311 159.928 214.992" fill="white"/>
<path d="M157.588 224.516C158.556 223.329 159.296 218.831 159.688 216.411C159.775 215.839 159.862 215.311 159.928 214.992" stroke="#263238" stroke-linecap="round" stroke-linejoin="round"/>
<path d="M150.133 232.633C150.458 232.6 150.787 232.6 151.112 232.633C152.537 232.776 153.896 233.307 155.045 234.169C156.195 235.03 157.092 236.191 157.642 237.527" fill="white"/>
<path d="M150.133 232.633C150.458 232.6 150.787 232.6 151.112 232.633C152.537 232.776 153.896 233.307 155.045 234.169C156.195 235.03 157.092 236.191 157.642 237.527" stroke="#263238" stroke-linecap="round" stroke-linejoin="round"/>
<path d="M166.925 166.647C166.925 166.647 167.447 148.797 157.74 142.32" stroke="#263238" stroke-linecap="round" stroke-linejoin="round"/>
<path d="M167.807 204.952C169.069 209.12 160.189 217.049 160.189 217.049C160.189 217.049 148.436 215.564 147.13 211.407C145.824 207.25 148.839 200.41 154.53 198.65C160.222 196.89 166.534 200.795 167.807 204.952Z" fill="#C3E4EF"/>
<path d="M177.666 154.439C176.578 158.838 168.133 161.995 168.133 161.995C168.133 161.995 162.267 155.143 163.399 150.722C164.531 146.301 169.167 141.44 173.106 142.463C177.045 143.486 178.754 150.018 177.666 154.439Z" fill="#C3E4EF"/>
<path d="M143.93 220.502C149.208 222.581 152.451 232.006 152.451 232.006C152.451 232.006 143.745 236.746 138.467 234.667C133.189 232.589 127.584 226.738 129.119 222.834C130.653 218.93 138.641 218.424 143.93 220.502Z" fill="#C3E4EF"/>
<path d="M155.497 168.593C156.562 169.501 157.783 170.202 159.099 170.661C159.762 170.878 160.471 170.906 161.148 170.743C161.826 170.58 162.446 170.232 162.941 169.737C164.029 168.428 163.768 166.438 163.061 164.799C161.646 161.665 156.455 156.331 152.45 157.86C146.693 160.07 152.918 166.669 155.497 168.593Z" fill="#C3E4EF"/>
<path d="M167.296 176.599C166.545 177.545 165.74 178.799 166.153 179.899C166.39 180.384 166.779 180.776 167.259 181.015C167.739 181.254 168.284 181.325 168.809 181.218C169.853 180.97 170.828 180.485 171.66 179.8C173.695 178.381 177.874 175.401 175.208 172.574C172.541 169.748 168.896 174.598 167.296 176.599Z" fill="#C3E4EF"/>
<path d="M150.264 136.7C149.825 136.727 149.405 136.893 149.064 137.173C148.723 137.453 148.476 137.833 148.359 138.262C148.185 139.284 149.023 140.175 149.839 140.802C151.863 142.386 157.936 146.631 159.296 142.529C160.569 138.658 152.952 136.403 150.264 136.7Z" fill="#C3E4EF"/>
<path d="M161.462 123.217C160.211 123.338 158.959 122.876 157.708 122.953C156.456 123.03 155.053 124.053 155.336 125.307C155.619 126.56 157.001 126.835 158.165 126.901C160.148 127.03 162.138 126.893 164.085 126.494C164.55 126.45 164.982 126.23 165.293 125.878C165.794 125.12 164.988 124.108 164.129 123.844C163.231 123.724 162.349 123.51 161.495 123.206L161.462 123.217Z" fill="#C3E4EF"/>
<path d="M173.715 131.938C174.977 131.938 176.196 131.432 177.447 131.421C178.699 131.41 180.168 132.345 179.972 133.621C179.776 134.896 178.405 135.259 177.252 135.402C175.28 135.666 173.282 135.666 171.31 135.402C170.843 135.391 170.398 135.198 170.069 134.863C169.514 134.148 170.254 133.082 171.103 132.752C171.989 132.581 172.854 132.312 173.682 131.949L173.715 131.938Z" fill="#C3E4EF"/>
<path d="M172.474 225.66C172.763 225.358 173.148 225.167 173.562 225.121C173.839 225.154 174.098 225.28 174.295 225.48C174.493 225.679 174.618 225.941 174.65 226.221C174.706 226.765 174.636 227.315 174.443 227.827C173.595 230.719 164.007 251.603 161.809 247.853C160.503 245.654 163.702 238.296 164.649 236.218C166.459 232.161 169.13 228.556 172.474 225.66Z" fill="#C3E4EF"/>
<path d="M167.806 129.321C167.806 129.321 167.23 124.251 168.448 123.822" stroke="#263238" stroke-linecap="round" stroke-linejoin="round"/>
<path d="M166.781 124.009C167.39 122.214 168.456 120.614 169.872 119.368C171.385 118.268 173.8 118.18 174.9 119.709C176.129 121.413 174.9 123.998 173.017 124.911C171.134 125.823 168.925 125.548 166.857 125.252C166.857 124.944 166.857 124.636 166.857 124.328L166.781 124.009Z" fill="#C3E4EF"/>
<path d="M64.4844 252.395V143.728" stroke="#263238" stroke-linecap="round" stroke-linejoin="round"/>
<path d="M400.207 252.396H386.92" stroke="#263238" stroke-linecap="round" stroke-linejoin="round"/>
<path d="M106.176 73.2104H157.127V110.767H212.976" stroke="#263238" stroke-linecap="round" stroke-linejoin="round"/>
<path d="M76.1172 200.399V117.41" stroke="#263238" stroke-linecap="round" stroke-linejoin="round"/>
<path d="M98.8828 81.3931V146.433" stroke="#263238" stroke-linecap="round" stroke-linejoin="round"/>
<path d="M121.639 81.3931V138.889" stroke="#263238" stroke-linecap="round" stroke-linejoin="round"/>
<path d="M144.395 81.3931V181.967" stroke="#263238" stroke-linecap="round" stroke-linejoin="round"/>
<path d="M253.404 67.1289V1H346.047V67.1289" stroke="#263238" stroke-linecap="round" stroke-linejoin="round"/>
<path d="M260.193 33.85V8.85229H277.322" stroke="#263238" stroke-linecap="round" stroke-linejoin="round"/>
<path d="M281.088 33.85V8.85229H298.217" stroke="#263238" stroke-linecap="round" stroke-linejoin="round"/>
<path d="M301.982 33.85V8.85229H319.111" stroke="#263238" stroke-linecap="round" stroke-linejoin="round"/>
<path d="M322.877 33.85V8.85229H340.006" stroke="#263238" stroke-linecap="round" stroke-linejoin="round"/>
<path d="M260.193 67.1288V42.1311H277.322" stroke="#263238" stroke-linecap="round" stroke-linejoin="round"/>
<path d="M281.088 67.1288V42.1311H298.217" stroke="#263238" stroke-linecap="round" stroke-linejoin="round"/>
<path d="M301.982 67.1288V42.1311H319.111" stroke="#263238" stroke-linecap="round" stroke-linejoin="round"/>
<path d="M322.877 67.1288V42.1311H340.006" stroke="#263238" stroke-linecap="round" stroke-linejoin="round"/>
<path d="M474.721 246.325H477.343" stroke="#263238" stroke-linecap="round" stroke-linejoin="round"/>
<path d="M262.546 245.148H54.6914V381.585H262.546V245.148Z" fill="white" stroke="#263238" stroke-linecap="round" stroke-linejoin="round"/>
<path d="M54.6914 245.148L158.619 313.366L262.546 245.148H54.6914Z" fill="white" stroke="#263238" stroke-linecap="round" stroke-linejoin="round"/>
<path d="M127.375 292.856L54.6914 381.585" stroke="#263238" stroke-linecap="round" stroke-linejoin="round"/>
<path d="M190.428 292.856L263.112 381.585" stroke="#263238" stroke-linecap="round" stroke-linejoin="round"/>
<path d="M332.088 77.4118H283.77C282.378 77.4135 281.012 77.7918 279.814 78.5074C278.616 79.2229 277.63 80.2497 276.957 81.4809C275.77 83.6465 274.03 85.4514 271.92 86.7082C269.809 87.9649 267.404 88.6277 264.954 88.6277C262.504 88.6277 260.099 87.9649 257.988 86.7082C255.877 85.4514 254.138 83.6465 252.95 81.4809C252.283 80.2338 251.295 79.1921 250.09 78.4661C248.885 77.7401 247.508 77.3568 246.105 77.3568H197.842C196.517 77.3394 195.202 77.5858 193.971 78.0821C192.741 78.5784 191.619 79.3148 190.67 80.2493C189.721 81.1837 188.963 82.2979 188.441 83.5282C187.918 84.7585 187.64 86.0808 187.623 87.4197V362.823C187.66 365.526 188.757 368.104 190.673 369.99C192.589 371.877 195.167 372.918 197.842 372.886H332.088C334.763 372.918 337.343 371.877 339.26 369.991C341.178 368.105 342.277 365.527 342.317 362.823V87.4747C342.28 84.7698 341.182 82.1905 339.263 80.3036C337.345 78.4167 334.764 77.3766 332.088 77.4118Z" fill="#C3E4EF"/>
<path d="M347.028 84.4284C347.034 82.5732 346.678 80.7351 345.979 79.0194C345.28 77.3038 344.254 75.7443 342.958 74.4305C341.662 73.1166 340.122 72.0741 338.426 71.3628C336.731 70.6515 334.913 70.2854 333.077 70.2854H196.861C195.03 70.284 193.216 70.6473 191.523 71.3546C189.831 72.062 188.293 73.0995 186.997 74.4078C185.701 75.7161 184.674 77.2697 183.972 78.9796C183.271 80.6896 182.91 82.5224 182.91 84.3734V373.821C182.91 377.557 184.379 381.14 186.993 383.782C189.608 386.424 193.153 387.909 196.851 387.909H333.077C336.775 387.909 340.322 386.425 342.938 383.783C345.554 381.141 347.026 377.558 347.028 373.821V84.4284ZM342.316 362.823C342.276 365.527 341.177 368.105 339.259 369.991C337.342 371.877 334.763 372.918 332.087 372.886H197.841C195.166 372.918 192.588 371.877 190.672 369.99C188.756 368.104 187.66 365.526 187.622 362.823V87.4747C187.639 86.1359 187.917 84.8136 188.44 83.5833C188.963 82.3529 189.72 81.2387 190.669 80.3043C191.618 79.3699 192.74 78.6335 193.97 78.1372C195.201 77.6409 196.516 77.3944 197.841 77.4119H246.126C247.528 77.4115 248.903 77.7947 250.107 78.5208C251.31 79.247 252.296 80.2889 252.961 81.536C254.148 83.7016 255.887 85.5065 257.998 86.7632C260.109 88.02 262.514 88.6828 264.964 88.6828C267.414 88.6828 269.819 88.02 271.93 86.7632C274.04 85.5065 275.78 83.7016 276.967 81.536C277.638 80.3032 278.624 79.2752 279.822 78.5594C281.021 77.8435 282.388 77.4662 283.78 77.4669H332.098C333.423 77.4494 334.738 77.6959 335.968 78.1922C337.199 78.6885 338.321 79.4248 339.27 80.3593C340.218 81.2937 340.976 82.4079 341.499 83.6383C342.021 84.8686 342.299 86.1909 342.316 87.5297V362.823Z" fill="#263238"/>
<path opacity="0.2" d="M300.745 70.3293L210.258 387.931L246.192 387.898L333.328 70.3293H300.745Z" fill="white"/>
<path opacity="0.2" d="M287.252 70.3293L191.584 387.942L196.818 387.909L290.69 70.3293H287.252Z" fill="white"/>
<path d="M289.375 306.438C289.442 309.586 288.884 312.716 287.736 315.643C286.587 318.57 284.871 321.236 282.688 323.482C280.504 325.729 277.898 327.511 275.023 328.724C272.147 329.937 269.061 330.556 265.945 330.545C259.587 330.52 253.491 327.986 248.957 323.482C244.423 318.978 241.81 312.862 241.677 306.438C241.612 303.291 242.17 300.162 243.319 297.236C244.468 294.31 246.185 291.647 248.368 289.401C250.551 287.156 253.157 285.375 256.032 284.162C258.906 282.95 261.992 282.331 265.107 282.342C271.464 282.364 277.56 284.896 282.094 289.398C286.629 293.9 289.241 300.016 289.375 306.438Z" fill="white" stroke="#263238" stroke-linecap="round" stroke-linejoin="round"/>
<path d="M257.706 324.43C255.491 323.602 253.46 322.339 251.731 320.713C249.989 319.021 248.639 316.959 247.781 314.675C246.803 312.116 246.319 309.391 246.355 306.647C246.342 304.308 246.751 301.986 247.563 299.796C248.302 297.772 249.409 295.907 250.828 294.297C253.626 291.204 257.239 288.984 261.243 287.896C263.208 287.361 265.236 287.091 267.271 287.093C268.962 287.086 270.647 287.289 272.288 287.698C273.872 288.091 275.388 288.725 276.783 289.579C278.164 290.417 279.403 291.476 280.45 292.713C281.542 294.047 282.376 295.577 282.91 297.222C283.52 299.099 283.821 301.064 283.802 303.04C283.779 306.858 282.418 310.544 279.96 313.444C278.904 314.654 277.653 315.677 276.26 316.468C275.06 317.164 273.705 317.542 272.321 317.568C271.365 317.58 270.432 317.275 269.666 316.699C269.281 316.411 268.967 316.037 268.75 315.605C268.533 315.174 268.418 314.697 268.414 314.213C267.7 315.31 266.72 316.204 265.568 316.811C264.416 317.417 263.129 317.716 261.83 317.678C260.809 317.724 259.79 317.538 258.848 317.135C257.907 316.731 257.067 316.12 256.389 315.346C255.03 313.75 254.312 311.699 254.376 309.594C254.385 307.863 254.683 306.145 255.257 304.514C255.829 302.869 256.64 301.32 257.662 299.916C258.681 298.537 259.98 297.394 261.471 296.562C262.962 295.712 264.646 295.268 266.357 295.275C267.547 295.263 268.722 295.55 269.774 296.111C270.797 296.662 271.625 297.519 272.147 298.564L272.364 297.827C272.538 297.311 272.907 296.885 273.391 296.644C273.874 296.403 274.433 296.366 274.944 296.54C275.141 296.608 275.328 296.704 275.499 296.826C275.661 296.957 275.79 297.125 275.875 297.316C275.96 297.507 275.999 297.716 275.988 297.926C275.989 298.132 275.956 298.336 275.89 298.531L272.364 310.386C272.054 311.289 271.853 312.227 271.766 313.18C271.733 313.357 271.745 313.54 271.799 313.713C271.853 313.885 271.948 314.041 272.076 314.167C272.204 314.293 272.361 314.385 272.533 314.436C272.705 314.486 272.886 314.493 273.061 314.455C274.309 314.375 275.478 313.811 276.326 312.883C277.501 311.708 278.405 310.285 278.97 308.715C279.645 307 279.993 305.171 279.993 303.326C280.007 301.701 279.773 300.083 279.297 298.531C278.897 297.192 278.263 295.937 277.425 294.825C276.631 293.811 275.67 292.944 274.585 292.262C273.502 291.572 272.32 291.056 271.08 290.733C269.809 290.396 268.499 290.226 267.184 290.228C265.517 290.23 263.858 290.467 262.255 290.931C260.604 291.404 259.031 292.119 257.586 293.054C256.129 293.983 254.81 295.116 253.668 296.419C252.492 297.792 251.577 299.373 250.97 301.082C250.286 302.943 249.943 304.915 249.958 306.9C249.922 309.251 250.343 311.587 251.198 313.774C251.935 315.667 253.098 317.361 254.593 318.722C256.039 319.99 257.707 320.971 259.512 321.615C261.417 322.296 263.423 322.638 265.443 322.627C267.602 322.627 269.748 322.297 271.809 321.648C272.015 321.573 272.233 321.536 272.452 321.538C272.656 321.535 272.858 321.575 273.046 321.657C273.233 321.738 273.402 321.859 273.54 322.011C273.679 322.157 273.788 322.329 273.86 322.518C273.933 322.707 273.969 322.908 273.964 323.111C273.99 323.43 273.901 323.749 273.713 324.008C273.525 324.266 273.251 324.448 272.941 324.518C270.373 325.312 267.705 325.727 265.019 325.75C262.523 325.747 260.048 325.3 257.706 324.43ZM266.695 313.026C267.771 312.245 268.568 311.134 268.969 309.858L271.244 301.775L271.091 301.445C270.95 301.18 270.778 300.933 270.58 300.708C270.307 300.39 270.009 300.096 269.687 299.828C269.28 299.5 268.82 299.243 268.327 299.07C267.039 298.615 265.629 298.666 264.377 299.213C263.691 299.506 263.061 299.92 262.516 300.433C261.95 300.967 261.446 301.565 261.014 302.215C260.582 302.892 260.217 303.61 259.926 304.36C259.62 305.109 259.383 305.886 259.218 306.68C259.054 307.435 258.97 308.206 258.968 308.979C258.959 309.475 258.988 309.971 259.055 310.463C259.106 310.901 259.2 311.332 259.338 311.75C259.458 312.139 259.63 312.509 259.85 312.85C260.047 313.157 260.297 313.425 260.59 313.642C260.901 313.87 261.252 314.037 261.624 314.136C262.058 314.265 262.51 314.324 262.962 314.312C264.324 314.329 265.652 313.888 266.738 313.059L266.695 313.026Z" fill="#C3E4EF" stroke="#263238" stroke-linecap="round" stroke-linejoin="round"/>
<path d="M288.838 223.813C288.904 226.96 288.345 230.089 287.196 233.015C286.047 235.94 284.33 238.604 282.147 240.85C279.964 243.095 277.358 244.876 274.483 246.088C271.609 247.301 268.523 247.92 265.408 247.909C259.052 247.887 252.955 245.355 248.421 240.853C243.887 236.351 241.274 230.235 241.14 223.813C241.072 220.664 241.628 217.534 242.776 214.606C243.924 211.678 245.641 209.012 247.824 206.766C250.008 204.519 252.615 202.737 255.491 201.524C258.367 200.312 261.454 199.693 264.57 199.706C270.928 199.73 277.024 202.265 281.558 206.769C286.092 211.273 288.705 217.389 288.838 223.813Z" fill="white" stroke="#263238" stroke-linecap="round" stroke-linejoin="round"/>
<path d="M279.96 221.613C272.484 216.664 257.825 216.664 250.697 221.613C249.393 221.86 248.221 222.573 247.394 223.621C246.567 224.668 246.14 225.982 246.192 227.321C246.3 230.521 259.457 230.521 259.349 227.321C259.284 225.983 258.779 224.705 257.912 223.692C262.847 222.614 267.952 222.614 272.886 223.692C272.083 224.724 271.667 226.009 271.711 227.321C271.82 230.521 284.977 230.521 284.857 227.321C284.795 225.952 284.278 224.643 283.39 223.608C282.501 222.572 281.293 221.869 279.96 221.613Z" fill="#C3E4EF" stroke="#263238" stroke-linecap="round" stroke-linejoin="round"/>
<path d="M288.838 143.552C288.969 149.48 285.769 154.78 280.633 158.311V172.707L270.414 162.369C268.762 162.667 267.087 162.815 265.408 162.809C252.24 162.809 241.369 154.187 241.14 143.552C240.912 132.917 251.392 124.306 264.57 124.306C277.749 124.306 288.664 132.972 288.838 143.552Z" fill="white" stroke="#263238" stroke-linecap="round" stroke-linejoin="round"/>
<path d="M254.832 143.552C254.834 144.17 254.654 144.775 254.316 145.29C253.978 145.805 253.496 146.207 252.931 146.445C252.367 146.683 251.745 146.747 251.145 146.627C250.544 146.508 249.993 146.212 249.559 145.775C249.126 145.339 248.831 144.782 248.711 144.176C248.59 143.57 248.651 142.941 248.885 142.37C249.118 141.799 249.514 141.31 250.023 140.967C250.531 140.623 251.129 140.439 251.741 140.439C252.559 140.439 253.343 140.767 253.923 141.35C254.502 141.934 254.829 142.725 254.832 143.552Z" fill="#C3E4EF" stroke="#263238" stroke-linecap="round" stroke-linejoin="round"/>
<path d="M268.054 143.552C268.056 144.17 267.877 144.775 267.539 145.29C267.2 145.805 266.718 146.207 266.154 146.445C265.589 146.683 264.968 146.747 264.367 146.627C263.767 146.508 263.215 146.212 262.782 145.775C262.349 145.339 262.053 144.782 261.933 144.176C261.813 143.57 261.874 142.941 262.107 142.37C262.341 141.799 262.737 141.31 263.245 140.967C263.754 140.623 264.352 140.439 264.964 140.439C265.781 140.439 266.566 140.767 267.145 141.35C267.725 141.934 268.051 142.725 268.054 143.552Z" fill="#C3E4EF" stroke="#263238" stroke-linecap="round" stroke-linejoin="round"/>
<path d="M281.277 143.552C281.279 144.17 281.1 144.775 280.761 145.29C280.423 145.805 279.941 146.207 279.377 146.445C278.812 146.683 278.19 146.747 277.59 146.627C276.99 146.508 276.438 146.212 276.005 145.775C275.571 145.339 275.276 144.782 275.156 144.176C275.036 143.57 275.096 142.941 275.33 142.37C275.564 141.799 275.96 141.31 276.468 140.967C276.977 140.623 277.575 140.439 278.186 140.439C279.004 140.439 279.789 140.767 280.368 141.35C280.947 141.934 281.274 142.725 281.277 143.552Z" fill="#C3E4EF" stroke="#263238" stroke-linecap="round" stroke-linejoin="round"/>
<path d="M141.621 182.934C141.235 183.661 140.678 184.28 139.999 184.738C134.979 188.785 129.842 192.667 124.59 196.384C122.664 197.748 120.661 199.156 118.8 200.684C107.613 208.251 114.447 210.098 107.613 226.111C106.003 229.938 106.296 248.689 106.296 248.689H105.741C104.431 247.383 103.039 246.163 101.573 245.038C101.371 244.9 101.16 244.775 100.942 244.664C100.738 244.558 100.517 244.487 100.289 244.455C99.201 244.389 95.0548 244.895 90.8651 244.62L89.7768 244.532C89.1674 244.466 88.5689 244.389 87.9703 244.279C87.3718 244.169 86.795 244.048 86.24 243.894C82.2639 242.606 78.3651 241.086 74.5631 239.341L72.6696 238.516L71.7337 238.11L70.8849 237.736L70.2754 237.472L69.6878 237.219C68.6975 236.801 67.7725 236.416 66.9236 236.119C66.5345 235.978 66.1386 235.857 65.7375 235.756C65.7375 236.658 65.596 237.582 65.4763 238.483C64.9539 242.784 63.7895 246.754 61.711 247.282C61.6681 247.293 61.6232 247.293 61.5804 247.282C61.3973 247.316 61.2116 247.335 61.0254 247.337H60.8621C60.4017 247.327 59.9458 247.242 59.5127 247.084C57.6263 246.27 56.0847 244.809 55.1597 242.959C54.7464 242.18 54.5155 241.314 54.485 240.43C54.485 237.23 53.6035 218.347 53.6035 212.848C53.6035 207.349 54.6918 197.726 57.4015 194.152C58.4605 192.636 59.7979 191.341 61.3409 190.336C63.3264 188.663 65.6036 187.38 68.0554 186.552C70.9501 185.596 77.4252 183.154 81.9414 181.428L75.1181 184.089C76.8484 187.08 80.5594 191.787 87.2521 192.392C93.5421 192.931 97.438 187.179 99.4295 182.978C99.6037 183.044 110.551 180.944 113.087 181.065C121.347 181.428 128.083 176.908 131.13 175.115C132.049 174.56 133.081 174.222 134.147 174.126C135.214 174.031 136.288 174.18 137.289 174.563C138.291 174.946 139.193 175.552 139.93 176.337C140.667 177.122 141.219 178.065 141.545 179.096V179.195C142.021 180.39 142.048 181.72 141.621 182.934Z" fill="#C3E4EF" stroke="#263238" stroke-linecap="round" stroke-linejoin="round"/>
<path d="M99.3092 183.044L98.8086 182.868" stroke="#263238" stroke-linecap="round" stroke-linejoin="round"/>
<path d="M108.593 253.528C108.599 253.572 108.599 253.616 108.593 253.66C108.549 253.766 108.482 253.861 108.397 253.938C108.311 254.014 108.21 254.07 108.1 254.102C107.991 254.134 107.875 254.14 107.763 254.121C107.65 254.101 107.544 254.057 107.451 253.99C106.95 253.704 106.177 251.867 106.177 251.867L105.318 250.966L104.752 250.361C104.839 250.581 105.524 252.263 105.165 253.044C105.147 253.098 105.117 253.147 105.078 253.187C104.838 253.512 104.526 253.775 104.167 253.957C103.808 254.138 103.412 254.232 103.011 254.232C102.543 254.232 101.171 254.397 99.9744 254.474H99.8438C99.4814 254.494 99.118 254.494 98.7556 254.474C97.7893 254.348 96.8573 254.031 96.0132 253.539C94.0988 253.255 92.2126 252.802 90.3761 252.186L90.0496 252.01L89.7558 251.834C89.5626 251.717 89.3836 251.576 89.2225 251.417C88.5594 250.858 87.9962 250.188 87.5575 249.437C87.5575 249.437 83.1393 249.25 77.2083 248.788C75.0318 248.623 72.6812 248.414 70.2435 248.172C66.5 247.787 63.4094 247.809 60.9826 247.468H60.8085C60.3296 247.402 59.8834 247.314 59.459 247.215C58.4233 247.011 57.4656 246.515 56.6957 245.786C55.9258 245.057 55.3748 244.123 55.1061 243.091C54.9636 242.603 54.8473 242.108 54.7578 241.607L56.6514 238.307C57.6383 237.507 58.7389 236.862 59.9161 236.394C61.7425 235.622 63.7593 235.433 65.6947 235.855C66.0959 235.956 66.4918 236.077 66.8809 236.218C67.7297 236.548 68.6547 236.933 69.645 237.318L70.2435 237.571L70.853 237.834L71.7018 238.208C76.5445 240.232 82.3231 242.838 86.1863 243.938C87.3467 244.245 88.5293 244.459 89.7231 244.576L90.8114 244.664C95.0011 244.939 99.1365 244.433 100.236 244.499C101.335 244.565 104.023 247.149 105.742 248.744C106.21 249.184 106.624 249.547 106.907 249.767L107.037 249.877L107.135 249.965C107.758 250.611 108.195 251.417 108.397 252.296C108.483 252.591 108.541 252.893 108.572 253.198C108.591 253.307 108.599 253.418 108.593 253.528Z" fill="white" stroke="#263238" stroke-linecap="round" stroke-linejoin="round"/>
<path d="M108.593 253.528C108.598 253.572 108.598 253.616 108.593 253.66C108.548 253.766 108.48 253.859 108.394 253.935C108.308 254.01 108.207 254.065 108.097 254.096C107.987 254.126 107.872 254.132 107.76 254.111C107.649 254.091 107.543 254.046 107.45 253.979C106.912 253.348 106.482 252.631 106.177 251.857L105.317 250.966L104.751 250.372C104.828 250.548 105.535 252.264 105.176 253.055C105.158 253.109 105.128 253.158 105.089 253.198C104.968 253.361 104.829 253.508 104.675 253.638C104.206 254.019 103.623 254.229 103.021 254.232C102.542 254.232 101.182 254.386 99.9957 254.474H99.8434C99.4809 254.494 99.1176 254.494 98.7551 254.474C97.7948 254.344 96.8677 254.031 96.0236 253.55C94.1092 253.261 92.2232 252.804 90.3865 252.187L90.0709 252.033L89.7771 251.857C89.5889 251.731 89.4106 251.592 89.2438 251.439C88.5709 250.875 88.0002 250.198 87.5571 249.437C87.5571 249.437 83.2694 249.25 77.4581 248.799C75.2816 248.634 72.7678 248.414 70.2431 248.161C66.8042 247.82 63.9639 247.721 61.6677 247.359L60.9603 247.227L60.1442 247.04C59.956 245.692 60.0942 244.318 60.5468 243.036C60.9686 241.955 61.6228 240.982 62.4622 240.187C63.3015 239.392 64.3051 238.795 65.4004 238.439C66.7597 237.934 68.1525 237.527 69.5684 237.219L70.156 237.472L70.7654 237.736L71.6143 238.11C76.544 240.254 82.2573 242.85 86.1315 243.916C87.2909 244.225 88.474 244.435 89.6683 244.543L90.7565 244.631C94.9462 244.917 99.0816 244.411 100.181 244.477C101.28 244.543 103.957 247.117 105.622 248.711C106 249.076 106.396 249.421 106.808 249.745L106.939 249.844L107.037 249.932C107.672 250.569 108.11 251.379 108.299 252.264C108.385 252.558 108.443 252.86 108.473 253.165C108.529 253.28 108.569 253.402 108.593 253.528Z" fill="white" stroke="#263238" stroke-linecap="round" stroke-linejoin="round"/>
<path d="M95.5664 250.603C95.5664 250.603 98.0367 251.901 99.0161 252.351C99.9956 252.802 99.9085 254.617 99.9085 254.617" fill="white"/>
<path d="M95.5664 250.603C95.5664 250.603 98.0367 251.901 99.0161 252.351C99.9956 252.802 99.9085 254.617 99.9085 254.617" stroke="#263238" stroke-linecap="round" stroke-linejoin="round"/>
<path d="M98.2109 248.843C99.765 249.964 101.261 251.164 102.695 252.439C102.904 252.688 103.04 252.99 103.088 253.313C103.136 253.635 103.094 253.965 102.967 254.265" fill="white"/>
<path d="M98.2109 248.843C99.765 249.964 101.261 251.164 102.695 252.439C102.904 252.688 103.04 252.99 103.088 253.313C103.136 253.635 103.094 253.965 102.967 254.265" stroke="#263238" stroke-linecap="round" stroke-linejoin="round"/>
<path d="M104.72 250.35C103.432 248.956 102.07 247.634 100.639 246.391L104.72 250.35Z" fill="white"/>
<path d="M104.72 250.35C103.432 248.956 102.07 247.634 100.639 246.391" stroke="#263238" stroke-linecap="round" stroke-linejoin="round"/>
<path d="M99.2986 183.066C97.3288 187.256 93.422 192.964 87.132 192.469C80.4719 191.897 76.7284 187.157 74.998 184.155C77.3922 183.231 79.819 182.285 81.8105 181.493C81.8105 179.448 81.7452 176.995 81.5275 174.565C81.5275 174.037 81.4187 173.465 81.3643 172.97C81.3099 172.475 81.2446 172.123 81.1793 171.717H93.8356C93.8356 171.717 93.7594 172.222 93.6615 173.069C93.5853 173.828 93.4873 174.84 93.4112 175.984C93.3132 177.501 93.2479 179.283 93.2915 180.966C93.9009 181.175 94.5212 181.405 95.1415 181.647L96.3385 182.065C96.8174 182.241 97.2853 182.395 97.7859 182.56L98.8742 182.89C99.0191 182.94 99.1609 182.998 99.2986 183.066Z" fill="white" stroke="#263238" stroke-linecap="round" stroke-linejoin="round"/>
<path d="M81.3652 172.927C81.3652 172.927 83.7267 179.129 87.1547 180.185C90.5827 181.241 93.6842 173.069 93.6842 173.069C93.6842 173.069 88.8524 178.282 87.0568 177.469C85.2612 176.655 81.387 172.971 81.387 172.971" fill="#263238"/>
<path d="M79.331 138.669C76.1329 141.578 73.5971 145.154 71.8983 149.149C70.3421 152.449 69.0254 156.243 70.2224 159.696C70.9388 161.411 71.9522 162.982 73.2151 164.337C75.5657 167.186 78.8631 175.137 81.2137 177.985C81.3661 172.915 77.1654 164.722 77.6116 160.466C78.152 157.178 79.2218 154.002 80.7784 151.063C82.3615 147.209 84.4319 143.579 86.9379 140.263C88.3635 138.526 92.945 135.435 88.32 135.061C85.2511 134.808 81.649 136.744 79.331 138.669Z" fill="#263238" stroke="#263238" stroke-linecap="round" stroke-linejoin="round"/>
<path d="M76.3692 155.957C76.3692 155.957 74.7478 152.779 73.0392 155.792C71.8095 157.991 73.5833 161.456 74.3451 162.742C74.5979 163.109 74.9403 163.403 75.3389 163.595C75.7375 163.788 76.1787 163.873 76.6195 163.842L76.3692 155.957Z" fill="white" stroke="#263238" stroke-linecap="round" stroke-linejoin="round"/>
<path d="M97.6766 167.439C96.6367 169.516 95.2818 171.416 93.661 173.069L92.6816 174.092C90.6574 176.116 88.47 177.721 87.0336 177.391C85.7821 177.139 84.1497 175.841 82.55 174.18C82.1473 173.773 81.7556 173.333 81.3638 172.893C79.622 170.968 78.1266 168.828 76.9129 166.526C76.5757 165.662 76.3596 164.755 76.2708 163.831C75.9962 161.077 75.9017 158.306 75.9879 155.539C75.9879 154.56 75.9879 153.78 75.9879 153.34C75.9879 151.426 83.0832 144.772 83.0832 144.772C83.2745 144.702 83.4799 144.679 83.6818 144.706C84.9021 144.931 86.0782 145.354 87.1641 145.96C91.4627 148.072 97.459 152.262 97.8942 153.856C98.5581 156.177 98.3078 165.371 97.6766 167.439Z" fill="white" stroke="#263238" stroke-linecap="round" stroke-linejoin="round"/>
<path d="M83.5852 158.618C83.5852 159.388 83.3022 160.015 82.9867 160.015C82.6711 160.015 82.3555 159.41 82.3555 158.618C82.3555 157.827 82.6384 157.2 82.9867 157.2C83.3349 157.2 83.5852 157.849 83.5852 158.618Z" fill="#263238"/>
<path d="M91.6917 157.211C92.04 157.211 92.3229 157.838 92.3229 158.618C92.3229 159.399 92.04 160.015 91.6917 160.015C91.3435 160.015 91.0605 159.388 91.0605 158.618C91.0605 157.849 91.3435 157.211 91.6917 157.211Z" fill="#263238"/>
<path d="M79.5371 155.154C79.5371 155.154 80.6254 152.955 84.4777 153.626" stroke="#263238" stroke-linecap="round" stroke-linejoin="round"/>
<path d="M95.2727 155.154C95.2727 155.154 94.1844 152.955 90.332 153.626" stroke="#263238" stroke-linecap="round" stroke-linejoin="round"/>
<path d="M88.1445 163.996C88.5359 163.971 88.9091 163.82 89.2089 163.565C89.5087 163.309 89.7193 162.963 89.8095 162.578C89.8095 162.578 87.6983 159.278 88.3404 156.045" stroke="#263238" stroke-linecap="round" stroke-linejoin="round"/>
<path d="M74.9979 148.259C74.1211 149.461 73.4583 150.808 73.0391 152.24" stroke="white" stroke-linecap="round" stroke-linejoin="round"/>
<path d="M84.0948 139.46C84.0948 139.46 82.8869 141.484 77.5654 145.608C77.2224 145.859 76.8953 146.13 76.5859 146.422" stroke="white" stroke-linecap="round" stroke-linejoin="round"/>
<path d="M67.032 203.94C66.3065 214.395 65.581 224.857 64.8555 235.327V234.524" fill="#263238"/>
<path d="M67.032 203.94C66.3065 214.395 65.581 224.857 64.8555 235.327V234.524" stroke="#263238" stroke-linecap="round" stroke-linejoin="round"/>
<path d="M135.777 169.418C136.76 169.03 137.823 168.891 138.872 169.014C139.922 169.136 140.925 169.517 141.795 170.122C143.53 171.364 144.794 173.169 145.375 175.236C146.069 177.295 145.999 179.538 145.179 181.549C144.755 182.54 144.072 183.396 143.204 184.025C142.336 184.655 141.314 185.034 140.249 185.123C138.662 185.102 137.128 184.54 135.896 183.528C131.826 180.449 129.791 172.025 135.777 169.418Z" fill="white" stroke="#263238" stroke-linecap="round" stroke-linejoin="round"/>
<path d="M144.788 134.303C144.788 134.435 144.788 135.303 144.864 135.457C145.245 137.151 146.05 141.385 144.015 142.243C144.788 145.025 146.681 163.204 146.431 172.475C146.366 175.247 145.887 178.535 143.428 179.723C139.281 181.713 135.342 176.863 135.81 173.069C136.539 167.889 136.289 162.611 136.898 157.376C137.562 151.943 138.781 146.378 137.442 141.066C137.116 140.703 135.026 136.513 134.341 135.358C134.033 134.865 133.792 134.332 133.623 133.775C133.355 131.877 133.224 129.962 133.231 128.045C133.851 126.857 134.656 127.957 135.081 128.738C135.427 129.69 135.546 130.711 135.429 131.718C135.389 131.965 135.423 132.217 135.527 132.444C135.618 132.573 135.742 132.676 135.885 132.742C136.029 132.808 136.187 132.834 136.343 132.818C137.682 132.62 137.627 131.487 137.605 130.618C137.605 127.704 137.605 124.79 137.605 121.897C137.605 121.413 137.758 120.105 138.215 120.061C138.672 120.017 139.358 120.391 139.423 121.941C139.499 123.69 139.499 129.079 139.499 129.079C139.542 129.123 139.596 129.155 139.655 129.173C139.714 129.19 139.776 129.192 139.836 129.178C139.945 129.178 139.989 128.98 140.032 128.87C140.674 126.164 141.327 123.459 141.969 120.753C142.046 120.435 142.513 119.775 142.851 119.775C143.656 119.775 143.678 120.72 143.721 120.995C144.004 122.447 141.991 128.43 141.654 129.794C141.654 130.035 141.654 130.398 141.904 130.332L145.06 123.899C145.206 123.523 145.437 123.186 145.733 122.915C146.029 122.644 146.384 122.447 146.769 122.337C146.822 122.32 146.879 122.32 146.932 122.337C146.989 122.37 147.034 122.42 147.062 122.48C147.367 123.03 147.062 123.789 146.888 124.394C146.714 124.999 144.353 129.442 143.515 131.234C143.395 131.487 143.199 132.059 143.438 132.334C143.678 132.609 144.113 132.081 144.287 131.718C144.821 130.618 145.321 129.585 145.811 128.507C145.963 128.188 146.192 127.737 146.551 127.814C148.673 128.276 145.659 132.774 144.788 134.303Z" fill="white" stroke="#263238" stroke-linecap="round" stroke-linejoin="round"/>
<path d="M138.934 133.357C140.029 134.234 140.98 135.281 141.752 136.458C142.133 137.05 142.387 137.716 142.5 138.412C142.612 139.109 142.58 139.822 142.405 140.505C142.352 140.684 142.283 140.857 142.198 141.022" fill="white"/>
<path d="M138.934 133.357C140.029 134.234 140.98 135.281 141.752 136.458C142.133 137.05 142.387 137.716 142.5 138.412C142.612 139.109 142.58 139.822 142.405 140.505C142.352 140.684 142.283 140.857 142.198 141.022" stroke="#263238" stroke-linecap="round" stroke-linejoin="round"/>
<path d="M108.277 202.059C109.429 204.406 110.204 206.923 110.574 209.515C110.889 212.111 110.987 214.145 109.235 221.437" stroke="#263238" stroke-linecap="round" stroke-linejoin="round"/>
<path d="M83.7146 143.123C83.5656 143.572 83.5282 144.052 83.6058 144.519C83.8122 145.108 84.192 145.618 84.694 145.982C88.1723 149.062 92.063 151.632 96.2512 153.614C96.7765 153.752 97.2318 154.084 97.5277 154.544C97.8237 155.004 97.939 155.559 97.8509 156.1V164.601C97.9044 165.478 97.8199 166.357 97.6006 167.207C96.9912 169.187 95.6418 170.782 94.6624 172.607C93.6667 174.338 93.1621 176.313 93.2041 178.315C92.932 176.215 100.202 172.145 102.171 163.875C102.443 162.709 108.102 155.77 104.707 147.621C101.442 139.801 96.3056 136.436 94.5753 136.029C93.4008 135.682 92.1614 135.623 90.9597 135.856C89.758 136.089 88.6286 136.609 87.6649 137.371C85.7633 138.802 84.3762 140.822 83.7146 143.123Z" fill="#263238" stroke="#263238" stroke-linecap="round" stroke-linejoin="round"/>
<path d="M90.8429 166.955C90.2226 167.086 89.5914 167.207 88.9602 167.284C86.7837 167.559 84.4549 167.218 83.0293 165.613C83.1381 167.053 84.1175 172.497 87.0449 172.651C89.9723 172.805 90.8429 166.955 90.8429 166.955Z" stroke="#263238" stroke-linecap="round" stroke-linejoin="round"/>
<path d="M88.0137 139.801C89.2689 142.681 91.2688 145.166 93.8031 146.994C95.6423 148.324 97.7426 149.281 99.4294 150.799C101.606 152.811 103.031 156.001 102.194 158.893" stroke="white" stroke-linecap="round" stroke-linejoin="round"/>
<path d="M110.759 184.232C108.662 185.932 107.282 188.373 106.896 191.061C106.52 193.385 106.803 195.768 107.712 197.935" stroke="#263238" stroke-linecap="round" stroke-linejoin="round"/>
<path d="M70.2221 202.378C70.048 205.259 68.2741 207.756 66.5547 210.076L70.2221 202.378Z" fill="#263238"/>
<path d="M70.2221 202.378C70.048 205.259 68.2741 207.756 66.5547 210.076" stroke="#263238" stroke-linecap="round" stroke-linejoin="round"/>
<path d="M65.9766 224.406C66.8409 225.869 67.9978 227.133 69.3733 228.117C70.7487 229.102 72.3124 229.786 73.9643 230.125" stroke="#263238" stroke-linecap="round" stroke-linejoin="round"/>
<path d="M107.614 226.122C107.614 226.122 104.687 230.521 94.7402 231.445" stroke="#263238" stroke-linecap="round" stroke-linejoin="round"/>
</svg>
