<svg width="550" height="550" viewBox="0 0 550 550" fill="none" xmlns="http://www.w3.org/2000/svg">
<g clip-path="url(#clip0_4036_992)">
<path d="M243.1 199.782C224.675 207.636 184.514 186.373 165.077 181.533C116.028 169.323 58.9816 189.926 63.8766 258.533C70.4766 352.308 208.945 455.367 353.672 406.032C426.778 381.106 486.64 311.432 486.497 227.832C486.2 76.01 342.21 70.862 297 108.9C254.606 144.606 267.388 189.431 243.1 199.782Z" fill="#8FD4ED"/>
<path opacity="0.9" d="M243.1 199.782C224.675 207.636 184.514 186.373 165.077 181.533C116.028 169.323 58.9816 189.926 63.8766 258.533C70.4766 352.308 208.945 455.367 353.672 406.032C426.778 381.106 486.64 311.432 486.497 227.832C486.2 76.01 342.21 70.862 297 108.9C254.606 144.606 267.388 189.431 243.1 199.782Z" fill="black"/>
<path d="M275 466.081C392.79 466.081 488.279 460.506 488.279 453.629C488.279 446.752 392.79 441.177 275 441.177C157.209 441.177 61.7207 446.752 61.7207 453.629C61.7207 460.506 157.209 466.081 275 466.081Z" fill="#101010"/>
<path d="M319.825 447.92H319.726C319.583 447.893 319.457 447.811 319.375 447.692C319.292 447.572 319.26 447.425 319.286 447.282C319.286 447.106 322.685 430.309 335.071 420.882C344.52 413.644 354.596 397.166 354.695 397.001C354.732 396.939 354.782 396.884 354.84 396.841C354.899 396.798 354.965 396.767 355.036 396.749C355.106 396.732 355.179 396.729 355.251 396.74C355.323 396.751 355.392 396.776 355.454 396.814C355.578 396.891 355.667 397.014 355.701 397.156C355.736 397.297 355.715 397.447 355.641 397.573C355.531 397.738 345.356 414.392 335.742 421.773C323.642 431.002 320.342 447.392 320.342 447.546C320.307 447.655 320.238 447.751 320.145 447.818C320.052 447.885 319.94 447.921 319.825 447.92Z" fill="#263238"/>
<path d="M333.52 425.909C333.52 425.909 346.28 423.313 341.847 431.09C337.414 438.867 327.228 435.49 327.228 435.49C327.228 435.49 318.527 429.759 322.971 422.818C327.415 415.877 333.52 425.909 333.52 425.909Z" fill="#8FD4ED"/>
<path opacity="0.1" d="M322.971 422.851C327.371 415.91 333.52 425.909 333.52 425.909C333.52 425.909 334.444 430.903 327.228 435.523C327.228 435.523 318.527 429.792 322.971 422.851Z" fill="black"/>
<path d="M354.682 397.276C354.682 397.276 362.778 389.818 362.965 397.386C363.152 404.954 354.341 406.989 354.341 406.989C354.341 406.989 345.541 406.648 345.717 399.685C345.893 392.722 354.682 397.276 354.682 397.276Z" fill="#8FD4ED"/>
<path opacity="0.1" d="M345.717 399.685C345.893 392.733 354.682 397.276 354.682 397.276C354.682 397.276 357.531 400.488 354.341 406.989C354.341 407 345.541 406.648 345.717 399.685Z" fill="black"/>
<path d="M344.442 411.4C344.442 411.4 347.621 400.862 340.735 403.986C333.849 407.11 335.851 415.932 335.851 415.932C335.851 415.932 339.998 423.709 346.18 420.519C352.362 417.329 344.442 411.4 344.442 411.4Z" fill="#8FD4ED"/>
<path opacity="0.1" d="M346.181 420.497C352.363 417.307 344.443 411.378 344.443 411.378C344.443 411.378 340.307 410.201 335.852 415.91C335.852 415.91 339.999 423.687 346.181 420.497Z" fill="black"/>
<path d="M309.274 447.92C309.162 447.918 309.052 447.883 308.96 447.818C308.868 447.753 308.797 447.662 308.757 447.557C308.702 447.403 303.488 432.861 290.849 424.908C277.935 416.768 272.083 406.67 272.028 406.571C271.992 406.508 271.969 406.439 271.96 406.367C271.95 406.295 271.955 406.222 271.974 406.152C271.993 406.082 272.026 406.017 272.07 405.959C272.114 405.902 272.169 405.854 272.232 405.818C272.295 405.781 272.364 405.758 272.436 405.749C272.508 405.739 272.581 405.744 272.651 405.763C272.721 405.782 272.786 405.815 272.844 405.859C272.901 405.903 272.949 405.958 272.985 406.021C273.04 406.12 278.76 415.998 291.443 423.973C304.401 432.135 309.747 447.073 309.791 447.194C309.816 447.261 309.827 447.332 309.823 447.404C309.82 447.475 309.802 447.545 309.771 447.61C309.741 447.674 309.697 447.732 309.644 447.779C309.591 447.827 309.529 447.864 309.461 447.887C309.401 447.909 309.338 447.92 309.274 447.92Z" fill="#263238"/>
<path d="M311.684 447.92C311.611 447.915 311.541 447.895 311.476 447.862C311.412 447.829 311.354 447.784 311.307 447.728C311.26 447.673 311.224 447.609 311.202 447.54C311.18 447.471 311.172 447.398 311.178 447.326C311.178 447.205 312.113 434.61 313.114 422.807C314.115 411.004 319.208 404.195 319.417 403.92C319.509 403.815 319.638 403.749 319.777 403.735C319.917 403.721 320.056 403.762 320.167 403.847C320.277 403.933 320.351 404.057 320.374 404.196C320.396 404.334 320.364 404.475 320.286 404.591C320.231 404.668 315.182 411.279 314.203 422.895C313.213 434.698 312.289 447.282 312.278 447.414C312.272 447.486 312.252 447.557 312.219 447.622C312.186 447.686 312.141 447.744 312.086 447.791C312.031 447.838 311.967 447.873 311.898 447.896C311.829 447.918 311.756 447.926 311.684 447.92Z" fill="#263238"/>
<path d="M314.677 414.183C314.677 414.183 318.395 406.01 309.331 408.133C300.267 410.256 303.413 417.318 303.413 417.318C303.413 417.318 309.364 423.676 317.482 421.476C325.6 419.276 314.677 414.183 314.677 414.183Z" fill="#8FD4ED"/>
<path opacity="0.1" d="M317.481 421.476C325.599 419.276 314.676 414.183 314.676 414.183C312.684 413.928 310.662 414.074 308.727 414.612C306.793 415.151 304.986 416.071 303.412 417.318C303.412 417.318 309.363 423.676 317.481 421.476Z" fill="black"/>
<path d="M279.278 415.591C279.278 415.591 282.996 407.429 273.932 409.541C264.868 411.653 268.003 418.737 268.003 418.737C268.003 418.737 273.965 425.084 282.083 422.884C290.201 420.684 279.278 415.591 279.278 415.591Z" fill="#8FD4ED"/>
<path opacity="0.1" d="M282.084 422.884C290.202 420.684 279.279 415.591 279.279 415.591C277.285 415.337 275.26 415.484 273.323 416.025C271.387 416.565 269.578 417.487 268.004 418.737C268.004 418.737 273.966 425.084 282.084 422.884Z" fill="black"/>
<path d="M299.684 433.114C299.684 433.114 301.499 424.314 293.084 428.395C284.669 432.476 289.344 438.68 289.344 438.68C289.344 438.68 296.56 443.553 303.985 439.604C311.41 435.655 299.684 433.114 299.684 433.114Z" fill="#8FD4ED"/>
<path opacity="0.1" d="M304.028 439.604C311.453 435.666 299.683 433.114 299.683 433.114C297.683 433.31 295.742 433.903 293.974 434.859C292.206 435.815 290.646 437.114 289.387 438.68C289.387 438.68 296.603 443.553 304.028 439.604Z" fill="black"/>
<path d="M313.731 428.252C313.731 428.252 316.261 422.686 310.079 424.127C303.897 425.568 306.042 430.386 306.042 430.386C306.042 430.386 310.101 434.72 315.634 433.224C321.167 431.728 313.731 428.252 313.731 428.252Z" fill="#8FD4ED"/>
<path opacity="0.1" d="M315.634 433.224C321.134 431.717 313.731 428.252 313.731 428.252C312.37 428.076 310.988 428.174 309.666 428.541C308.343 428.907 307.107 429.535 306.031 430.386C306.031 430.386 310.101 434.72 315.634 433.224Z" fill="black"/>
<path d="M319.23 403.777C319.23 403.777 316.051 395.274 323.421 397.65C330.791 400.026 328.404 407.264 328.404 407.264C328.404 407.264 323.729 413.699 317.118 411.257C310.507 408.815 319.23 403.777 319.23 403.777Z" fill="#8FD4ED"/>
<path opacity="0.1" d="M317.119 411.257C310.519 408.804 319.231 403.777 319.231 403.777C319.231 403.777 323.719 402.677 328.405 407.264C328.405 407.264 323.73 413.699 317.119 411.257Z" fill="black"/>
<path d="M272.997 403.084C272.997 403.084 276.616 397.771 271.149 398.167C265.682 398.563 266.111 403.942 266.111 403.942C266.111 403.942 268.245 409.145 273.195 408.573C278.145 408.001 272.997 403.084 272.997 403.084Z" fill="#8FD4ED"/>
<path opacity="0.1" d="M273.195 408.573C278.145 408.001 272.997 403.073 272.997 403.073C272.997 403.073 270.082 401.588 266.111 403.931C266.111 403.942 268.245 409.2 273.195 408.573Z" fill="black"/>
<path d="M289.211 421.619C289.211 421.619 276.297 419.859 283.051 413.985C289.805 408.111 298.319 414.601 298.319 414.601C298.319 414.601 304.633 422.884 298.165 427.977C291.697 433.07 289.211 421.619 289.211 421.619Z" fill="#8FD4ED"/>
<path opacity="0.1" d="M298.165 427.977C291.686 433.059 289.211 421.619 289.211 421.619C289.211 421.619 289.981 416.592 298.319 414.601C298.319 414.601 304.633 422.884 298.165 427.977Z" fill="black"/>
<path d="M301.73 460.273H322.564C323.524 460.27 324.453 459.93 325.189 459.313C325.924 458.696 326.42 457.841 326.59 456.896L328.955 443.696H295.328L297.704 456.896C297.874 457.841 298.37 458.696 299.106 459.313C299.841 459.93 300.77 460.27 301.73 460.273Z" fill="#8FD4ED"/>
<path opacity="0.6" d="M301.73 460.273H322.564C323.524 460.27 324.453 459.93 325.189 459.313C325.924 458.696 326.42 457.841 326.59 456.896L328.955 443.696H295.328L297.704 456.896C297.874 457.841 298.37 458.696 299.106 459.313C299.841 459.93 300.77 460.27 301.73 460.273Z" fill="black"/>
<path d="M326.812 376.288H236.282C233.909 376.323 231.555 375.86 229.372 374.928C227.19 373.997 225.227 372.618 223.611 370.88C221.994 369.143 220.761 367.085 219.989 364.841C219.218 362.597 218.926 360.216 219.133 357.852L234.236 141.482C234.645 136.506 236.894 131.861 240.542 128.452C244.19 125.044 248.977 123.116 253.97 123.046H344.489C346.862 123.011 349.216 123.474 351.399 124.405C353.582 125.337 355.546 126.716 357.163 128.453C358.78 130.19 360.015 132.247 360.787 134.492C361.56 136.736 361.854 139.117 361.649 141.482L346.502 357.852C346.098 362.822 343.857 367.464 340.217 370.872C336.577 374.281 331.798 376.211 326.812 376.288Z" fill="#8FD4ED"/>
<path opacity="0.6" d="M326.812 376.288H236.282C233.909 376.323 231.555 375.86 229.372 374.928C227.19 373.997 225.227 372.618 223.611 370.88C221.994 369.143 220.761 367.085 219.989 364.841C219.218 362.597 218.926 360.216 219.133 357.852L234.236 141.482C234.645 136.506 236.894 131.861 240.542 128.452C244.19 125.044 248.977 123.116 253.97 123.046H344.489C346.862 123.011 349.216 123.474 351.399 124.405C353.582 125.337 355.546 126.716 357.163 128.453C358.78 130.19 360.015 132.247 360.787 134.492C361.56 136.736 361.854 139.117 361.649 141.482L346.502 357.852C346.098 362.822 343.857 367.464 340.217 370.872C336.577 374.281 331.798 376.211 326.812 376.288Z" fill="white"/>
<path d="M322.114 376.288H231.584C229.212 376.323 226.858 375.86 224.675 374.928C222.493 373.997 220.53 372.618 218.913 370.88C217.297 369.143 216.064 367.085 215.292 364.841C214.521 362.597 214.229 360.216 214.435 357.852L229.538 141.482C229.948 136.508 232.195 131.864 235.841 128.456C239.487 125.048 244.271 123.119 249.261 123.046H339.791C342.164 123.011 344.518 123.474 346.701 124.405C348.883 125.337 350.846 126.716 352.462 128.453C354.079 130.191 355.312 132.248 356.084 134.492C356.855 136.737 357.147 139.118 356.94 141.482L341.837 357.852C341.428 362.826 339.181 367.469 335.535 370.878C331.889 374.286 327.105 376.214 322.114 376.288Z" fill="#8FD4ED"/>
<path d="M339.495 127.27H315.966C315.202 127.274 314.464 127.542 313.876 128.03C313.288 128.517 312.888 129.193 312.743 129.943L312.6 130.68C312.229 132.504 311.245 134.146 309.813 135.334C308.38 136.523 306.585 137.186 304.724 137.214H282.35C280.569 137.241 278.847 136.575 277.55 135.355C276.252 134.136 275.48 132.459 275.398 130.68V129.943C275.363 129.214 275.047 128.528 274.515 128.029C273.983 127.53 273.278 127.258 272.549 127.27H249.009C245.162 127.323 241.473 128.809 238.664 131.437C235.855 134.066 234.127 137.647 233.818 141.482L218.704 357.852C218.545 359.672 218.77 361.506 219.364 363.234C219.957 364.963 220.906 366.548 222.15 367.887C223.394 369.226 224.904 370.289 226.584 371.009C228.264 371.728 230.076 372.088 231.904 372.064H322.423C326.27 372.011 329.96 370.525 332.771 367.897C335.582 365.269 337.313 361.687 337.625 357.852L352.739 141.482C352.897 139.657 352.671 137.82 352.075 136.089C351.479 134.357 350.526 132.77 349.277 131.43C348.029 130.091 346.513 129.028 344.828 128.311C343.142 127.595 341.326 127.24 339.495 127.27Z" fill="#8FD4ED"/>
<path opacity="0.6" d="M352.715 141.482L352.396 145.882L337.612 357.852C337.296 361.688 335.562 365.268 332.75 367.895C329.938 370.523 326.248 372.009 322.399 372.064H231.869C230.042 372.089 228.229 371.731 226.548 371.012C224.867 370.293 223.356 369.23 222.112 367.89C220.868 366.551 219.919 364.966 219.326 363.236C218.733 361.507 218.509 359.673 218.669 357.852L233.453 145.871L233.772 141.471C234.086 137.638 235.816 134.059 238.624 131.432C241.432 128.805 245.118 127.317 248.963 127.259H272.503C273.234 127.247 273.941 127.521 274.473 128.022C275.006 128.523 275.321 129.212 275.352 129.943V130.669C275.438 132.447 276.211 134.122 277.508 135.341C278.805 136.56 280.525 137.228 282.304 137.203H304.7C306.562 137.177 308.359 136.515 309.792 135.326C311.225 134.137 312.207 132.494 312.576 130.669L312.719 129.943C312.872 129.194 313.276 128.52 313.864 128.032C314.452 127.544 315.189 127.271 315.953 127.259H339.482C341.314 127.23 343.13 127.587 344.815 128.305C346.5 129.023 348.015 130.087 349.262 131.427C350.51 132.768 351.462 134.356 352.056 136.088C352.651 137.82 352.876 139.658 352.715 141.482Z" fill="black"/>
<g opacity="0.7">
<path d="M288.587 129.668C288.548 130.153 288.329 130.607 287.973 130.939C287.616 131.271 287.149 131.457 286.662 131.461C286.431 131.463 286.202 131.417 285.991 131.327C285.779 131.236 285.588 131.102 285.431 130.933C285.273 130.764 285.153 130.565 285.077 130.347C285.001 130.129 284.971 129.898 284.99 129.668C285.033 129.184 285.253 128.734 285.609 128.403C285.964 128.072 286.429 127.884 286.915 127.875C287.146 127.869 287.376 127.913 287.59 128.003C287.804 128.092 287.996 128.226 288.154 128.396C288.312 128.565 288.432 128.766 288.507 128.985C288.581 129.205 288.608 129.437 288.587 129.668Z" fill="black"/>
<path d="M301.468 127.875H295.297C294.812 127.884 294.347 128.072 293.992 128.403C293.636 128.734 293.416 129.184 293.372 129.668C293.354 129.898 293.384 130.129 293.46 130.347C293.536 130.565 293.656 130.764 293.813 130.933C293.971 131.102 294.161 131.236 294.373 131.327C294.585 131.418 294.814 131.463 295.044 131.461H301.215C301.701 131.452 302.166 131.264 302.521 130.933C302.877 130.602 303.097 130.152 303.14 129.668C303.159 129.438 303.129 129.207 303.053 128.989C302.977 128.771 302.857 128.572 302.699 128.403C302.542 128.235 302.351 128.1 302.14 128.01C301.928 127.919 301.699 127.873 301.468 127.875Z" fill="black"/>
</g>
<path d="M243.926 137.181H245.829L245.961 135.278H244.058L243.926 137.181Z" fill="#8FD4ED"/>
<path d="M247.864 135.278L247.732 137.181H249.635L249.767 135.278L249.899 133.375H247.996L247.864 135.278Z" fill="#8FD4ED"/>
<path d="M251.933 131.472L251.801 133.375L251.669 135.278L251.537 137.181H253.44L253.572 135.278L253.704 133.375L253.836 131.472H251.933Z" fill="#8FD4ED"/>
<path d="M333.795 131.593L333.696 132.99H332.761L332.574 135.784H333.498L333.399 137.181H341.781L342.166 131.593H333.795ZM337.227 135.784H334.4L334.598 132.99H337.381L337.227 135.784Z" fill="#8FD4ED"/>
<path d="M186.121 437.085L183.514 454.146H191.764L197.187 437.085H186.121Z" fill="#FFC3BD"/>
<path d="M182.469 450.34L193.469 450.087C193.556 450.076 193.643 450.083 193.726 450.109C193.809 450.134 193.886 450.177 193.952 450.234C194.017 450.291 194.07 450.361 194.106 450.44C194.142 450.519 194.162 450.605 194.162 450.692V458.777C194.117 459.228 193.906 459.647 193.572 459.953C193.237 460.26 192.801 460.432 192.347 460.438C188.519 460.438 186.693 460.295 181.842 460.438C176.693 460.421 171.55 460.083 166.442 459.426C162.515 458.755 163.582 455.026 165.342 455.026C173.361 454.74 177.838 453.068 180.742 451C181.237 450.608 181.84 450.377 182.469 450.34Z" fill="#263238"/>
<path opacity="0.2" d="M185.076 443.927L186.121 437.085H197.187L194.525 445.61L185.076 443.927Z" fill="black"/>
<path d="M258.731 341.418C258.731 341.418 191.631 342.089 190.608 363.33C189.123 393.877 184.008 440.451 184.008 440.451L196.658 443.927C196.658 443.927 214.698 397.727 215.358 373.89C234.234 370.139 282.744 373.89 288.442 361.504C291.221 355.193 291.97 348.174 290.587 341.418H258.731Z" fill="#8FD4ED"/>
<path opacity="0.3" d="M258.731 341.418C258.731 341.418 191.631 342.089 190.608 363.33C189.123 393.877 184.008 440.451 184.008 440.451L196.658 443.927C196.658 443.927 214.698 397.727 215.358 373.89C234.234 370.139 282.744 373.89 288.442 361.504C291.221 355.193 291.97 348.174 290.587 341.418H258.731Z" fill="white"/>
<path d="M174.494 435.523L165.463 449.031L170.633 456.456L182.942 442.981L174.494 435.523Z" fill="#FFC3BD"/>
<path opacity="0.2" d="M178.31 448.052L182.941 442.981L175.252 434.412L170.291 441.793L178.31 448.052Z" fill="black"/>
<path d="M165.903 448.371L173.108 453.717C173.19 453.761 173.262 453.821 173.321 453.892C173.379 453.964 173.423 454.047 173.45 454.136C173.476 454.225 173.485 454.318 173.475 454.411C173.466 454.503 173.438 454.593 173.394 454.674L169.203 462.264C168.939 462.65 168.535 462.918 168.077 463.01C167.619 463.103 167.142 463.013 166.75 462.759C163.45 460.559 161.91 459.294 157.631 456.555C155.013 454.872 151.603 452.892 147.973 450.56C144.343 448.228 146.631 444.906 148.347 445.599C156.135 448.657 158.698 447.887 162.306 447.623C163.537 447.681 164.751 447.933 165.903 448.371Z" fill="#263238"/>
<path d="M171.436 438.669L181.336 446.688C181.336 446.688 203.116 423.368 224.852 383.097L224.577 382.602C244.135 381.073 297.881 375.738 304.305 367.873C311.081 359.557 310.608 350.053 308.056 341.418H276.156C276.156 341.418 225.248 348.942 208.627 364.914C196.12 376.024 171.436 438.669 171.436 438.669Z" fill="#8FD4ED"/>
<g opacity="0.4">
<path d="M171.436 438.669L181.336 446.688C181.336 446.688 203.116 423.368 224.852 383.097L224.577 382.602C244.135 381.073 297.881 375.738 304.305 367.873C311.081 359.557 310.608 350.053 308.056 341.418H276.156C276.156 341.418 225.248 348.942 208.627 364.914C196.12 376.024 171.436 438.669 171.436 438.669Z" fill="white"/>
</g>
<path d="M272.8 269.269L250.69 272.569C238.315 274.417 225.489 268.07 214.852 261.481L209.715 266.849C209.715 266.849 232.254 283.503 243.474 283.547C249.832 283.547 259.776 281.875 267.201 280.412C268.38 280.177 269.49 279.676 270.446 278.947C271.402 278.218 272.18 277.281 272.72 276.207C273.26 275.133 273.547 273.949 273.561 272.747C273.575 271.545 273.315 270.355 272.8 269.269Z" fill="#FF8B7B"/>
<path d="M201.719 251.691C202.324 255.299 202.94 258.918 203.556 262.526C205.613 263.835 207.384 265.606 209.452 266.926C211.638 265.65 213.516 263.907 214.952 261.822C214.578 260.139 213.852 258.522 213.511 256.839C212.873 254.045 209.463 252.219 207.582 250.063C205.899 250.448 203.402 251.295 201.719 251.691Z" fill="#FF8B7B"/>
<path d="M268.136 286.341L251.636 285.901L249.359 270.501C249.359 270.501 258.566 268.686 267.19 266.926C267.498 271.953 267.773 281.336 268.136 286.341Z" fill="#8FD4ED"/>
<path opacity="0.1" d="M268.136 286.341L251.636 285.901L249.359 270.501C249.359 270.501 258.566 268.686 267.19 266.926C267.498 271.953 267.773 281.336 268.136 286.341Z" fill="black"/>
<path opacity="0.2" d="M251.582 285.901L267.015 283.052L267.092 286.363L251.582 285.901Z" fill="black"/>
<path d="M309.332 343.123C303.436 344.509 292.084 343.398 281.392 343.002C273.956 342.716 263.847 341.418 263.847 341.418C264.65 328.944 264.309 316.437 260.932 293.832C259.326 283.052 267.235 266.838 267.268 266.838C268.5 266.64 269.831 266.464 271.206 266.299C271.976 266.211 272.746 266.145 273.538 266.09C279.948 265.822 286.368 265.929 292.766 266.409C293.965 266.486 295.197 266.596 296.396 266.728C297.595 266.86 298.596 266.981 299.608 267.135L301.027 267.333C301.9 267.469 302.738 267.777 303.491 268.239C304.245 268.7 304.9 269.306 305.418 270.022C305.937 270.738 306.308 271.549 306.512 272.409C306.715 273.269 306.747 274.161 306.604 275.033C306.609 275.058 306.609 275.084 306.604 275.11C306.021 280.247 305.504 284.768 305.229 288.893C305.229 289.025 305.229 289.168 305.229 289.3C304.844 293.887 304.635 298.001 304.602 301.939C304.437 314.248 305.933 324.896 309.332 343.123Z" fill="#8FD4ED"/>
<path d="M305.283 287.43C305.283 287.903 305.283 288.387 305.217 288.86C305.217 288.992 305.217 289.135 305.217 289.267C304.832 293.854 304.623 297.968 304.59 301.906C301.862 296.714 299.178 289.344 299.354 285.67L305.283 287.43Z" fill="#8FD4ED"/>
<path opacity="0.2" d="M305.284 287.43C305.284 287.903 305.284 288.387 305.218 288.86C305.213 288.933 305.213 289.007 305.218 289.08C304.833 293.733 304.613 297.88 304.58 301.906C301.852 296.714 299.168 289.344 299.344 285.67L305.284 287.43Z" fill="black"/>
<path d="M291.181 244.761C289.861 250.921 288.475 262.229 292.721 266.431C289.311 269.731 284.856 273.493 277.508 273.636C270.16 273.779 271.535 268.708 273.504 266.112C280.434 264.572 280.346 259.512 279.213 254.639L291.181 244.761Z" fill="#FF8B7B"/>
<path opacity="0.2" d="M286.319 248.754L279.246 254.595C279.52 255.714 279.697 256.855 279.774 258.005C281.302 257.761 282.747 257.143 283.979 256.207C285.211 255.27 286.192 254.044 286.836 252.637C287.496 250.888 286.979 249.007 286.319 248.754Z" fill="black"/>
<path d="M275.54 227.095C270.512 236.335 267.409 246.498 266.421 256.971C266.203 258.328 266.252 259.714 266.564 261.052C266.734 261.72 267.076 262.332 267.557 262.826C268.038 263.32 268.64 263.679 269.303 263.868C269.05 263.633 268.852 263.344 268.725 263.023C268.598 262.702 268.543 262.356 268.567 262.012C268.59 261.667 268.69 261.332 268.859 261.031C269.028 260.73 269.262 260.47 269.545 260.271C269.326 261.93 269.738 263.61 270.7 264.979C271.159 265.523 271.732 265.961 272.378 266.261C273.024 266.561 273.727 266.717 274.44 266.717C274.188 266.088 274.131 265.399 274.275 264.737C275.287 266.134 277.322 266.937 278.752 265.936C281.15 264.319 281.194 260.744 281.7 257.895L286.936 228.195C286.346 227.489 285.609 226.92 284.777 226.526C283.945 226.133 283.038 225.926 282.118 225.918C280.253 225.943 278.401 226.232 276.618 226.776H277.025" fill="#263238"/>
<path d="M296.659 237.93C294.074 245.916 292.952 250.712 287.793 253.814C280.016 258.478 270.963 252.175 271.139 243.551C271.282 235.851 275.539 224.07 284.262 222.893C286.198 222.624 288.17 222.856 289.991 223.565C291.811 224.275 293.42 225.439 294.663 226.947C295.906 228.455 296.742 230.256 297.092 232.178C297.441 234.101 297.292 236.081 296.659 237.93Z" fill="#FF8B7B"/>
<path d="M291.281 240.02C290.698 241.61 289.995 243.155 289.18 244.64C290.863 244.121 292.624 243.901 294.383 243.991C294.993 244.057 295.606 244.09 296.22 244.09C296.844 244.082 297.444 243.852 297.914 243.441C298.183 243.151 298.369 242.793 298.453 242.406C298.536 242.019 298.513 241.616 298.387 241.241C298.129 240.515 297.643 239.894 297.001 239.47C296.297 238.974 295.453 238.716 294.592 238.733C293.701 238.766 291.578 239.217 291.281 240.02Z" fill="#263238"/>
<path d="M297.308 246.4C296.619 247.049 295.809 247.556 294.923 247.892C294.038 248.228 293.095 248.386 292.149 248.358C289.608 248.27 289.113 245.828 290.466 243.837C291.676 242.044 294.459 239.943 296.681 240.999C297.154 241.249 297.559 241.611 297.861 242.053C298.163 242.494 298.353 243.003 298.414 243.534C298.476 244.066 298.408 244.604 298.215 245.104C298.022 245.603 297.711 246.048 297.308 246.4Z" fill="#FF8B7B"/>
<path d="M278.597 236.06C277.3 237.877 275.76 239.509 274.021 240.911C274.388 241.348 274.846 241.7 275.363 241.941C275.879 242.182 276.443 242.307 277.013 242.308L278.597 236.06Z" fill="#FF5652"/>
<path d="M277.586 245.564C278.343 245.662 279.112 245.606 279.847 245.4C280.583 245.194 281.269 244.842 281.865 244.365C281.901 244.326 281.921 244.275 281.921 244.222C281.921 244.169 281.901 244.117 281.865 244.079C281.846 244.059 281.824 244.044 281.799 244.033C281.775 244.023 281.748 244.018 281.722 244.018C281.695 244.018 281.668 244.023 281.644 244.033C281.619 244.044 281.597 244.059 281.579 244.079C280.911 244.6 280.13 244.957 279.298 245.119C278.467 245.282 277.609 245.246 276.794 245.014C276.743 245.003 276.69 245.012 276.645 245.038C276.6 245.065 276.567 245.107 276.552 245.157C276.538 245.209 276.545 245.265 276.572 245.312C276.599 245.359 276.643 245.394 276.695 245.41C276.992 245.465 277.289 245.52 277.586 245.564Z" fill="#263238"/>
<path d="M286.705 235.202C286.77 235.218 286.838 235.218 286.903 235.202C286.951 235.183 286.995 235.156 287.032 235.12C287.07 235.085 287.099 235.042 287.12 234.995C287.14 234.948 287.151 234.897 287.152 234.846C287.152 234.794 287.143 234.743 287.123 234.696C286.896 234.101 286.528 233.57 286.051 233.149C285.574 232.727 285.002 232.428 284.384 232.276C284.333 232.266 284.281 232.267 284.231 232.278C284.181 232.289 284.133 232.31 284.091 232.34C284.049 232.369 284.013 232.407 283.986 232.451C283.959 232.495 283.941 232.544 283.933 232.595C283.913 232.698 283.934 232.805 283.992 232.893C284.049 232.981 284.139 233.044 284.241 233.068C284.737 233.186 285.196 233.423 285.579 233.758C285.962 234.093 286.258 234.517 286.441 234.993C286.464 235.047 286.5 235.094 286.546 235.131C286.593 235.167 286.647 235.192 286.705 235.202Z" fill="#263238"/>
<path d="M273.77 231.704C273.835 231.709 273.901 231.698 273.962 231.673C274.023 231.649 274.078 231.61 274.122 231.561C274.438 231.17 274.842 230.859 275.3 230.653C275.759 230.446 276.259 230.35 276.762 230.373C276.813 230.381 276.865 230.378 276.916 230.365C276.966 230.352 277.013 230.328 277.054 230.296C277.096 230.265 277.13 230.225 277.155 230.179C277.18 230.134 277.196 230.084 277.202 230.032C277.217 229.928 277.192 229.823 277.13 229.738C277.068 229.654 276.975 229.597 276.872 229.581C276.245 229.546 275.619 229.66 275.045 229.915C274.471 230.169 273.966 230.556 273.572 231.044C273.535 231.081 273.505 231.124 273.485 231.173C273.465 231.221 273.455 231.272 273.455 231.324C273.455 231.377 273.465 231.428 273.485 231.476C273.505 231.524 273.535 231.568 273.572 231.605C273.626 231.657 273.695 231.692 273.77 231.704Z" fill="#263238"/>
<path d="M299.421 271.007C299.366 271.007 299.278 271.007 299.267 271.007C297.012 280.412 297.452 290.235 295.318 299.959C293.833 306.746 280.336 306.636 267.389 311.949L268.874 320.111C268.874 320.111 295.769 318.692 303.172 308.572C307.363 302.83 308.298 300.003 309.332 291.61C310.432 282.997 310.938 271.997 305.284 270.941L299.421 271.007Z" fill="#FF8B7B"/>
<path d="M256.379 323.037H263.463C263.789 323.051 264.115 322.987 264.412 322.851C264.71 322.715 264.971 322.51 265.174 322.254C265.377 321.997 265.516 321.696 265.58 321.375C265.644 321.054 265.631 320.723 265.542 320.408L261.604 301.895C261.43 301.167 261.023 300.515 260.445 300.039C259.868 299.562 259.151 299.287 258.403 299.255H251.319C250.991 299.243 250.666 299.308 250.368 299.445C250.071 299.583 249.81 299.789 249.608 300.046C249.405 300.304 249.266 300.605 249.202 300.926C249.138 301.248 249.151 301.58 249.24 301.895L253.178 320.408C253.352 321.135 253.759 321.785 254.337 322.26C254.915 322.734 255.632 323.007 256.379 323.037Z" fill="#8FD4ED"/>
<path opacity="0.3" d="M256.379 323.037H263.463C263.789 323.051 264.115 322.987 264.412 322.851C264.71 322.715 264.971 322.51 265.174 322.254C265.377 321.997 265.516 321.696 265.58 321.375C265.644 321.054 265.631 320.723 265.542 320.408L261.604 301.895C261.43 301.167 261.023 300.515 260.445 300.039C259.868 299.562 259.151 299.287 258.403 299.255H251.319C250.991 299.243 250.666 299.308 250.368 299.445C250.071 299.583 249.81 299.789 249.608 300.046C249.405 300.304 249.266 300.605 249.202 300.926C249.138 301.248 249.151 301.58 249.24 301.895L253.178 320.408C253.352 321.135 253.759 321.785 254.337 322.26C254.915 322.734 255.632 323.007 256.379 323.037Z" fill="white"/>
<path d="M255.332 323.037H262.416C262.743 323.051 263.069 322.987 263.366 322.851C263.664 322.715 263.925 322.51 264.127 322.254C264.33 321.997 264.47 321.696 264.534 321.375C264.597 321.054 264.584 320.723 264.495 320.408L260.557 301.895C260.385 301.166 259.979 300.513 259.401 300.036C258.823 299.56 258.105 299.285 257.356 299.255H250.283C249.955 299.24 249.628 299.304 249.33 299.441C249.031 299.578 248.77 299.783 248.566 300.041C248.363 300.299 248.224 300.602 248.161 300.924C248.098 301.247 248.113 301.58 248.204 301.895L252.131 320.408C252.307 321.134 252.715 321.783 253.292 322.258C253.87 322.732 254.586 323.006 255.332 323.037Z" fill="#8FD4ED"/>
<path opacity="0.6" d="M255.332 323.037H262.416C262.743 323.051 263.069 322.987 263.366 322.851C263.664 322.715 263.925 322.51 264.127 322.254C264.33 321.997 264.47 321.696 264.534 321.375C264.597 321.054 264.584 320.723 264.495 320.408L260.557 301.895C260.385 301.166 259.979 300.513 259.401 300.036C258.823 299.56 258.105 299.285 257.356 299.255H250.283C249.955 299.24 249.628 299.304 249.33 299.441C249.031 299.578 248.77 299.783 248.566 300.041C248.363 300.299 248.224 300.602 248.161 300.924C248.098 301.247 248.113 301.58 248.204 301.895L252.131 320.408C252.307 321.134 252.715 321.783 253.292 322.258C253.87 322.732 254.586 323.006 255.332 323.037Z" fill="white"/>
<path d="M258.15 304.7H257.457C256.946 304.69 256.453 304.51 256.054 304.19C255.656 303.869 255.376 303.426 255.257 302.929L255.114 302.236C255.052 302.024 255.042 301.801 255.084 301.584C255.126 301.368 255.22 301.164 255.356 300.991C255.493 300.818 255.669 300.68 255.87 300.588C256.071 300.497 256.29 300.454 256.511 300.465H257.193C257.694 300.487 258.175 300.672 258.562 300.991C258.949 301.311 259.221 301.748 259.338 302.236L259.492 302.929C259.552 303.136 259.562 303.355 259.523 303.567C259.484 303.779 259.395 303.979 259.265 304.151C259.135 304.323 258.966 304.462 258.772 304.558C258.579 304.653 258.365 304.702 258.15 304.7Z" fill="#8FD4ED"/>
<path d="M256.443 301.554C256.491 301.757 256.604 301.939 256.765 302.072C256.926 302.205 257.126 302.282 257.334 302.291C257.426 302.295 257.516 302.277 257.599 302.239C257.682 302.2 257.755 302.142 257.811 302.07C257.867 301.998 257.905 301.914 257.921 301.824C257.938 301.734 257.933 301.642 257.906 301.554C257.859 301.354 257.747 301.175 257.588 301.043C257.429 300.912 257.232 300.837 257.026 300.828C256.935 300.823 256.844 300.84 256.761 300.877C256.678 300.914 256.605 300.97 256.548 301.041C256.491 301.112 256.452 301.196 256.433 301.285C256.415 301.374 256.419 301.466 256.443 301.554Z" fill="#263238"/>
<path d="M256.896 303.677C256.944 303.879 257.057 304.06 257.218 304.191C257.379 304.322 257.579 304.397 257.787 304.403C257.877 304.409 257.968 304.393 258.051 304.356C258.134 304.318 258.207 304.262 258.263 304.19C258.32 304.119 258.358 304.035 258.374 303.945C258.391 303.856 258.386 303.764 258.359 303.677C258.311 303.474 258.198 303.292 258.037 303.159C257.876 303.026 257.676 302.949 257.468 302.94C257.376 302.936 257.285 302.954 257.203 302.992C257.12 303.031 257.047 303.089 256.991 303.161C256.935 303.233 256.897 303.317 256.881 303.407C256.864 303.497 256.869 303.59 256.896 303.677Z" fill="#263238"/>
<path d="M256.422 319.066C257.137 319.682 266.168 320.529 268.874 320.166C269.699 317.724 268.973 315.249 268.566 312.708C267.026 311.542 265.266 310.651 263.737 309.496C261.185 307.571 257.5 308.473 254.332 307.989C253.628 308.935 253.419 311.234 253.507 313.236C253.569 314.355 253.86 315.45 254.361 316.453C254.862 317.455 255.564 318.345 256.422 319.066Z" fill="#FF8B7B"/>
<path d="M294.954 271.326C294.778 282.062 295.361 282.26 293.689 292.864L311.839 291.478C311.839 291.478 313.764 283.778 311.696 277.178C310.167 272.305 307.439 267.949 301.576 266.761C298.848 266.2 295.009 268.015 294.954 271.326Z" fill="#8FD4ED"/>
<path opacity="0.1" d="M294.954 271.326C294.778 282.062 295.361 282.26 293.689 292.864L311.839 291.478C311.839 291.478 313.764 283.778 311.696 277.178C310.167 272.305 307.439 267.949 301.576 266.761C298.848 266.2 295.009 268.015 294.954 271.326Z" fill="white"/>
<path d="M303.81 246.62C303.73 246.819 303.596 246.993 303.423 247.121C303.25 247.249 303.046 247.327 302.831 247.346C302.526 247.346 302.221 247.324 301.918 247.28C300.719 247.148 298.772 246.84 298.464 246.752C296.88 243.452 297.705 240.691 295.318 237.952C296.088 238.315 296.847 238.612 297.595 238.909C298.343 239.206 299.069 239.481 299.795 239.844C300.961 241.56 302.435 243.584 303.458 245.344C303.603 245.52 303.708 245.725 303.769 245.945C303.83 246.164 303.844 246.394 303.81 246.62Z" fill="#263238"/>
<path d="M290.742 228.8C291.082 230.974 290.996 233.193 290.489 235.334C289.314 234.842 288.264 234.092 287.417 233.14C286.569 232.188 285.947 231.058 285.594 229.834C285.423 230.899 285.588 231.991 286.067 232.958C285.159 232.635 284.347 232.086 283.71 231.362C283.073 230.638 282.631 229.764 282.426 228.822C282.125 229.725 282.125 230.701 282.426 231.605C281.572 231.467 280.777 231.081 280.141 230.494C279.505 229.907 279.057 229.145 278.851 228.305C278.645 228.603 278.506 228.942 278.443 229.299C278.38 229.656 278.396 230.022 278.488 230.373C277.863 230.025 277.361 229.492 277.052 228.847C276.743 228.201 276.642 227.476 276.762 226.771C276.883 226.066 277.22 225.415 277.726 224.91C278.232 224.404 278.883 224.068 279.588 223.949C281.687 223.548 283.86 223.849 285.77 224.807C287.606 225.899 289.28 227.243 290.742 228.8Z" fill="#263238"/>
<path opacity="0.2" d="M304.437 246.972C304.358 247.177 304.221 247.356 304.044 247.487C303.867 247.617 303.656 247.694 303.436 247.709C303.127 247.709 302.818 247.687 302.512 247.643C301.28 247.5 299.289 247.192 298.981 247.104C297.353 243.804 298.2 240.9 295.758 238.084C296.55 238.458 297.32 238.755 298.09 239.063C298.86 239.371 299.597 239.646 300.378 240.02C301.555 241.78 303.073 243.848 304.118 245.674C304.259 245.856 304.36 246.066 304.415 246.289C304.47 246.513 304.477 246.745 304.437 246.972Z" fill="black"/>
<path d="M304.437 246.972C304.358 247.178 304.222 247.356 304.044 247.487C303.867 247.617 303.656 247.694 303.436 247.709C303.127 247.709 302.818 247.687 302.512 247.643C300.928 245.069 299.256 242.561 297.496 240.119C297.683 239.734 297.892 239.393 298.09 239.019C298.838 239.316 299.597 239.602 300.378 239.976C301.555 241.736 303.073 243.804 304.118 245.63C304.265 245.817 304.369 246.034 304.425 246.266C304.48 246.498 304.484 246.739 304.437 246.972Z" fill="#8FD4ED"/>
<path d="M300.3 239.69C300.3 239.69 299.057 242.484 299.057 242.561C298.925 242.352 298.771 242.132 298.617 241.912C295.823 238.042 292.796 234.347 289.553 230.846C285.714 227.744 281.072 224.95 275.176 227.854C275.913 225.786 282.271 210.496 296.252 221.925C298.767 223.941 300.728 226.565 301.95 229.548C302.54 231.242 302.698 233.057 302.409 234.828C302.121 236.599 301.396 238.27 300.3 239.69Z" fill="#8FD4ED"/>
<path d="M286.804 226.6C287.003 226.242 287.09 225.833 287.054 225.425C287.019 225.018 286.863 224.63 286.606 224.312C286.074 223.684 285.345 223.254 284.538 223.091C283.753 222.863 282.915 222.898 282.151 223.19C281.771 223.339 281.439 223.589 281.189 223.913C280.939 224.236 280.781 224.621 280.732 225.027C282.855 224.935 284.944 225.576 286.65 226.842L286.804 226.6Z" fill="#263238"/>
<path d="M283.801 237.028C283.603 237.677 283.141 238.128 282.701 238.018C282.261 237.908 282.063 237.281 282.228 236.621C282.393 235.961 282.888 235.521 283.328 235.62C283.768 235.719 283.955 236.368 283.801 237.028Z" fill="#263238"/>
<path d="M283.272 235.906C283.272 235.906 283.272 236.049 283.184 236.06C283.15 236.06 283.115 236.054 283.083 236.041C283.051 236.027 283.021 236.008 282.997 235.983C282.667 235.72 282.406 235.38 282.238 234.993C282.573 235.265 282.943 235.491 283.338 235.664L283.272 235.906Z" fill="#263238"/>
<path d="M276.32 235.092C276.122 235.752 275.671 236.192 275.22 236.082C274.769 235.972 274.571 235.345 274.747 234.685C274.923 234.025 275.396 233.585 275.847 233.706C276.298 233.827 276.496 234.432 276.32 235.092Z" fill="#263238"/>
<path d="M275.694 233.992C275.749 234.047 275.694 234.146 275.617 234.146C275.581 234.147 275.544 234.141 275.51 234.128C275.476 234.115 275.445 234.094 275.419 234.069C275.089 233.806 274.828 233.466 274.66 233.079C274.999 233.348 275.368 233.577 275.76 233.761L275.694 233.992Z" fill="#263238"/>
<path d="M293.019 240.955C292.642 240.292 292.139 239.711 291.536 239.245C290.934 238.779 290.245 238.436 289.51 238.238L286.21 237.336C286.404 236.429 286.249 235.483 285.776 234.686C285.304 233.889 284.548 233.299 283.66 233.034C282.772 232.769 281.817 232.848 280.984 233.256C280.152 233.664 279.504 234.37 279.17 235.235C278.945 235.068 278.666 234.994 278.389 235.026C278.511 234.097 278.268 233.158 277.712 232.404C277.156 231.651 276.329 231.142 275.406 230.986C274.483 230.829 273.535 231.036 272.761 231.564C271.988 232.092 271.449 232.899 271.258 233.815C271.067 234.732 271.239 235.687 271.737 236.48C272.236 237.273 273.022 237.841 273.931 238.067C274.84 238.292 275.801 238.155 276.612 237.687C277.422 237.218 278.02 236.454 278.279 235.554C278.404 235.496 278.545 235.484 278.678 235.52C278.811 235.556 278.927 235.638 279.005 235.752C278.735 236.691 278.849 237.699 279.323 238.554C279.796 239.409 280.59 240.041 281.529 240.311C282.469 240.581 283.477 240.467 284.332 239.993C285.187 239.52 285.819 238.726 286.089 237.787L289.389 238.7C290.749 239.07 291.908 239.964 292.612 241.186L293.382 242.55L293.8 242.319L293.019 240.955ZM273.901 237.6C273.286 237.432 272.735 237.085 272.317 236.604C271.899 236.123 271.633 235.529 271.553 234.897C271.472 234.265 271.581 233.624 271.865 233.053C272.149 232.483 272.596 232.01 273.149 231.693C273.702 231.377 274.337 231.231 274.972 231.275C275.608 231.319 276.216 231.551 276.721 231.94C277.225 232.33 277.602 232.86 277.805 233.464C278.008 234.068 278.027 234.719 277.861 235.334C277.75 235.743 277.559 236.126 277.3 236.461C277.041 236.796 276.719 237.077 276.351 237.288C275.983 237.498 275.577 237.634 275.157 237.688C274.736 237.741 274.31 237.711 273.901 237.6ZM281.755 239.745C281.137 239.578 280.582 239.232 280.16 238.749C279.739 238.267 279.471 237.671 279.389 237.036C279.307 236.401 279.415 235.756 279.7 235.182C279.985 234.609 280.434 234.133 280.99 233.815C281.546 233.497 282.183 233.351 282.822 233.396C283.461 233.441 284.072 233.674 284.578 234.066C285.084 234.459 285.462 234.992 285.664 235.6C285.867 236.207 285.884 236.861 285.715 237.479C285.6 237.887 285.407 238.269 285.145 238.602C284.883 238.936 284.557 239.214 284.187 239.422C283.817 239.629 283.41 239.762 282.989 239.811C282.568 239.861 282.141 239.827 281.733 239.712L281.755 239.745Z" fill="#263238"/>
<path d="M299.101 254.32C299.101 257.499 298.87 260.81 297.198 263.494C294.679 267.487 289.498 268.994 284.801 268.873C285.526 268.795 286.214 268.51 286.782 268.052C287.35 267.593 287.773 266.981 288.002 266.288C286.709 266.752 285.315 266.862 283.965 266.607C284.45 266.457 284.893 266.197 285.262 265.848C285.63 265.499 285.913 265.07 286.088 264.594C286.428 263.638 286.621 262.637 286.66 261.624C287.529 251.372 288.464 240.889 289.333 230.637C290.496 231.612 291.567 232.69 292.534 233.86C294.593 236.195 296.489 238.668 298.21 241.263C298.232 241.373 299.112 250.195 299.101 254.32Z" fill="#263238"/>
<path d="M132.319 142.021H111.012C104.311 142.021 98.8789 147.453 98.8789 154.154V175.461C98.8789 182.162 104.311 187.594 111.012 187.594H132.319C139.02 187.594 144.452 182.162 144.452 175.461V154.154C144.452 147.453 139.02 142.021 132.319 142.021Z" fill="#8FD4ED"/>
<path opacity="0.6" d="M132.319 142.021H111.012C104.311 142.021 98.8789 147.453 98.8789 154.154V175.461C98.8789 182.162 104.311 187.594 111.012 187.594H132.319C139.02 187.594 144.452 182.162 144.452 175.461V154.154C144.452 147.453 139.02 142.021 132.319 142.021Z" fill="white"/>
<path fill-rule="evenodd" clip-rule="evenodd" d="M117.699 170.929C116.576 170.899 115.489 170.525 114.584 169.859C113.68 169.192 113.001 168.264 112.639 167.2C113.409 167.345 114.202 167.319 114.96 167.123H115.026C113.79 166.883 112.674 166.221 111.872 165.25C111.069 164.279 110.629 163.059 110.626 161.799C111.349 162.197 112.156 162.419 112.98 162.448C111.862 161.66 111.078 160.483 110.78 159.148C110.452 157.83 110.641 156.437 111.308 155.254C112.684 156.91 114.386 158.264 116.31 159.231C118.233 160.199 120.335 160.758 122.484 160.875C122.474 160.674 122.441 160.475 122.385 160.281C122.214 159.056 122.479 157.81 123.133 156.761C123.523 156.122 124.049 155.577 124.675 155.166C125.301 154.755 126.011 154.488 126.752 154.385C127.598 154.235 128.467 154.292 129.286 154.553C130.104 154.813 130.847 155.269 131.449 155.881C131.482 155.924 131.527 155.956 131.578 155.972C131.629 155.988 131.685 155.987 131.735 155.969C132.831 155.741 133.883 155.336 134.848 154.77H134.925C134.546 155.917 133.795 156.904 132.791 157.575C133.821 157.457 134.826 157.183 135.772 156.761C135.574 157.036 135.376 157.311 135.167 157.575C134.61 158.276 133.962 158.901 133.242 159.434C133.211 159.448 133.184 159.471 133.166 159.501C133.149 159.53 133.141 159.565 133.143 159.599C133.169 160.397 133.129 161.195 133.022 161.986C132.841 163.638 132.395 165.25 131.702 166.76C130.996 168.327 130.029 169.763 128.842 171.006C126.857 173.092 124.288 174.53 121.472 175.131C120.484 175.339 119.479 175.46 118.469 175.494C115.426 175.584 112.423 174.777 109.834 173.173L109.691 173.096C111.522 173.302 113.376 173.045 115.081 172.348C116.018 172.004 116.9 171.526 117.699 170.929Z" fill="#8FD4ED"/>
<path d="M196.735 208.582H175.428C168.727 208.582 163.295 214.014 163.295 220.715V242.022C163.295 248.723 168.727 254.155 175.428 254.155H196.735C203.436 254.155 208.868 248.723 208.868 242.022V220.715C208.868 214.014 203.436 208.582 196.735 208.582Z" fill="#8FD4ED"/>
<path opacity="0.6" d="M196.735 208.582H175.428C168.727 208.582 163.295 214.014 163.295 220.715V242.022C163.295 248.723 168.727 254.155 175.428 254.155H196.735C203.436 254.155 208.868 248.723 208.868 242.022V220.715C208.868 214.014 203.436 208.582 196.735 208.582Z" fill="white"/>
<path d="M194.183 215.006H178.332C176.929 215.006 175.791 216.144 175.791 217.547V244.442C175.791 245.845 176.929 246.983 178.332 246.983H194.183C195.586 246.983 196.724 245.845 196.724 244.442V217.547C196.724 216.144 195.586 215.006 194.183 215.006Z" fill="white"/>
<path d="M193.314 241.208L191.301 241.571L191.796 239.591L202.158 229.9C202.264 229.8 202.388 229.723 202.524 229.672C202.66 229.62 202.805 229.597 202.95 229.602C203.095 229.607 203.238 229.641 203.37 229.701C203.502 229.762 203.621 229.848 203.72 229.955C203.823 230.057 203.905 230.179 203.961 230.313C204.016 230.447 204.045 230.591 204.045 230.736C204.045 230.881 204.016 231.025 203.961 231.159C203.905 231.293 203.823 231.415 203.72 231.517L193.314 241.208Z" fill="#8FD4ED"/>
<path d="M184.493 243.584C184.306 243.589 184.12 243.556 183.947 243.488C183.773 243.42 183.614 243.318 183.481 243.188C183.214 242.86 183.068 242.45 183.068 242.027C183.068 241.604 183.214 241.195 183.481 240.867C184.033 239.955 184.785 239.18 185.681 238.601C186.134 238.289 186.641 238.065 187.177 237.941C187.09 237.759 186.962 237.601 186.803 237.479C185.989 236.852 184.702 237.38 183.833 238.029C182.331 239.169 181.186 240.715 180.533 242.484C180.478 242.62 180.374 242.73 180.241 242.791C180.108 242.853 179.956 242.861 179.818 242.814C179.749 242.788 179.687 242.749 179.634 242.699C179.581 242.649 179.538 242.59 179.509 242.523C179.479 242.456 179.463 242.385 179.461 242.312C179.459 242.239 179.472 242.167 179.499 242.099C180.241 240.125 181.531 238.404 183.217 237.138C184.438 236.236 186.209 235.609 187.496 236.599C187.929 236.937 188.239 237.409 188.376 237.941C188.852 238.029 189.283 238.278 189.598 238.647C189.912 239.015 190.091 239.481 190.103 239.965C190.07 240.396 189.938 240.814 189.718 241.186C189.718 241.285 189.619 241.384 189.575 241.483C189.507 241.594 189.466 241.719 189.454 241.849C189.443 241.979 189.461 242.109 189.509 242.231C189.595 242.288 189.696 242.319 189.8 242.319C189.904 242.319 190.005 242.288 190.092 242.231C190.395 241.996 190.647 241.7 190.829 241.362C190.908 241.24 191.031 241.153 191.173 241.121C191.314 241.088 191.463 241.111 191.588 241.186C191.71 241.265 191.796 241.389 191.827 241.531C191.858 241.673 191.831 241.822 191.753 241.945C191.49 242.438 191.113 242.86 190.653 243.177C190.347 243.375 189.982 243.46 189.621 243.418C189.259 243.376 188.924 243.209 188.673 242.946C188.475 242.672 188.361 242.346 188.343 242.009C188.326 241.671 188.406 241.336 188.574 241.043C188.574 240.933 188.673 240.823 188.728 240.713C188.873 240.478 188.97 240.216 189.014 239.943C189.003 239.773 188.946 239.61 188.849 239.47C188.752 239.331 188.619 239.22 188.464 239.151C188.431 239.464 188.357 239.77 188.244 240.064C187.771 241.07 187.084 241.959 186.231 242.671C185.924 243.012 185.549 243.286 185.131 243.474C184.926 243.547 184.71 243.584 184.493 243.584ZM187.375 239.041C186.982 239.136 186.61 239.3 186.275 239.525C185.511 240.013 184.868 240.667 184.394 241.439C184.185 241.791 184.042 242.242 184.207 242.407C184.283 242.446 184.368 242.467 184.454 242.467C184.54 242.467 184.625 242.446 184.702 242.407C184.979 242.261 185.228 242.067 185.439 241.835C186.168 241.23 186.763 240.481 187.188 239.635C187.278 239.447 187.341 239.247 187.375 239.041Z" fill="#8FD4ED"/>
<path d="M193.789 219.029L178.708 219.102C178.471 219.104 178.28 219.297 178.281 219.533L178.282 219.665C178.283 219.902 178.476 220.094 178.713 220.092L193.794 220.019C194.031 220.018 194.222 219.825 194.221 219.588L194.22 219.456C194.219 219.219 194.026 219.028 193.789 219.029Z" fill="#8FD4ED"/>
<path d="M193.809 223.087L178.728 223.161C178.491 223.162 178.3 223.355 178.301 223.592L178.302 223.724C178.303 223.961 178.496 224.152 178.733 224.151L193.813 224.077C194.05 224.076 194.242 223.883 194.24 223.646L194.24 223.514C194.239 223.277 194.046 223.086 193.809 223.087Z" fill="#8FD4ED"/>
<path d="M193.828 227.146L178.747 227.22C178.51 227.221 178.319 227.414 178.32 227.651L178.321 227.783C178.322 228.02 178.515 228.211 178.752 228.21L193.833 228.136C194.07 228.135 194.261 227.942 194.26 227.705L194.259 227.573C194.258 227.336 194.065 227.145 193.828 227.146Z" fill="#8FD4ED"/>
<path d="M186.033 231.22L178.729 231.297C178.673 231.297 178.618 231.308 178.566 231.33C178.515 231.352 178.468 231.384 178.429 231.424C178.39 231.463 178.36 231.511 178.339 231.563C178.319 231.615 178.309 231.67 178.311 231.726V231.858C178.311 231.972 178.356 232.081 178.436 232.162C178.517 232.242 178.626 232.287 178.74 232.287L186.033 232.21C186.089 232.21 186.144 232.199 186.195 232.177C186.247 232.156 186.293 232.124 186.332 232.084C186.371 232.044 186.402 231.997 186.422 231.945C186.442 231.893 186.452 231.837 186.451 231.781V231.649C186.452 231.593 186.442 231.538 186.422 231.486C186.402 231.434 186.371 231.386 186.332 231.347C186.293 231.307 186.247 231.275 186.195 231.253C186.144 231.231 186.089 231.22 186.033 231.22Z" fill="#8FD4ED"/>
<path d="M386.108 302.5C376.464 302.5 373.643 302.51 373.095 302.555C371.116 302.72 369.884 303.032 368.542 303.7C367.508 304.213 366.693 304.809 365.888 305.643C364.422 307.165 363.534 309.037 363.213 311.263C363.056 312.344 363.011 312.564 363.002 318.083C362.998 319.922 363.002 322.344 363.002 325.591C363.002 335.23 363.012 338.048 363.058 338.596C363.218 340.522 363.52 341.734 364.16 343.06C365.382 345.597 367.717 347.502 370.467 348.213C371.419 348.458 372.471 348.593 373.821 348.657C374.393 348.682 380.224 348.7 386.058 348.7C391.892 348.7 397.727 348.693 398.285 348.664C399.848 348.591 400.756 348.469 401.76 348.21C404.528 347.495 406.819 345.619 408.067 343.045C408.694 341.752 409.012 340.493 409.156 338.668C409.187 338.27 409.2 331.923 409.2 325.585C409.2 319.246 409.186 312.911 409.155 312.513C409.009 310.657 408.691 309.41 408.043 308.091C407.512 307.012 406.922 306.206 406.066 305.382C404.538 303.922 402.669 303.033 400.442 302.712C399.363 302.556 399.148 302.51 393.626 302.5H386.108Z" fill="url(#paint0_radial_4036_992)"/>
<path d="M386.108 302.5C376.464 302.5 373.643 302.51 373.095 302.555C371.116 302.72 369.884 303.032 368.542 303.7C367.508 304.213 366.693 304.809 365.888 305.643C364.422 307.165 363.534 309.037 363.213 311.263C363.056 312.344 363.011 312.564 363.002 318.083C362.998 319.922 363.002 322.344 363.002 325.591C363.002 335.23 363.012 338.048 363.058 338.596C363.218 340.522 363.52 341.734 364.16 343.06C365.382 345.597 367.717 347.502 370.467 348.213C371.419 348.458 372.471 348.593 373.821 348.657C374.393 348.682 380.224 348.7 386.058 348.7C391.892 348.7 397.727 348.693 398.285 348.664C399.848 348.591 400.756 348.469 401.76 348.21C404.528 347.495 406.819 345.619 408.067 343.045C408.694 341.752 409.012 340.493 409.156 338.668C409.187 338.27 409.2 331.923 409.2 325.585C409.2 319.246 409.186 312.911 409.155 312.513C409.009 310.657 408.691 309.41 408.043 308.091C407.512 307.012 406.922 306.206 406.066 305.382C404.538 303.922 402.669 303.033 400.442 302.712C399.363 302.556 399.148 302.51 393.626 302.5H386.108Z" fill="url(#paint1_radial_4036_992)"/>
<path d="M386.108 302.5C376.464 302.5 373.643 302.51 373.095 302.555C371.116 302.72 369.884 303.032 368.542 303.7C367.508 304.213 366.693 304.809 365.888 305.643C364.422 307.165 363.534 309.037 363.213 311.263C363.056 312.344 363.011 312.564 363.002 318.083C362.998 319.922 363.002 322.344 363.002 325.591C363.002 335.23 363.012 338.048 363.058 338.596C363.218 340.522 363.52 341.734 364.16 343.06C365.382 345.597 367.717 347.502 370.467 348.213C371.419 348.458 372.471 348.593 373.821 348.657C374.393 348.682 380.224 348.7 386.058 348.7C391.892 348.7 397.727 348.693 398.285 348.664C399.848 348.591 400.756 348.469 401.76 348.21C404.528 347.495 406.819 345.619 408.067 343.045C408.694 341.752 409.012 340.493 409.156 338.668C409.187 338.27 409.2 331.923 409.2 325.585C409.2 319.246 409.186 312.911 409.155 312.513C409.009 310.657 408.691 309.41 408.043 308.091C407.512 307.012 406.922 306.206 406.066 305.382C404.538 303.922 402.669 303.033 400.442 302.712C399.363 302.556 399.148 302.51 393.626 302.5H386.108Z" fill="url(#paint2_radial_4036_992)"/>
<path d="M386.108 302.5C376.464 302.5 373.643 302.51 373.095 302.555C371.116 302.72 369.884 303.032 368.542 303.7C367.508 304.213 366.693 304.809 365.888 305.643C364.422 307.165 363.534 309.037 363.213 311.263C363.056 312.344 363.011 312.564 363.002 318.083C362.998 319.922 363.002 322.344 363.002 325.591C363.002 335.23 363.012 338.048 363.058 338.596C363.218 340.522 363.52 341.734 364.16 343.06C365.382 345.597 367.717 347.502 370.467 348.213C371.419 348.458 372.471 348.593 373.821 348.657C374.393 348.682 380.224 348.7 386.058 348.7C391.892 348.7 397.727 348.693 398.285 348.664C399.848 348.591 400.756 348.469 401.76 348.21C404.528 347.495 406.819 345.619 408.067 343.045C408.694 341.752 409.012 340.493 409.156 338.668C409.187 338.27 409.2 331.923 409.2 325.585C409.2 319.246 409.186 312.911 409.155 312.513C409.009 310.657 408.691 309.41 408.043 308.091C407.512 307.012 406.922 306.206 406.066 305.382C404.538 303.922 402.669 303.033 400.442 302.712C399.363 302.556 399.148 302.51 393.626 302.5H386.108Z" fill="url(#paint3_radial_4036_992)"/>
<path d="M386.116 308.43C381.451 308.43 380.866 308.451 379.034 308.534C377.205 308.618 375.957 308.907 374.864 309.331C373.735 309.77 372.776 310.356 371.822 311.311C370.866 312.265 370.279 313.222 369.839 314.351C369.413 315.443 369.123 316.69 369.041 318.517C368.959 320.348 368.938 320.933 368.938 325.595C368.938 330.257 368.958 330.84 369.041 332.671C369.125 334.498 369.415 335.745 369.839 336.837C370.278 337.966 370.865 338.923 371.82 339.877C372.775 340.832 373.733 341.42 374.862 341.859C375.955 342.283 377.204 342.572 379.032 342.656C380.864 342.739 381.45 342.76 386.114 342.76C390.78 342.76 391.363 342.739 393.196 342.656C395.024 342.572 396.274 342.283 397.367 341.859C398.496 341.42 399.453 340.832 400.408 339.877C401.363 338.923 401.95 337.966 402.39 336.837C402.813 335.745 403.102 334.498 403.188 332.671C403.271 330.84 403.292 330.257 403.292 325.595C403.292 320.933 403.271 320.348 403.188 318.517C403.102 316.69 402.813 315.443 402.39 314.351C401.95 313.222 401.363 312.265 400.408 311.311C399.452 310.356 398.497 309.769 397.366 309.331C396.271 308.907 395.022 308.618 393.193 308.534C391.361 308.451 390.778 308.43 386.111 308.43H386.116ZM384.575 311.523C385.033 311.523 385.543 311.523 386.116 311.523C390.703 311.523 391.246 311.54 393.058 311.622C394.732 311.699 395.641 311.978 396.247 312.213C397.048 312.524 397.62 312.896 398.221 313.497C398.822 314.098 399.194 314.67 399.506 315.471C399.741 316.075 400.022 316.984 400.098 318.657C400.18 320.467 400.198 321.01 400.198 325.591C400.198 330.172 400.18 330.715 400.098 332.525C400.021 334.198 399.741 335.107 399.506 335.711C399.195 336.512 398.822 337.082 398.221 337.683C397.62 338.284 397.049 338.656 396.247 338.967C395.642 339.203 394.732 339.482 393.058 339.558C391.247 339.64 390.703 339.658 386.116 339.658C381.53 339.658 380.986 339.64 379.175 339.558C377.5 339.481 376.592 339.201 375.986 338.966C375.184 338.655 374.611 338.283 374.01 337.682C373.409 337.082 373.037 336.511 372.725 335.71C372.49 335.105 372.209 334.197 372.133 332.523C372.051 330.714 372.034 330.17 372.034 325.587C372.034 321.003 372.051 320.462 372.133 318.653C372.21 316.979 372.49 316.071 372.725 315.466C373.036 314.665 373.409 314.093 374.01 313.492C374.611 312.891 375.184 312.519 375.986 312.208C376.591 311.971 377.5 311.693 379.175 311.616C380.76 311.544 381.374 311.523 384.575 311.519L384.575 311.523ZM395.286 314.373C394.148 314.373 393.224 315.295 393.224 316.433C393.224 317.57 394.148 318.492 395.286 318.492C396.424 318.492 397.347 317.57 397.347 316.433C397.347 315.295 396.424 314.373 395.286 314.373L395.286 314.373ZM386.116 316.78C381.245 316.78 377.295 320.727 377.295 325.595C377.295 330.463 381.245 334.408 386.116 334.408C390.988 334.408 394.936 330.463 394.936 325.595C394.936 320.727 390.988 316.78 386.116 316.78H386.116ZM386.116 319.873C389.279 319.873 391.842 322.435 391.842 325.595C391.842 328.755 389.279 331.317 386.116 331.317C382.954 331.317 380.391 328.755 380.391 325.595C380.391 322.435 382.954 319.873 386.116 319.873Z" fill="white"/>
<g clip-path="url(#clip1_4036_992)">
<path d="M400 209C400 197.402 390.598 188 379 188C367.402 188 358 197.402 358 209C358 219.482 365.679 228.17 375.719 229.745V215.071H370.387V209H375.719V204.374C375.719 199.111 378.854 196.203 383.651 196.203C385.948 196.203 388.352 196.614 388.352 196.614V201.781H385.704C383.095 201.781 382.281 203.4 382.281 205.061V209H388.105L387.174 215.071H382.281V229.745C392.321 228.17 400 219.482 400 209Z" fill="#1877F2"/>
<path d="M387.174 215.07L388.105 209H382.281V205.061C382.281 203.4 383.095 201.781 385.704 201.781H388.352V196.613C388.352 196.613 385.948 196.203 383.651 196.203C378.854 196.203 375.719 199.11 375.719 204.373V209H370.387V215.07H375.719V229.745C376.788 229.913 377.884 230 379 230C380.116 230 381.212 229.913 382.281 229.745V215.07H387.174Z" fill="white"/>
</g>
<path d="M400.98 111.956V110.756C400.584 110.697 400.188 110.672 399.792 110.667C394.921 110.667 390.961 114.752 390.961 119.777C390.961 122.75 392.368 125.535 394.73 127.238C393.26 125.609 392.387 123.429 392.387 121.032C392.378 116.101 396.199 112.07 400.98 111.956Z" fill="#25F4EE"/>
<path d="M401.186 125.225C403.357 125.225 405.155 123.414 405.236 121.195L405.255 101.385H408.738L408.733 101.355C408.657 100.942 408.619 100.518 408.619 100.1H403.824L403.815 119.939C403.738 122.233 401.873 124.024 399.655 123.946C399.049 123.926 398.457 123.764 397.918 123.468C398.653 124.512 399.845 125.225 401.186 125.225Z" fill="#25F4EE"/>
<path d="M415.297 108.147V106.985C414.005 106.985 412.74 106.597 411.662 105.868C412.597 106.976 413.861 107.827 415.297 108.147Z" fill="#25F4EE"/>
<path d="M411.663 105.868C410.604 104.618 410.022 103.014 410.022 101.35H408.715C409.054 103.24 410.16 104.859 411.663 105.868Z" fill="#FE2C55"/>
<path d="M399.786 115.579C397.563 115.579 395.727 117.483 395.727 119.777C395.727 121.376 396.633 122.764 397.916 123.458C396.614 121.598 397.019 119.004 398.818 117.656C399.505 117.144 400.335 116.868 401.184 116.868C401.59 116.868 401.991 116.932 402.377 117.06V112.015C401.981 111.956 401.585 111.927 401.184 111.927C401.113 111.927 401.046 111.932 400.974 111.932H400.955L400.946 115.761C400.574 115.638 400.182 115.579 399.786 115.579Z" fill="#FE2C55"/>
<path d="M415.297 108.088L415.273 108.083V111.907C412.873 111.902 410.536 111.12 408.589 109.668V119.782C408.594 124.792 404.663 128.862 399.802 128.867C399.797 128.867 399.792 128.867 399.782 128.867C397.898 128.867 396.157 128.282 394.721 127.243C396.386 129.099 398.728 130.152 401.18 130.147C406.051 130.147 410.016 126.062 410.016 121.037V110.977C411.962 112.419 414.295 113.197 416.69 113.192V108.241C416.227 108.241 415.76 108.186 415.297 108.088Z" fill="#FE2C55"/>
<path d="M408.623 119.782V109.717C410.569 111.159 412.902 111.937 415.297 111.932V108.083C413.885 107.768 412.606 106.99 411.662 105.863C410.13 104.835 409.071 103.201 408.733 101.345H405.221L405.217 121.194C405.14 123.488 403.275 125.279 401.052 125.201C399.802 125.156 398.647 124.517 397.922 123.468C395.947 122.405 395.188 119.89 396.219 117.853C396.915 116.479 398.289 115.623 399.792 115.623C400.198 115.623 400.598 115.687 400.985 115.815V111.932C396.209 112.045 392.359 116.086 392.359 121.037C392.359 123.34 393.204 125.56 394.73 127.243C396.214 128.321 397.979 128.897 399.792 128.897C404.658 128.892 408.623 124.807 408.623 119.782Z" fill="white"/>
<path d="M380.6 135.571H388.338L387.627 137.854H385.618V146.3H383.119V137.85L380.6 137.854V135.571Z" fill="white"/>
<path d="M401.014 135.571H408.933L408.222 137.854H406.037V146.3H403.533V137.85L401.014 137.854V135.571Z" fill="white"/>
<path d="M388.811 138.981H391.291V146.295H388.825L388.811 138.981Z" fill="white"/>
<path d="M392.273 135.536H394.754V140.532L397.211 138.046H400.169L397.063 141.157L400.546 146.295H397.812L395.489 142.732L394.754 143.47V146.295H392.273V135.536Z" fill="white"/>
<path d="M418.538 135.536H421.019V140.532L423.476 138.046H426.434L423.323 141.157L426.801 146.295H424.072L421.749 142.732L421.014 143.47V146.295H418.533L418.538 135.536Z" fill="white"/>
<path d="M390.051 138.145C390.741 138.145 391.301 137.568 391.301 136.855C391.301 136.143 390.741 135.566 390.051 135.566C389.36 135.566 388.801 136.143 388.801 136.855C388.801 137.568 389.36 138.145 390.051 138.145Z" fill="white"/>
<path d="M408.633 141.92C408.633 139.636 410.337 137.736 412.545 137.554C412.436 137.544 412.269 137.54 412.154 137.54C409.807 137.54 407.908 139.498 407.908 141.92C407.908 144.341 409.807 146.3 412.154 146.3C412.264 146.3 412.436 146.295 412.545 146.285C410.341 146.103 408.638 144.204 408.633 141.92Z" fill="#25F4EE"/>
<path d="M413.495 137.54C413.38 137.54 413.213 137.544 413.104 137.554C415.441 137.761 417.173 139.877 416.973 142.289C416.796 144.415 415.164 146.103 413.104 146.281C413.213 146.29 413.385 146.295 413.495 146.295C415.842 146.295 417.741 144.336 417.741 141.915C417.741 139.493 415.842 137.535 413.495 137.54Z" fill="#FE2C55"/>
<path d="M412.82 137.54C410.473 137.54 408.574 139.498 408.574 141.92C408.574 144.341 410.473 146.3 412.82 146.3C415.167 146.3 417.066 144.341 417.066 141.92C417.066 139.498 415.167 137.54 412.82 137.54ZM412.82 144.046C411.68 144.046 410.754 143.091 410.754 141.915C410.754 140.739 411.68 139.784 412.82 139.784C413.96 139.784 414.886 140.739 414.886 141.915C414.886 143.091 413.96 144.046 412.82 144.046Z" fill="white"/>
<path d="M135.3 305.225C135.3 303.587 135.15 302.012 134.872 300.5H112.672V309.436H125.358C124.811 312.324 123.15 314.77 120.654 316.408V322.204H128.272C132.729 318.183 135.3 312.261 135.3 305.225Z" fill="#4285F4"/>
<path d="M112.672 327.8C119.036 327.8 124.372 325.731 128.272 322.203L120.654 316.407C118.543 317.793 115.843 318.612 112.672 318.612C106.532 318.612 101.336 314.549 99.4824 309.089H91.6074V315.074C95.486 322.623 103.457 327.8 112.672 327.8Z" fill="#34A853"/>
<path d="M99.4818 309.089C99.0103 307.703 98.7425 306.222 98.7425 304.7C98.7425 303.177 99.0103 301.697 99.4818 300.311V294.326H91.6068C89.9568 297.545 89.0982 301.097 89.0996 304.7C89.0996 308.427 90.0103 311.955 91.6068 315.074L99.4818 309.089Z" fill="#FBBC05"/>
<path d="M112.672 290.788C116.132 290.788 119.24 291.953 121.682 294.242L128.443 287.617C124.361 283.889 119.025 281.6 112.672 281.6C103.457 281.6 95.486 286.777 91.6074 294.326L99.4824 300.311C101.336 294.851 106.532 290.788 112.672 290.788Z" fill="#EA4335"/>
</g>
<defs>
<radialGradient id="paint0_radial_4036_992" cx="0" cy="0" r="1" gradientUnits="userSpaceOnUse" gradientTransform="translate(407.708 324.155) rotate(164.25) scale(29.5192 21.2671)">
<stop stop-color="#FF005F"/>
<stop offset="1" stop-color="#FC01D8"/>
</radialGradient>
<radialGradient id="paint1_radial_4036_992" cx="0" cy="0" r="1" gradientUnits="userSpaceOnUse" gradientTransform="translate(375.272 352.258) rotate(-90) scale(36.8777 39.1265)">
<stop stop-color="#FFCC00"/>
<stop offset="0.1242" stop-color="#FFCC00"/>
<stop offset="0.5672" stop-color="#FE4A05"/>
<stop offset="0.6942" stop-color="#FF0F3F"/>
<stop offset="1" stop-color="#FE0657" stop-opacity="0"/>
</radialGradient>
<radialGradient id="paint2_radial_4036_992" cx="0" cy="0" r="1" gradientUnits="userSpaceOnUse" gradientTransform="translate(387.267 348.048) rotate(-59.8703) scale(15.2493 19.8528)">
<stop stop-color="#FFCC00"/>
<stop offset="1" stop-color="#FFCC00" stop-opacity="0"/>
</radialGradient>
<radialGradient id="paint3_radial_4036_992" cx="0" cy="0" r="1" gradientUnits="userSpaceOnUse" gradientTransform="translate(369.268 304.381) rotate(164.274) scale(29.1918 9.94561)">
<stop stop-color="#780CFF"/>
<stop offset="1" stop-color="#820BFF" stop-opacity="0"/>
</radialGradient>
<clipPath id="clip0_4036_992">
<rect width="550" height="550" fill="white"/>
</clipPath>
<clipPath id="clip1_4036_992">
<rect width="42" height="42" fill="white" transform="translate(358 188)"/>
</clipPath>
</defs>
</svg>
