<svg width="665" height="587" viewBox="0 0 665 587" fill="none" xmlns="http://www.w3.org/2000/svg">
<path d="M392.715 406.807L438.422 431.711L392.715 456.814L367.711 502.421L342.707 456.814L297 431.711L342.707 406.807L367.711 361L392.715 406.807Z" fill="#B9FF66"/>
<path d="M327.036 239.854L408.711 284.355L327.036 329.214L282.355 410.711L237.675 329.214L156 284.355L237.675 239.854L282.355 158L327.036 239.854Z" fill="#191A23"/>
<path d="M345.586 273.187C414.025 310.937 472.758 350.935 512.391 385.077C532.21 402.151 547.233 417.742 556.306 430.842C560.843 437.393 563.876 443.297 565.288 448.433C566.699 453.568 566.479 457.89 564.58 461.333C562.68 464.777 559.142 467.268 554.047 468.813C548.949 470.359 542.337 470.943 534.376 470.6C518.455 469.913 497.254 465.524 472.24 457.868C422.219 442.558 357.057 414.216 288.618 376.465C220.179 338.715 161.445 298.717 121.812 264.575C101.993 247.501 86.971 231.91 77.8974 218.81C73.36 212.259 70.3264 206.355 68.9146 201.218C67.5035 196.084 67.723 191.763 69.6224 188.319C71.522 184.875 75.0605 182.384 80.1559 180.839C85.2536 179.293 91.8663 178.709 99.8276 179.052C115.748 179.739 136.949 184.128 161.963 191.784C211.983 207.094 277.146 235.436 345.586 273.187Z" stroke="black"/>
<path d="M305.127 346.534C373.566 384.285 432.299 424.283 471.932 458.425C491.751 475.498 506.774 491.09 515.847 504.19C520.385 510.74 523.417 516.645 524.829 521.781C526.24 526.915 526.02 531.237 524.121 534.681C522.221 538.125 518.683 540.616 513.588 542.161C508.49 543.707 501.878 544.291 493.917 543.948C477.997 543.261 456.795 538.871 431.781 531.215C381.76 515.906 316.598 487.564 248.159 449.813C179.72 412.062 120.986 372.065 81.3531 337.922C61.5341 320.849 46.512 305.257 37.4384 292.158C32.901 285.607 29.8674 279.702 28.4556 274.566C27.0445 269.432 27.2641 265.11 29.1634 261.667C31.063 258.223 34.6015 255.731 39.6969 254.186C44.7946 252.64 51.4073 252.056 59.3686 252.4C75.289 253.087 96.4902 257.476 121.504 265.132C171.524 280.441 236.687 308.784 305.127 346.534Z" stroke="black"/>
<path d="M416.586 137.187C485.025 174.937 543.758 214.935 583.391 249.077C603.21 266.151 618.233 281.742 627.306 294.842C631.843 301.393 634.876 307.297 636.288 312.433C637.699 317.568 637.479 321.89 635.58 325.333C633.68 328.777 630.142 331.268 625.047 332.813C619.949 334.359 613.337 334.943 605.376 334.6C589.455 333.913 568.254 329.524 543.24 321.868C493.219 306.558 428.057 278.216 359.618 240.465C291.179 202.715 232.445 162.717 192.812 128.575C172.993 111.501 157.971 95.9098 148.897 82.8102C144.36 76.2595 141.326 70.3547 139.915 65.2182C138.503 60.0844 138.723 55.7628 140.622 52.319C142.522 48.8752 146.061 46.3836 151.156 44.8385C156.254 43.2927 162.866 42.7087 170.828 43.0521C186.748 43.739 207.949 48.1281 232.963 55.784C282.983 71.0937 348.146 99.4361 416.586 137.187Z" stroke="black"/>
<path d="M376.127 210.534C444.566 248.285 503.299 288.283 542.932 322.425C562.751 339.498 577.774 355.09 586.847 368.19C591.385 374.74 594.417 380.645 595.829 385.781C597.24 390.915 597.02 395.237 595.121 398.681C593.221 402.125 589.683 404.616 584.588 406.161C579.49 407.707 572.878 408.291 564.917 407.948C548.997 407.261 527.795 402.871 502.781 395.215C452.76 379.906 387.598 351.564 319.159 313.813C250.72 276.062 191.986 236.065 152.353 201.922C132.534 184.849 117.512 169.257 108.438 156.158C103.901 149.607 100.867 143.702 99.4556 138.566C98.0445 133.432 98.2641 129.11 100.163 125.667C102.063 122.223 105.602 119.731 110.697 118.186C115.795 116.64 122.407 116.056 130.369 116.4C146.289 117.087 167.49 121.476 192.504 129.132C242.524 144.441 307.687 172.784 376.127 210.534Z" stroke="black"/>
</svg>
